<?xml version="1.0" encoding="utf-8"?>
<!-- Generator: Adobe Illustrator 20.0.0, SVG Export Plug-In . SVG Version: 6.00 Build 0)  -->
<!DOCTYPE svg PUBLIC "-//W3C//DTD SVG 1.1//EN" "http://www.w3.org/Graphics/SVG/1.1/DTD/svg11.dtd">
<svg version="1.1" id="Layer_1" xmlns="http://www.w3.org/2000/svg" xmlns:xlink="http://www.w3.org/1999/xlink" x="0px" y="0px"
	 viewBox="0 0 3000 3000" style="enable-background:new 0 0 3000 3000;" xml:space="preserve">
<style type="text/css">
	.st0{fill:#FFFFFF;}
</style>
<title>header-aboutfilm-desktop</title>
<g id="XMLID_2_">
	<g>
		<path class="st0" d="M3000,0v3000H0V0H3000z M1682.7,1516.6c0.1-0.2,0.2-0.5,0.2-0.8c0-0.4,0-0.7,0-1.1v-4v-20.2v-5.3
			c0-0.5,0-1,0-1.4s-0.3-0.7-0.7-0.8c-0.2-0.1-0.4-0.1-0.7-0.1c-0.2,0-0.5,0-0.8,0h-2.9c-0.4,0-0.7,0-0.9,0.1s-0.5,0.2-0.7,0.4
			c-0.2,0.2-0.3,0.6-0.3,1.1v0.5c0,0.1,0,0.3,0,0.4c0,0.2,0,0.3,0,0.5v1.8v11.2v3c0,0.3,0,0.5,0,0.8c0,0.3,0,0.5,0,0.7
			c-0.1,0.3-0.1,0.5-0.1,0.7c0,0.2-0.1,0.4-0.3,0.4c-0.1,0.1-0.2,0.1-0.3,0c-0.1-0.1-0.2-0.1-0.2-0.2c-0.2-0.2-0.3-0.3-0.5-0.5
			c-0.1-0.2-0.2-0.4-0.4-0.6c-0.6-0.8-1.1-1.7-1.7-2.6c-0.5-0.9-1.1-1.8-1.6-2.6c-1.1-1.8-2.3-3.7-3.4-5.5c-1.1-1.8-2.3-3.6-3.4-5.5
			l-1.7-2.7c-0.2-0.3-0.3-0.5-0.5-0.8c-0.2-0.2-0.4-0.4-0.8-0.6c-0.3-0.1-0.6-0.2-0.9-0.2c-0.3,0-0.7,0-1,0h-3.9c-0.1,0-0.1,0-0.2,0
			c-0.1,0-0.2,0-0.2,0c-0.3,0.1-0.5,0.3-0.7,0.5c-0.1,0.2-0.2,0.5-0.2,0.9c0,0.4,0,0.8,0,1.1v4.5v19.3v5.5c0,0.5,0,1,0.1,1.4
			c0.1,0.4,0.3,0.7,0.7,0.9c0.2,0.1,0.4,0.1,0.7,0.1s0.5,0,0.8,0h2.9c0.3,0,0.7,0,0.9,0c0.3,0,0.5-0.2,0.7-0.3
			c0.2-0.2,0.2-0.6,0.2-1.1v-0.5c0.1-0.2,0.1-0.3,0.1-0.5c0-0.2,0-0.3,0-0.5v-1.9v-11.5v-3.4c0-0.4,0-0.8,0-1.1
			c0-0.3,0.2-0.6,0.4-0.8c0.3,0,0.6,0.2,0.8,0.5c0.2,0.3,0.4,0.6,0.6,0.8c0.4,0.7,0.9,1.5,1.3,2.1c0.4,0.7,0.9,1.4,1.3,2.1l7.2,11.6
			c0.3,0.4,0.6,0.9,0.8,1.4c0.3,0.5,0.6,0.9,0.8,1.4c0.2,0.3,0.4,0.6,0.6,0.9c0.2,0.3,0.5,0.5,0.8,0.6c0.2,0.1,0.4,0.1,0.7,0.1
			c0.3,0,0.6,0,0.8,0h2.6h1.7c0.2-0.1,0.5-0.1,0.7-0.2C1682.4,1516.9,1682.6,1516.8,1682.7,1516.6z M1639,1500.8
			c0.1-0.2,0.1-0.5,0.1-1c0-0.5-0.1-0.8-0.1-1v-0.4c0-0.2,0-0.3,0-0.6c0-0.2,0-0.4-0.1-0.6c-0.1-0.2-0.1-0.4-0.1-0.6
			c0-0.2,0-0.4-0.1-0.7c-0.1-0.3-0.2-0.7-0.2-1c-0.1-0.3-0.1-0.7-0.2-1c-0.2-0.5-0.3-0.9-0.5-1.3c-0.1-0.4-0.3-0.8-0.5-1.3
			c-0.3-0.6-0.6-1.2-0.9-1.7c-0.3-0.5-0.7-1.1-1-1.6c-0.1-0.2-0.3-0.3-0.4-0.5c-0.2-0.2-0.3-0.3-0.5-0.5c-0.3-0.4-0.7-0.8-1.1-1.1
			c-0.4-0.4-0.9-0.7-1.3-1c-1.3-0.9-2.8-1.7-4.5-2.2c-1.7-0.5-3.6-0.8-5.9-0.7c-0.1,0-0.2,0-0.3,0c-0.1,0-0.2,0-0.3,0l-1.4,0.1
			c-0.2,0-0.3,0.1-0.5,0.1c-0.1,0-0.3,0-0.5,0.1c-0.5,0.1-0.9,0.2-1.4,0.3c-0.5,0.1-0.9,0.2-1.3,0.4c-1.8,0.7-3.3,1.6-4.6,2.7
			s-2.4,2.3-3.3,3.8c-0.3,0.5-0.6,1-0.8,1.5c-0.2,0.6-0.5,1.1-0.7,1.6c-0.2,0.5-0.3,1-0.4,1.6c-0.1,0.5-0.2,1.1-0.4,1.6
			c-0.1,0.2-0.1,0.3-0.1,0.5c0,0.2,0,0.3-0.1,0.5c-0.1,0.2-0.1,0.4-0.1,0.6c0,0.2,0,0.4-0.1,0.7v0.3c0,0.2,0,0.3,0,0.5
			c0,0.1,0,0.3,0,0.5c-0.1,0.2-0.1,0.4-0.1,0.7c0,0.3,0,0.6,0.1,0.8c0,0.2,0,0.4,0,0.6s0,0.4,0,0.6c0.1,0.1,0.1,0.3,0.1,0.4
			c0,0.1,0,0.3,0,0.5c0.1,0.2,0.1,0.5,0.1,0.7c0,0.2,0.1,0.5,0.2,0.7c0,0.1,0,0.2,0,0.4s0,0.2,0.1,0.4c0.2,0.5,0.3,1,0.4,1.5
			c0.1,0.5,0.3,1,0.5,1.4c0.8,1.9,1.9,3.6,3.2,5c1.3,1.4,3,2.5,4.9,3.3c0.3,0.2,0.7,0.3,1.1,0.4c0.4,0.1,0.7,0.3,1.1,0.4
			c0.3,0.1,0.5,0.1,0.8,0.2c0.3,0,0.5,0.1,0.8,0.2c0.3,0.1,0.5,0.1,0.7,0.1c0.2,0,0.5,0.1,0.7,0.1h0.5c0.2,0,0.3,0,0.4,0
			c0.2,0,0.3,0,0.5,0c0.1,0,0.3,0.1,0.6,0.1c0.3,0,0.5,0,0.7,0l1.6-0.1c0.2,0,0.3-0.1,0.5-0.1c0.2,0,0.4,0,0.5-0.1
			c0.4-0.1,0.7-0.1,1.1-0.2c0.3-0.1,0.7-0.2,1.1-0.3c2.4-0.8,4.4-2,6.1-3.4s2.9-3.4,3.9-5.6c0.2-0.5,0.4-1,0.5-1.6
			c0.2-0.6,0.3-1.1,0.5-1.7c0.1-0.2,0.1-0.4,0.1-0.7c0-0.2,0.1-0.5,0.2-0.7c0.1-0.4,0.1-0.7,0.1-1.1c0-0.4,0-0.7,0.1-1V1500.8z
			 M1590.2,1516.6c0.2-0.2,0.2-0.6,0.2-1.2c0-0.5,0-1,0-1.4v-7.9v-16.7v-4.2c0-0.4,0-0.8,0-1.2c0-0.3-0.1-0.6-0.3-0.9
			c-0.2-0.2-0.4-0.3-0.7-0.4c-0.3,0-0.7,0-1,0h-4.1c-0.1,0-0.1,0-0.2,0c-0.1,0-0.2,0-0.3,0c-0.3,0.1-0.5,0.3-0.6,0.5
			c-0.2,0.3-0.2,0.7-0.2,1.3c0,0.6,0,1.1,0,1.6v7v17.6v4.2c0,0.4,0,0.7,0,1c0,0.3,0.1,0.6,0.3,0.7c0.2,0.2,0.4,0.2,0.7,0.3
			c0.3,0,0.6,0.1,1,0.1h2.8c0.3,0,0.5,0,0.8,0c0.3,0,0.5,0,0.7,0C1589.8,1517,1590.1,1516.8,1590.2,1516.6z M1568.8,1507.2
			c0.1-0.2,0.1-0.3,0-0.5c0-0.8-0.1-1.4-0.2-1.9c0-0.1,0-0.1,0-0.2s0-0.2,0-0.3c-0.1-0.3-0.2-0.6-0.4-1c-0.1-0.3-0.2-0.6-0.4-0.9
			c-0.5-0.9-1.1-1.6-1.8-2.1c-0.6-0.6-1.4-1.1-2.2-1.6c-0.5-0.3-1.2-0.6-1.8-0.8c-0.7-0.2-1.4-0.4-2-0.6c-0.2-0.1-0.3-0.1-0.5-0.1
			s-0.3,0-0.5-0.1c-0.9-0.2-1.8-0.5-2.7-0.7c-0.9-0.2-1.8-0.5-2.7-0.8c-0.4-0.1-0.8-0.2-1.1-0.3s-0.7-0.2-1.1-0.4
			c-0.7-0.3-1.2-0.5-1.7-0.8c-0.5-0.3-0.8-0.7-1.1-1.4c-0.1-0.2-0.1-0.4-0.1-0.7c0-0.3,0-0.5,0-0.7c0.2-0.9,0.4-1.5,0.8-2
			c0.4-0.4,1-0.8,1.7-1.1c0.4-0.2,1-0.3,1.5-0.4c0.6-0.1,1.2-0.1,1.8,0c0.6,0,1.2,0.1,1.7,0.2c0.6,0.1,1,0.2,1.4,0.4
			c0.4,0.2,0.8,0.5,1.3,0.8c0.2,0.2,0.5,0.5,0.7,0.8c0.2,0.3,0.4,0.7,0.5,1c0.2,0.3,0.3,0.7,0.4,1.1c0.1,0.3,0.3,0.6,0.7,0.8
			c0.2,0.1,0.4,0.1,0.7,0.1c0.3,0,0.6,0,0.9,0h3c0.4,0,0.7,0,1-0.1c0.3-0.1,0.5-0.2,0.7-0.4c0.1-0.2,0.2-0.4,0.2-0.8
			c0-0.3,0-0.6-0.1-0.9c-0.2-0.6-0.3-1.2-0.5-1.8c-0.2-0.5-0.4-1.1-0.8-1.6c-2.3-3.8-6.6-5.6-12.8-5.5c-0.1,0.1-0.2,0.1-0.4,0.1
			c-0.2,0-0.4,0-0.4,0c-0.3,0.1-0.6,0.1-0.9,0.1c-0.3,0-0.6,0.1-0.9,0.1c-0.8,0.2-1.6,0.4-2.4,0.6c-0.7,0.2-1.4,0.5-2.1,0.9
			c-1,0.6-1.9,1.4-2.6,2.1c-0.8,0.8-1.4,1.7-1.8,2.9c-0.1,0.3-0.2,0.7-0.3,1c-0.1,0.3-0.1,0.7-0.2,1c0,0.2,0,0.4-0.1,0.6
			c-0.1,0.4-0.1,0.8,0,1.3c0,0.6,0.1,1,0.2,1.2c0.1,0.4,0.2,0.7,0.2,1c0.1,0.3,0.2,0.6,0.3,0.9c0.4,0.8,0.8,1.6,1.4,2.2
			c0.6,0.6,1.3,1.2,2,1.7c0.6,0.3,1.2,0.7,1.9,0.9c0.7,0.3,1.4,0.5,2.1,0.8c0.2,0.1,0.5,0.1,0.7,0.2c0.2,0.1,0.4,0.1,0.7,0.2
			c0.1,0.1,0.2,0.1,0.3,0.1c0.1,0,0.2,0,0.4,0.1c0.5,0.2,1,0.3,1.5,0.4c0.5,0.1,1,0.2,1.6,0.4c0.3,0.1,0.5,0.1,0.7,0.2
			c0.2,0,0.4,0.1,0.6,0.2c0.6,0.2,1.2,0.4,1.8,0.6c0.6,0.2,1.1,0.4,1.6,0.7c0.2,0.1,0.4,0.2,0.5,0.3c0.8,0.5,1.3,1.2,1.6,2
			c0.1,0.2,0.1,0.4,0.2,0.7c0,0.3,0,0.5,0,0.8c-0.3,1.1-0.7,1.9-1.3,2.4s-1.5,0.9-2.6,1.2c-0.2,0.1-0.3,0.1-0.5,0.1
			c-0.2,0-0.4,0-0.5,0.1c-0.2,0-0.4,0-0.5,0.1c-0.3,0.1-0.6,0.1-1.1,0.1s-0.8,0-1.1-0.1h-0.2c-0.2-0.1-0.5-0.1-0.7-0.1
			c-0.2,0-0.4,0-0.6-0.1c-1-0.3-1.9-0.7-2.6-1.1c-0.2-0.1-0.4-0.3-0.6-0.4c-0.2-0.2-0.4-0.3-0.5-0.5c-0.2-0.3-0.4-0.6-0.6-0.9
			c-0.2-0.3-0.3-0.7-0.5-1.1c-0.2-0.4-0.3-0.8-0.3-1.1c-0.1-0.4-0.3-0.6-0.6-0.8c-0.2-0.1-0.5-0.2-0.8-0.2c-0.3,0-0.6,0-0.8,0h-3
			c-0.4,0-0.7,0-1,0.1c-0.3,0-0.5,0.2-0.7,0.4c-0.2,0.2-0.2,0.5-0.2,0.8c0,0.4,0.1,0.7,0.1,0.9c0.1,0.2,0.1,0.4,0.1,0.6
			c0,0.2,0.1,0.4,0.1,0.6c0.3,1.1,0.7,2,1.2,2.7c0.8,1.3,1.8,2.3,3,3.1c1.2,0.8,2.6,1.4,4.1,2c0.3,0.1,0.7,0.2,1.2,0.3
			c0.4,0.1,0.8,0.1,1.2,0.2c0.2,0,0.3,0.1,0.4,0.1c0.1,0,0.3,0,0.4,0c0.2,0.1,0.4,0.1,0.7,0.1s0.5,0,0.7,0.1h0.5c0.2,0,0.4,0,0.8,0
			c0.4,0,0.7,0,0.8,0c0.1,0,0.2,0,0.3,0c0.1,0,0.2,0,0.3,0h0.4c0.2-0.1,0.4-0.1,0.6-0.1c0.2,0,0.4,0,0.7-0.1c0.5-0.1,1-0.2,1.4-0.2
			c0.5-0.1,0.9-0.2,1.4-0.3c0.6-0.2,1.3-0.4,1.9-0.7c0.6-0.2,1.2-0.5,1.7-0.9c0.2-0.1,0.4-0.3,0.6-0.4c0.2-0.1,0.3-0.2,0.5-0.4
			c0.2-0.2,0.4-0.3,0.6-0.5c0.2-0.2,0.4-0.4,0.5-0.6c0.1-0.2,0.2-0.3,0.3-0.4c0.1-0.1,0.3-0.2,0.4-0.4c0.3-0.5,0.6-0.9,0.8-1.4
			c0.2-0.5,0.4-1,0.6-1.6c0.1-0.3,0.2-0.6,0.2-1c0-0.3,0.1-0.7,0.2-1V1507.2z M1525.5,1516.6c0.2-0.2,0.2-0.6,0.2-1.2s0-1,0-1.4
			v-7.9v-16.7v-4.2c0-0.4,0-0.8,0-1.2c0-0.3-0.1-0.6-0.3-0.9c-0.2-0.2-0.4-0.3-0.7-0.4c-0.3,0-0.7,0-1,0h-4.1c-0.1,0-0.1,0-0.2,0
			c-0.1,0-0.2,0-0.3,0c-0.3,0.1-0.5,0.3-0.6,0.5c-0.2,0.3-0.2,0.7-0.2,1.3c0,0.6,0,1.1,0,1.6v7v17.6v4.2c0,0.4,0,0.7,0.1,1
			c0,0.3,0.1,0.6,0.3,0.7c0.2,0.2,0.5,0.2,0.8,0.3c0.3,0,0.6,0.1,1,0.1h2.8c0.2,0,0.5,0,0.8,0c0.2,0,0.5,0,0.7,0
			C1525.1,1517,1525.4,1516.8,1525.5,1516.6z M1505.3,1483.9c0.1-0.4,0-0.7-0.3-0.9c-0.2-0.1-0.4-0.2-0.8-0.2c-0.3,0-0.6,0-1,0h-3.2
			c-0.3,0-0.6,0-0.9,0c-0.3,0-0.6,0.1-0.8,0.2c-0.3,0.2-0.4,0.4-0.5,0.6c-0.1,0.3-0.2,0.5-0.3,0.8c-0.2,0.5-0.3,1-0.5,1.5
			c-0.2,0.5-0.3,1-0.5,1.5c-0.7,2.1-1.4,4.2-2.1,6.3c-0.7,2.1-1.3,4.2-2,6.3c-0.3,0.7-0.5,1.5-0.7,2.2c-0.2,0.7-0.4,1.4-0.7,2.1
			c-0.1,0.3-0.2,0.5-0.3,0.8c-0.1,0.3-0.3,0.5-0.7,0.5c-0.1-0.1-0.1-0.1-0.2-0.1c-0.1,0-0.1-0.1-0.1-0.1c-0.2-0.2-0.3-0.5-0.4-0.8
			c-0.1-0.3-0.2-0.6-0.3-0.9c-0.2-0.5-0.3-1.1-0.5-1.6c-0.2-0.6-0.3-1.1-0.5-1.6c-0.6-2-1.3-4-1.9-6c-0.6-2-1.3-4-1.9-6
			c-0.2-0.6-0.4-1.3-0.6-1.9c-0.2-0.6-0.4-1.2-0.6-1.8c-0.1-0.3-0.2-0.7-0.3-1.1c-0.1-0.3-0.3-0.6-0.6-0.8c-0.2-0.2-0.5-0.2-0.9-0.2
			s-0.7,0-1.1,0h-3.9c-0.1,0-0.1,0-0.2,0c-0.1,0-0.1,0-0.2,0c-0.3,0.1-0.5,0.2-0.6,0.4c-0.1,0.1-0.1,0.3-0.1,0.4
			c0,0.2,0,0.3,0.1,0.5c0.1,0.3,0.2,0.6,0.3,0.8c0.1,0.3,0.2,0.6,0.2,0.8c0.3,0.9,0.6,1.8,0.9,2.7c0.3,0.9,0.5,1.8,0.8,2.7
			c0.1,0.3,0.2,0.6,0.3,0.9c0.1,0.3,0.2,0.6,0.3,0.9c0.3,0.9,0.6,1.8,0.9,2.7c0.3,0.9,0.6,1.8,0.8,2.8c0.7,2.1,1.4,4.1,2,6.2
			c0.6,2.1,1.3,4.1,2,6.1c0.2,0.7,0.4,1.4,0.7,2.1c0.2,0.7,0.4,1.4,0.7,2c0.1,0.4,0.2,0.8,0.4,1.2s0.3,0.7,0.7,0.9
			c0.3,0.2,0.6,0.2,1,0.2c0.4,0,0.8,0,1.1,0h3.5c0.3,0,0.6,0,0.9,0c0.3,0,0.6,0,0.9-0.1c0.5-0.1,0.8-0.4,1-0.8
			c0.2-0.4,0.3-0.8,0.5-1.2c0.2-0.7,0.5-1.5,0.7-2.2c0.2-0.8,0.5-1.5,0.8-2.2c0.9-2.6,1.7-5.2,2.6-7.8c0.9-2.6,1.7-5.2,2.6-7.8
			c0.2-0.7,0.5-1.4,0.7-2.1c0.2-0.7,0.4-1.4,0.7-2.1c0.1-0.2,0.1-0.4,0.2-0.6c0.1-0.2,0.1-0.4,0.2-0.6c0.2-0.8,0.5-1.6,0.7-2.3
			c0.2-0.8,0.5-1.5,0.8-2.3C1505.1,1484.7,1505.2,1484.3,1505.3,1483.9z M1439.9,1516.6c0.1-0.2,0.1-0.3,0-0.5
			c-0.1-0.3-0.1-0.5-0.2-0.8c-0.1-0.3-0.1-0.6-0.2-0.9l-0.1-0.9c-0.1-0.3-0.1-0.7-0.1-1c0-0.3,0-0.7-0.1-1c0-0.2,0-0.3,0-0.4
			c0-0.1,0-0.2,0-0.4c0-0.2,0-0.3,0-0.5c0-0.1,0-0.3,0-0.4c0-0.2,0-0.4,0-0.6c0-0.2,0-0.4,0-0.6c-0.1-0.3-0.1-0.6-0.1-0.9
			c0-0.3-0.1-0.6-0.1-0.9c-0.2-0.7-0.4-1.4-0.6-2c-0.2-0.6-0.5-1.1-0.9-1.7c-0.2-0.3-0.5-0.7-0.8-0.9c-0.3-0.2-0.6-0.5-1-0.8
			c-0.1-0.1-0.2-0.2-0.3-0.3c-0.1-0.1-0.2-0.3-0.1-0.5c0.1-0.2,0.2-0.3,0.3-0.4c0.1-0.1,0.2-0.2,0.4-0.3c0.2-0.2,0.4-0.3,0.6-0.5
			c0.2-0.2,0.4-0.3,0.6-0.5c0.1-0.1,0.2-0.2,0.4-0.3c0.1-0.1,0.2-0.2,0.3-0.4c0.1-0.1,0.1-0.2,0.2-0.3c0.1-0.1,0.2-0.2,0.2-0.3
			c0.3-0.4,0.5-0.8,0.6-1.2c0.2-0.4,0.3-0.9,0.5-1.4c0.1-0.2,0.1-0.4,0.1-0.7c0-0.2,0-0.4,0.1-0.7c0.1-0.2,0.1-0.5,0.1-0.9
			c0-0.4,0-0.7,0-0.9v-0.4c-0.1-0.1-0.1-0.2-0.1-0.4c0-0.1,0-0.3,0-0.4c-0.2-0.6-0.3-1.1-0.4-1.6c-0.1-0.5-0.3-1-0.6-1.4
			c-0.1-0.2-0.2-0.3-0.3-0.5c-0.1-0.2-0.2-0.3-0.3-0.5c-0.4-0.7-1-1.3-1.7-1.8c-0.7-0.5-1.4-0.9-2.2-1.3c-0.2-0.1-0.4-0.2-0.7-0.2
			c-0.2-0.1-0.5-0.1-0.7-0.2c-0.2-0.1-0.3-0.1-0.5-0.1c-0.2,0-0.3,0-0.5-0.1c-0.4-0.1-0.9-0.2-1.3-0.2c-0.5,0-1,0-1.5,0h-16.4
			c-0.1,0-0.1,0-0.2,0c-0.1,0-0.2,0-0.2,0c-0.3,0.1-0.6,0.3-0.7,0.5c-0.2,0.2-0.2,0.5-0.2,0.9c0,0.4,0,0.8,0,1.1v29.3
			c0,0.4,0,0.8,0,1.3c0,0.4,0.1,0.7,0.4,0.9c0.3,0.2,0.7,0.3,1.3,0.3c0.6,0,1.1,0,1.6,0h2.2c0.3,0,0.5,0,0.7,0c0.2,0,0.4,0,0.6-0.1
			c0.3-0.1,0.5-0.3,0.6-0.6c0.1-0.2,0.1-0.3,0.1-0.6s0-0.4,0-0.7s0-0.5,0-0.8c0-0.3,0-0.5,0-0.8v-6.2c0-0.5,0-1.2-0.1-1.8
			c0-0.7,0.1-1.2,0.3-1.5c0.1-0.2,0.3-0.2,0.5-0.3c0.2,0,0.4-0.1,0.7-0.1h4c0.7,0,1.5,0,2.2,0c0.8,0,1.4,0.1,2,0.3
			c0.2,0.1,0.4,0.1,0.5,0.1s0.3,0.1,0.5,0.2c0.6,0.3,1.1,0.7,1.5,1.3c0.3,0.6,0.7,1.2,0.9,2c0.1,0.3,0.2,0.7,0.2,1.1
			s0.1,0.7,0.2,1.1c0,0.2,0,0.3,0,0.4c0.1,0.3,0.1,0.7,0.1,1.2c0,0.4,0,0.8,0.1,1.2c0,0.1,0,0.2,0,0.3c0,0.1,0,0.2,0,0.4
			c0.1,0.5,0.2,1.1,0.2,1.7c0,0.6,0.2,1.1,0.4,1.5c0.2,0.3,0.5,0.5,0.9,0.6c0.4,0,0.8,0.1,1.3,0.1h2.6c0.3,0,0.7,0,1,0
			c0.3,0,0.6-0.1,0.8-0.2C1439.7,1516.8,1439.8,1516.7,1439.9,1516.6z M1394.8,1484.4c0-0.5-0.1-0.8-0.2-1.1
			c-0.1-0.2-0.4-0.4-0.9-0.5c-0.2-0.1-0.4-0.1-0.7-0.1s-0.5,0-0.8,0h-3.1c-0.3,0-0.7,0-1,0.1c-0.3,0.1-0.5,0.2-0.7,0.4
			c-0.2,0.3-0.3,0.7-0.3,1.2c0,0.5,0,1,0,1.5v6.4v9.6c0,1.2,0,2.4-0.1,3.5c-0.1,1.1-0.3,2.1-0.6,3c-0.3,0.5-0.6,1-1,1.5
			c-0.4,0.4-0.9,0.8-1.5,1c-0.3,0.1-0.6,0.2-1.1,0.3c-0.2,0.1-0.5,0.1-0.7,0.2c-0.3,0-0.5,0.1-0.8,0.1h-0.7c-0.1,0-0.3,0.1-0.6,0.1
			c-0.3,0-0.5,0-0.6,0c-0.2,0-0.3,0-0.4,0c-0.1,0-0.3,0-0.4-0.1c-0.3-0.1-0.5-0.1-0.8-0.1c-0.3,0-0.5-0.1-0.8-0.2
			c-0.9-0.3-1.7-0.8-2.2-1.3c-0.6-0.5-1-1.2-1.4-2.1c-0.1-0.4-0.2-0.7-0.3-1.1c-0.1-0.4-0.1-0.7-0.2-1.1c0-0.1-0.1-0.3-0.1-0.5
			c-0.1-0.3-0.1-0.5-0.1-0.9c0-0.3,0-0.6,0-0.9v-0.8c0-0.1,0-0.3,0-0.4c0-0.1,0-0.3,0-0.4v-1.7v-9.9v-4.9c0-0.4,0-0.8,0-1.2
			c0-0.4-0.1-0.7-0.3-1c-0.2-0.2-0.4-0.3-0.7-0.3c-0.3,0-0.7,0-1,0h-4.1c-0.1,0-0.1,0-0.2,0c-0.1,0-0.1,0-0.2,0
			c-0.3,0.1-0.6,0.3-0.8,0.5c-0.1,0.2-0.1,0.4-0.1,0.8c0,0.3,0,0.6,0,0.9v3.4v13.4c0,1.1,0,2.2,0,3.4s0.1,2.1,0.4,3
			c0.1,0.2,0.1,0.3,0.1,0.4s0,0.2,0.1,0.4c0.2,0.7,0.5,1.4,0.8,2.1c0.3,0.6,0.6,1.2,1,1.8c1.2,1.8,2.9,3,5,3.8
			c2.2,0.8,4.8,1.2,7.8,1.1c0.4,0,0.9,0,1.4,0c0.5,0,0.9-0.1,1.3-0.2c0.2-0.1,0.4-0.1,0.6-0.1c0.2,0,0.4,0,0.5-0.1
			c0.3-0.1,0.6-0.1,0.9-0.2c0.3-0.1,0.6-0.2,0.9-0.2c1.3-0.4,2.5-1,3.5-1.7c1.1-0.8,2-1.7,2.7-2.8c0.7-1.1,1.3-2.4,1.7-3.9
			c0.3-0.9,0.4-2,0.4-3.1c0-1.2,0.1-2.3,0.1-3.6v-9.7v-6.4C1394.8,1485.3,1394.8,1484.9,1394.8,1484.4z M1350.9,1500.8
			c0.1-0.2,0.1-0.5,0.1-1c0-0.5-0.1-0.8-0.1-1v-0.4c0-0.2,0-0.3,0-0.6c0-0.2,0-0.4-0.1-0.6c-0.1-0.2-0.1-0.4-0.1-0.6
			c0-0.2,0-0.4-0.1-0.7c-0.1-0.3-0.2-0.7-0.2-1c-0.1-0.3-0.2-0.7-0.2-1c-0.2-0.5-0.3-0.9-0.5-1.3c-0.1-0.4-0.3-0.8-0.5-1.3
			c-0.3-0.6-0.6-1.2-0.9-1.7c-0.3-0.5-0.7-1.1-1.1-1.6c-0.1-0.2-0.3-0.3-0.4-0.5c-0.2-0.2-0.3-0.3-0.5-0.5c-0.3-0.4-0.7-0.8-1.1-1.1
			c-0.4-0.4-0.9-0.7-1.3-1c-1.3-0.9-2.8-1.7-4.5-2.2c-1.7-0.5-3.6-0.8-5.9-0.7c-0.1,0-0.2,0-0.3,0c-0.1,0-0.2,0-0.3,0l-1.4,0.1
			c-0.2,0-0.3,0.1-0.5,0.1c-0.2,0-0.3,0-0.5,0.1c-0.5,0.1-0.9,0.2-1.4,0.3c-0.5,0.1-0.9,0.2-1.3,0.4c-1.8,0.7-3.3,1.6-4.6,2.7
			c-1.3,1-2.4,2.3-3.3,3.8c-0.3,0.5-0.6,1-0.8,1.5c-0.2,0.6-0.5,1.1-0.7,1.6c-0.2,0.5-0.3,1-0.4,1.6c-0.1,0.5-0.2,1.1-0.4,1.6
			c-0.1,0.2-0.1,0.3-0.1,0.5c0,0.2,0,0.3-0.1,0.5c-0.1,0.2-0.1,0.4-0.1,0.6c0,0.2,0,0.4-0.1,0.7v0.3c0,0.2,0,0.3,0,0.5
			c0,0.1,0,0.3,0,0.5c-0.1,0.2-0.1,0.4-0.1,0.7c0,0.3,0,0.6,0.1,0.8c0,0.2,0,0.4,0,0.6s0,0.4,0,0.6c0.1,0.1,0.1,0.3,0.1,0.4
			c0,0.1,0,0.3,0,0.5c0.1,0.2,0.1,0.5,0.1,0.7c0,0.2,0.1,0.5,0.2,0.7c0,0.1,0,0.2,0,0.4s0,0.2,0.1,0.4c0.2,0.5,0.3,1,0.4,1.5
			c0.1,0.5,0.3,1,0.5,1.4c0.8,1.9,1.9,3.6,3.2,5c1.3,1.4,3,2.5,4.9,3.3c0.4,0.2,0.7,0.3,1.1,0.4c0.4,0.1,0.7,0.3,1.1,0.4
			c0.3,0.1,0.5,0.1,0.8,0.2c0.3,0,0.5,0.1,0.8,0.2c0.3,0.1,0.5,0.1,0.7,0.1c0.2,0,0.5,0.1,0.7,0.1h0.5c0.2,0,0.3,0,0.5,0
			c0.2,0,0.3,0,0.5,0c0.1,0,0.3,0.1,0.6,0.1c0.3,0,0.5,0,0.7,0l1.6-0.1c0.2,0,0.3-0.1,0.5-0.1c0.2,0,0.3,0,0.5-0.1
			c0.4-0.1,0.7-0.1,1.1-0.2c0.3-0.1,0.7-0.2,1.1-0.3c2.4-0.8,4.4-2,6.1-3.4c1.6-1.5,2.9-3.4,3.9-5.6c0.2-0.5,0.4-1,0.5-1.6
			c0.1-0.6,0.3-1.1,0.5-1.7c0.1-0.2,0.1-0.4,0.1-0.7c0-0.2,0.1-0.5,0.1-0.7c0.1-0.4,0.1-0.7,0.1-1.1c0-0.4,0-0.7,0.1-1V1500.8z"/>
		<path class="st0" d="M1631.5,1499.4c0.1,0.2,0.1,0.4,0.1,0.7c0,0.3,0,0.5-0.1,0.7v0.4c0,0.2,0,0.3,0,0.5c0,0.1,0,0.3-0.1,0.4
			l-0.1,1.2c-0.1,0.4-0.2,0.8-0.3,1.2c-0.1,0.4-0.2,0.8-0.4,1.2c-0.6,1.4-1.2,2.5-2,3.4c-0.8,0.9-1.9,1.6-3.2,2.1
			c-0.3,0.1-0.6,0.2-0.9,0.3c-0.3,0-0.6,0.1-1,0.2c-0.2,0.1-0.3,0.1-0.4,0.1c-0.1,0-0.3,0-0.4,0h-0.4c-0.2,0-0.4,0-0.6,0
			c-0.2,0-0.4,0-0.6-0.1c-0.2,0-0.3,0-0.5,0c-0.1,0-0.3,0-0.4-0.1c-0.5-0.1-0.9-0.2-1.3-0.4s-0.8-0.3-1.1-0.5
			c-0.2-0.1-0.4-0.2-0.6-0.3c-0.2-0.1-0.3-0.2-0.5-0.4c-0.8-0.6-1.4-1.3-1.9-2.1c-0.5-0.9-1-1.8-1.3-2.9c-0.1-0.3-0.2-0.7-0.3-1
			c0-0.3-0.1-0.7-0.2-1.1c0-0.1,0-0.2,0-0.4c0-0.1,0-0.2,0-0.4c0-0.1,0-0.3,0-0.4c0-0.1,0-0.3-0.1-0.4v-0.5
			c-0.1-0.2-0.1-0.4-0.1-0.9c0-0.4,0.1-0.7,0.1-0.9c0-0.2,0-0.3,0-0.5c0-0.2,0-0.4,0-0.5c0-0.1,0.1-0.2,0.1-0.4c0-0.1,0-0.2,0-0.4
			c0.1-0.4,0.2-0.7,0.2-1s0.1-0.7,0.2-1c0.5-1.4,1.1-2.7,1.9-3.7c0.8-1,1.8-1.8,3.2-2.4c0.3-0.1,0.6-0.2,0.9-0.3
			c0.3-0.1,0.7-0.2,1-0.2c0.2-0.1,0.3-0.1,0.4-0.1c0.1,0,0.3,0,0.4,0c0.1,0,0.1,0,0.2,0c0.1,0,0.2,0,0.2,0c2.4,0,4.2,0.5,5.6,1.5
			c1.3,1,2.3,2.3,3.1,4c0.2,0.4,0.3,0.7,0.4,1.1c0.1,0.4,0.2,0.7,0.3,1.1c0.1,0.2,0.1,0.4,0.1,0.5c0.1,0.2,0.1,0.5,0.1,0.7
			c0,0.2,0,0.5,0.1,0.7c0.1,0.1,0.1,0.2,0.1,0.4c0,0.1,0,0.2,0,0.4V1499.4z"/>
		<path class="st0" d="M1432,1493c0.1,0.5,0,0.9,0,1.3c-0.1,0.5-0.2,0.9-0.3,1.2c-0.1,0.3-0.2,0.7-0.4,1c-0.3,0.4-0.6,0.8-1.1,1
			c-0.4,0.3-0.9,0.5-1.4,0.6c-0.2,0.1-0.5,0.1-0.7,0.1s-0.5,0-0.8,0.1h-0.6c-0.2,0.1-0.4,0.1-0.7,0.1c-0.2,0-0.5,0-0.7,0h-2.8
			c-0.3,0-0.6,0-1,0c-0.4,0-0.8,0-1.1,0c-0.3,0-0.7-0.1-1-0.2c-0.3-0.1-0.5-0.2-0.6-0.4c-0.2-0.2-0.2-0.5-0.2-0.9c0-0.4,0-0.8,0-1.2
			v-4.5c0-0.4,0-0.8,0-1.2c0-0.4,0.1-0.7,0.2-1c0.1-0.2,0.4-0.4,0.8-0.5c0.1,0,0.1,0,0.2,0c0.1,0,0.1,0,0.2-0.1h5.6
			c0.8,0,1.5,0,2.2,0.1c0.7,0,1.3,0.2,1.9,0.4c1,0.5,1.7,1.2,2.1,2.2c0.1,0.1,0.1,0.2,0.1,0.3c0,0.1,0,0.2,0.1,0.3
			C1431.9,1492.1,1431.9,1492.5,1432,1493z"/>
		<path class="st0" d="M1343.4,1499.4c0.1,0.2,0.1,0.4,0.1,0.7c0,0.3,0,0.5-0.1,0.7v0.4c0,0.2,0,0.3,0,0.5c0,0.1,0,0.3-0.1,0.4
			l-0.1,1.2c-0.1,0.4-0.2,0.8-0.3,1.2c-0.1,0.4-0.2,0.8-0.4,1.2c-0.5,1.4-1.2,2.5-2,3.4c-0.8,0.9-1.9,1.6-3.2,2.1
			c-0.3,0.1-0.6,0.2-0.9,0.3c-0.3,0-0.6,0.1-1,0.2c-0.2,0.1-0.3,0.1-0.4,0.1c-0.1,0-0.3,0-0.4,0h-0.4c-0.2,0-0.4,0-0.6,0
			c-0.2,0-0.4,0-0.6-0.1c-0.2,0-0.3,0-0.5,0c-0.1,0-0.3,0-0.5-0.1c-0.5-0.1-0.9-0.2-1.3-0.4s-0.8-0.3-1.1-0.5
			c-0.2-0.1-0.4-0.2-0.6-0.3c-0.2-0.1-0.3-0.2-0.5-0.4c-0.8-0.6-1.4-1.3-1.9-2.1c-0.5-0.9-0.9-1.8-1.3-2.9c-0.1-0.3-0.2-0.7-0.3-1
			c0-0.3-0.1-0.7-0.2-1.1c0-0.1,0-0.2,0-0.4c0-0.1,0-0.2,0-0.4c0-0.1-0.1-0.3-0.1-0.4c0-0.1,0-0.3-0.1-0.4v-0.5
			c-0.1-0.2-0.1-0.4-0.1-0.9c0-0.4,0-0.7,0.1-0.9c0-0.2,0-0.3,0-0.5c0-0.2,0-0.4,0.1-0.5c0-0.1,0-0.2,0-0.4c0-0.1,0-0.2,0.1-0.4
			c0.1-0.4,0.2-0.7,0.2-1s0.1-0.7,0.2-1c0.5-1.4,1.1-2.7,1.9-3.7c0.8-1,1.8-1.8,3.2-2.4c0.3-0.1,0.6-0.2,0.9-0.3
			c0.3-0.1,0.7-0.2,1-0.2c0.2-0.1,0.3-0.1,0.4-0.1s0.3,0,0.4,0c0.1,0,0.1,0,0.2,0c0.1,0,0.2,0,0.2,0c2.4,0,4.2,0.5,5.6,1.5
			c1.3,1,2.3,2.3,3.1,4c0.2,0.4,0.3,0.7,0.4,1.1c0.1,0.4,0.2,0.7,0.3,1.1c0.1,0.2,0.1,0.4,0.1,0.5c0.1,0.2,0.1,0.5,0.1,0.7
			c0,0.2,0.1,0.5,0.1,0.7c0.1,0.1,0.1,0.2,0.1,0.4c0,0.1,0,0.2,0,0.4V1499.4z"/>
	</g>
	<g>
	</g>
</g>
</svg>
