<?xml version="1.0" encoding="utf-8"?>
<!-- Generator: Adobe Illustrator 20.0.0, SVG Export Plug-In . SVG Version: 6.00 Build 0)  -->
<!DOCTYPE svg PUBLIC "-//W3C//DTD SVG 1.1//EN" "http://www.w3.org/Graphics/SVG/1.1/DTD/svg11.dtd">
<svg version="1.1" id="Layer_1" xmlns="http://www.w3.org/2000/svg" xmlns:xlink="http://www.w3.org/1999/xlink" x="0px" y="0px"
	 viewBox="0 0 3000 4000" style="enable-background:new 0 0 3000 4000;" xml:space="preserve">
<style type="text/css">
	.st0{opacity:0.9;enable-background:new    ;}
	.st1{fill:#FFFFFF;}
</style>
<title>header-aboutfilm-desktop</title>
<g id="XMLID_1_" class="st0">
	<g>
		<path class="st1" d="M1583.8,1986.2c0.1,0.2,0.1,0.6,0.2,1.2c0,0.5,0,0.9,0,1.3c-0.1,0.4-0.2,0.8-0.3,1.2c-0.1,0.3-0.2,0.7-0.4,1
			c-0.3,0.4-0.6,0.8-1.1,1c-0.4,0.3-0.9,0.5-1.4,0.6c-0.2,0.1-0.5,0.1-0.7,0.1s-0.5,0-0.7,0.1h-0.6c-0.2,0.1-0.4,0.1-0.7,0.1
			c-0.2,0-0.5,0-0.7,0h-2.8c-0.3,0-0.6,0-1,0c-0.4,0-0.8,0-1.1,0c-0.4,0-0.7-0.1-1-0.2c-0.3-0.1-0.5-0.2-0.6-0.4
			c-0.2-0.2-0.2-0.5-0.2-0.9c0-0.4,0-0.8,0-1.2v-4.5c0-0.4,0-0.8,0-1.2c0-0.4,0.1-0.7,0.2-1c0.1-0.2,0.4-0.4,0.8-0.5
			c0.1,0,0.1,0,0.2,0c0.1,0,0.1,0,0.2-0.1h5.6c0.8,0,1.5,0,2.2,0.1c0.7,0,1.3,0.2,1.9,0.4c1,0.5,1.7,1.2,2.1,2.2
			c0.1,0.1,0.1,0.2,0.1,0.3C1583.7,1986,1583.7,1986.1,1583.8,1986.2z"/>
		<path class="st1" d="M1433.7,1993.8c0.1,0.2,0.1,0.4,0.1,0.7c0,0.3,0,0.5-0.1,0.7v0.4c0,0.2,0,0.3,0,0.5c0,0.1,0,0.3,0,0.4
			l-0.2,1.2c-0.1,0.4-0.2,0.8-0.3,1.2c-0.1,0.4-0.2,0.8-0.4,1.2c-0.5,1.4-1.2,2.5-2,3.4c-0.8,0.9-1.9,1.6-3.2,2.1
			c-0.3,0.1-0.6,0.2-0.9,0.3c-0.3,0.1-0.6,0.1-1,0.2c-0.2,0.1-0.3,0.1-0.4,0.1c-0.1,0-0.3,0-0.4,0h-0.4c-0.2,0-0.4,0-0.6,0
			c-0.2,0-0.4,0-0.6-0.1c-0.2,0-0.3,0-0.5,0c-0.1,0-0.3,0-0.5-0.1c-0.4-0.1-0.9-0.2-1.3-0.4c-0.4-0.1-0.8-0.3-1.1-0.5
			c-0.2-0.1-0.4-0.2-0.6-0.3c-0.2-0.1-0.3-0.2-0.5-0.4c-0.8-0.5-1.4-1.3-1.9-2.1c-0.5-0.9-0.9-1.8-1.3-2.9c-0.1-0.3-0.2-0.7-0.3-1
			c-0.1-0.3-0.1-0.7-0.2-1.1c0-0.1,0-0.2,0-0.4c0-0.1,0-0.2,0-0.4c0-0.1-0.1-0.3-0.1-0.4c0-0.2,0-0.3,0-0.4v-0.5
			c-0.1-0.2-0.1-0.5-0.1-0.9c0-0.4,0.1-0.7,0.1-0.9c0-0.2,0-0.3,0-0.5c0-0.2,0-0.4,0.1-0.5c0-0.1,0-0.2,0-0.4s0-0.2,0-0.4
			c0.1-0.3,0.2-0.7,0.2-1c0.1-0.3,0.1-0.7,0.2-1c0.5-1.4,1.1-2.7,1.9-3.7c0.8-1,1.8-1.8,3.2-2.4c0.3-0.1,0.6-0.2,0.9-0.3
			c0.3-0.1,0.7-0.2,1-0.2c0.2-0.1,0.3-0.1,0.4-0.1c0.1,0,0.3,0,0.4,0c0.1,0,0.1,0,0.2,0s0.2,0,0.2,0c2.4,0,4.2,0.5,5.5,1.5
			s2.3,2.3,3.1,4c0.2,0.3,0.3,0.7,0.4,1c0.1,0.4,0.2,0.7,0.3,1.1c0.1,0.2,0.1,0.4,0.1,0.5c0.1,0.2,0.1,0.4,0.1,0.7
			c0,0.2,0.1,0.5,0.1,0.8c0.1,0.1,0.1,0.2,0.1,0.4s0,0.2,0,0.4V1993.8z"/>
		<path class="st1" d="M1661.6,2005.2h-0.5c-0.2-0.1-0.3-0.1-0.4-0.1c-0.1,0-0.3-0.1-0.4-0.2c-0.2-0.2-0.4-0.4-0.4-0.7
			c-0.1-0.3-0.1-0.7-0.1-1v-2.7v-1.8c0-0.2,0-0.3,0-0.5c0-0.2,0-0.3,0.1-0.5c0.1-0.3,0.2-0.5,0.4-0.6c0.2-0.2,0.5-0.2,0.8-0.3
			c0.3,0,0.6-0.1,1,0c0.3,0,0.7,0,1.1,0h9.4c0.2,0,0.5,0,0.8,0c0.3,0,0.7,0,1,0c0.3,0,0.6,0,0.9,0c0.3,0,0.5-0.1,0.7-0.2
			c0.2-0.2,0.3-0.4,0.4-0.6c0.1-0.2,0.1-0.3,0.1-0.6c0-0.2,0-0.5,0-0.7c0-0.3,0-0.6,0-0.9c0-0.3,0-0.7,0-1c0-0.3,0-0.7-0.1-0.9
			c-0.1-0.3-0.2-0.5-0.3-0.6c-0.1-0.1-0.3-0.2-0.6-0.2c-0.3,0-0.6,0-0.9-0.1c-0.3,0-0.7,0-1,0c-0.3,0-0.6,0-0.8,0h-8.2h-2.6
			c-0.3,0-0.6,0-0.8,0c-0.3,0-0.5-0.1-0.7-0.2c-0.2-0.1-0.3-0.2-0.3-0.4c-0.1-0.2-0.1-0.4-0.2-0.7v-1.4v-2.7c0-0.4,0-0.7,0.1-1
			c0-0.3,0.2-0.5,0.4-0.7c0.1-0.1,0.3-0.2,0.6-0.2c0.3-0.1,0.6-0.1,0.9-0.1c0.3,0,0.7,0,1,0c0.3,0,0.6,0,0.9,0h8.7h3.3
			c0.3,0,0.6,0,0.9,0c0.3,0,0.5-0.1,0.7-0.2c0.2-0.1,0.4-0.4,0.5-0.8c0-0.3,0-0.6,0-0.7c0-0.2,0-0.5,0-0.7c0-0.2,0-0.5,0-0.8
			c0-0.2,0-0.5,0-0.7c0-0.2,0-0.5,0-0.7v-0.5c-0.1-0.1-0.1-0.3-0.1-0.4c0-0.1-0.1-0.2-0.1-0.3c-0.2-0.2-0.4-0.4-0.8-0.4
			c-0.4,0-0.7-0.1-1.1-0.1h-4.2h-18c-0.1,0-0.1,0-0.2,0c-0.1,0-0.1,0-0.2,0c-0.4,0.1-0.6,0.3-0.7,0.5c-0.1,0.2-0.2,0.4-0.2,0.7
			c0,0.3,0,0.6,0,0.9v3v10.5v13.1v3.5c0,0.3,0,0.6,0,0.9c0,0.3,0.1,0.6,0.2,0.7c0.2,0.3,0.4,0.4,0.8,0.5c0.3,0.1,0.7,0.1,1.2,0.1
			h3.8h14.2h3.6c0.3,0,0.7,0,1,0c0.3,0,0.6-0.1,0.7-0.2c0.3-0.2,0.4-0.4,0.4-0.7c0-0.3,0-0.7,0-1.1v-2.2c0-0.3,0-0.5,0-0.7
			c0-0.2-0.1-0.4-0.1-0.6c-0.1-0.2-0.3-0.4-0.5-0.5c-0.2-0.1-0.4-0.1-0.7-0.1s-0.5,0-0.7,0h-2.6h-9h-2c-0.2,0-0.3,0-0.5,0
			C1661.9,2005.2,1661.8,2005.2,1661.6,2005.2z M1621.1,2005.9c-0.2,0-0.3,0-0.4,0c-0.1,0-0.3,0-0.4-0.1c-0.2-0.1-0.5-0.1-0.8-0.1
			c-0.2,0-0.5-0.1-0.8-0.1c-0.9-0.3-1.7-0.8-2.2-1.3c-0.6-0.6-1-1.2-1.4-2.1c-0.1-0.4-0.2-0.7-0.3-1.1c-0.1-0.3-0.1-0.7-0.2-1.1
			c0-0.1,0-0.3,0-0.5c-0.1-0.2-0.1-0.5-0.1-0.9c0-0.3,0-0.6,0-0.9v-0.8c0-0.1,0-0.3,0-0.4c0-0.1,0-0.3,0-0.4v-1.7v-9.9v-4.8
			c0-0.4,0-0.8,0-1.2c0-0.4-0.1-0.7-0.3-1c-0.2-0.2-0.4-0.3-0.7-0.3c-0.3,0-0.7,0-1,0h-4.1c-0.1,0-0.1,0-0.2,0c-0.1,0-0.1,0-0.2,0
			c-0.3,0.1-0.6,0.3-0.8,0.5c-0.1,0.2-0.1,0.4-0.1,0.8c0,0.3,0,0.6,0,0.9v3.4v13.4c0,1.1,0,2.2,0,3.4s0.1,2.1,0.4,3
			c0.1,0.2,0.1,0.3,0.1,0.4c0,0.1,0,0.2,0.1,0.4c0.2,0.7,0.5,1.4,0.8,2c0.3,0.6,0.6,1.2,1,1.8c1.2,1.8,2.9,3,5,3.8
			c2.1,0.8,4.7,1.2,7.8,1.1c0.4,0,0.9,0,1.4-0.1c0.5,0,0.9-0.1,1.3-0.1c0.2-0.1,0.4-0.1,0.6-0.1c0.2,0,0.4,0,0.6-0.1
			c0.3-0.1,0.6-0.1,0.9-0.2c0.3-0.1,0.6-0.1,0.9-0.2c1.4-0.4,2.5-1,3.5-1.7c1.1-0.8,2-1.7,2.7-2.8c0.7-1.1,1.2-2.4,1.7-3.9
			c0.3-0.9,0.4-2,0.4-3.1c0-1.2,0-2.3,0-3.6v-9.7v-6.4c0-0.4,0-0.8,0-1.3c0-0.5-0.1-0.8-0.2-1.1c-0.1-0.2-0.4-0.4-0.9-0.5
			c-0.2-0.1-0.5-0.1-0.7-0.1c-0.2,0-0.5,0-0.7,0h-3.1c-0.4,0-0.7,0-1,0.1c-0.3,0.1-0.5,0.2-0.7,0.4c-0.2,0.2-0.3,0.7-0.3,1.2
			c0,0.5,0,1,0,1.5v6.4v9.6c0,1.2,0,2.4-0.1,3.5c-0.1,1.1-0.3,2.1-0.6,2.9c-0.2,0.5-0.6,1-1,1.5c-0.4,0.4-0.9,0.8-1.5,1
			c-0.3,0.1-0.6,0.2-1.1,0.3c-0.2,0.1-0.5,0.1-0.7,0.2c-0.2,0-0.5,0.1-0.8,0.1h-0.7c-0.1,0-0.3,0.1-0.6,0.1
			C1621.4,2006,1621.2,2006,1621.1,2005.9z M1471,2005.9c-0.1,0-0.3,0.1-0.6,0.1c-0.3,0-0.5,0-0.6,0c-0.2,0-0.3,0-0.4,0
			c-0.1,0-0.3,0-0.4-0.1c-0.3-0.1-0.5-0.1-0.8-0.1c-0.3,0-0.5-0.1-0.8-0.1c-0.9-0.3-1.7-0.8-2.2-1.3c-0.6-0.6-1-1.2-1.4-2.1
			c-0.1-0.4-0.2-0.7-0.3-1.1c-0.1-0.3-0.1-0.7-0.2-1.1c0-0.1,0-0.3,0-0.5c-0.1-0.2-0.1-0.5-0.1-0.9c0-0.3,0-0.6,0-0.9v-0.8
			c0-0.1,0-0.3,0-0.4c0-0.1,0-0.3,0-0.4v-1.7v-9.9v-4.8c0-0.4,0-0.8,0-1.2c0-0.4-0.1-0.7-0.3-1c-0.2-0.2-0.4-0.3-0.7-0.3
			c-0.3,0-0.7,0-1,0h-4.1c-0.1,0-0.1,0-0.2,0c-0.1,0-0.1,0-0.2,0c-0.3,0.1-0.6,0.3-0.8,0.5c-0.1,0.2-0.1,0.4-0.1,0.8
			c0,0.3,0,0.6,0,0.9v3.4v13.4c0,1.1,0,2.2,0,3.4s0.1,2.1,0.4,3c0.1,0.2,0.1,0.3,0.1,0.4c0,0.1,0,0.2,0.1,0.4c0.2,0.7,0.5,1.4,0.7,2
			c0.3,0.6,0.6,1.2,1,1.8c1.2,1.8,2.9,3,5,3.8c2.1,0.8,4.7,1.2,7.8,1.1c0.5,0,0.9,0,1.4-0.1c0.5,0,0.9-0.1,1.3-0.1
			c0.2-0.1,0.4-0.1,0.5-0.1c0.2,0,0.4,0,0.6-0.1c0.3-0.1,0.6-0.1,0.9-0.2c0.3-0.1,0.6-0.1,0.9-0.2c1.3-0.4,2.5-1,3.5-1.7
			c1.1-0.8,2-1.7,2.7-2.8c0.7-1.1,1.3-2.4,1.7-3.9c0.2-0.9,0.4-2,0.4-3.1c0-1.2,0.1-2.3,0.1-3.6v-9.7v-6.4c0-0.4,0-0.8,0-1.3
			c0-0.5,0-0.8-0.2-1.1c-0.1-0.2-0.4-0.4-0.9-0.5c-0.2-0.1-0.4-0.1-0.7-0.1c-0.2,0-0.5,0-0.8,0h-3.1c-0.3,0-0.7,0-1,0.1
			c-0.3,0.1-0.5,0.2-0.7,0.4c-0.2,0.2-0.3,0.7-0.3,1.2c0,0.5,0,1,0,1.5v6.4v9.6c0,1.2,0,2.4-0.1,3.5c-0.1,1.1-0.3,2.1-0.6,2.9
			c-0.3,0.5-0.6,1-1,1.5c-0.4,0.4-0.9,0.8-1.5,1c-0.2,0.1-0.6,0.2-1,0.3c-0.2,0.1-0.5,0.1-0.7,0.2c-0.3,0-0.5,0.1-0.8,0.1H1471z
			 M1383.2,2011.3c0.2,0,0.3,0,0.4,0c0.2,0,0.3,0,0.4,0c0.2,0,0.3,0,0.5,0c0.3-0.1,0.7-0.1,1.1-0.2c0.4,0,0.8-0.1,1.1-0.3
			c0.7-0.2,1.4-0.5,2-0.7c0.6-0.3,1.2-0.6,1.8-1c1.4-1,2.4-2.3,3.1-3.9c0.1-0.3,0.2-0.5,0.2-0.8c0.1-0.3,0.1-0.6,0.2-0.9
			c0.1-0.3,0.1-0.8,0.2-1.3c0.1-0.6,0-1,0-1.4v-0.5c-0.1-0.3-0.1-0.5-0.1-0.8c0-0.3-0.1-0.5-0.2-0.8c-0.3-1-0.7-1.8-1.2-2.6
			c-0.5-0.8-1.2-1.4-2.1-2c-0.3-0.2-0.6-0.3-0.9-0.5c-0.3-0.2-0.6-0.4-0.6-0.7c-0.1-0.2-0.1-0.3,0-0.4c0.1-0.1,0.1-0.2,0.2-0.3
			c0.2-0.2,0.4-0.5,0.7-0.6c0.2-0.2,0.5-0.3,0.7-0.6c0.7-0.7,1.2-1.7,1.6-2.8c0.1-0.2,0.1-0.3,0.1-0.5c0-0.2,0-0.4,0.1-0.6
			c0-0.1,0-0.2,0-0.3c0-0.1,0-0.2,0-0.3v-0.4c0-0.1,0.1-0.2,0.1-0.3c0-0.2,0-0.3,0-0.4c0-0.1,0-0.3,0-0.4c0-0.1,0-0.2,0-0.4
			c-0.1-0.3-0.1-0.5-0.1-0.7c0-0.2-0.1-0.5-0.1-0.7c-0.3-0.9-0.6-1.6-1-2.3c-0.4-0.7-0.9-1.2-1.6-1.7c-0.4-0.3-0.9-0.6-1.5-0.8
			c-0.6-0.2-1.1-0.4-1.7-0.7c-0.3-0.1-0.5-0.1-0.7-0.1c-0.2,0-0.5-0.1-0.8-0.1c-0.2-0.1-0.4-0.1-0.7-0.1c-0.2,0-0.4,0-0.6-0.1h-0.3
			c-0.2,0-0.3,0-0.5,0s-0.3,0-0.5-0.1c-0.2,0-0.4,0-0.6,0c-0.2,0-0.5,0-0.7,0h-14.3c-0.1,0-0.1,0-0.2,0c-0.1,0-0.1,0-0.2,0
			c-0.4,0.1-0.6,0.3-0.7,0.5c-0.2,0.3-0.2,0.6-0.2,1c0,0.4,0,0.8,0,1.2v28.2c0,0.4,0,0.8,0,1.3c0,0.5,0,0.9,0.1,1.2
			c0.2,0.4,0.4,0.6,0.8,0.6c0.4,0.1,0.8,0.1,1.4,0.1h14c0.2,0,0.3,0,0.5,0c0.1,0,0.3,0,0.4,0
			C1382.9,2011.3,1383.1,2011.3,1383.2,2011.3z M1407.6,1995.8c0,0.2,0,0.4,0,0.6c0.1,0.1,0.1,0.3,0.1,0.4c0,0.2,0,0.3,0,0.5
			c0.1,0.2,0.1,0.5,0.1,0.7c0,0.2,0.1,0.5,0.1,0.7c0,0.1,0.1,0.2,0.1,0.4s0,0.2,0.1,0.4c0.2,0.5,0.3,1,0.4,1.5
			c0.1,0.5,0.3,1,0.5,1.4c0.8,1.9,1.9,3.6,3.2,5c1.3,1.4,2.9,2.5,4.9,3.3c0.3,0.2,0.7,0.3,1.1,0.4s0.7,0.3,1.1,0.4
			c0.3,0.1,0.5,0.1,0.8,0.2c0.3,0.1,0.5,0.1,0.8,0.2c0.2,0.1,0.5,0.1,0.7,0.1c0.2,0,0.5,0.1,0.7,0.1h0.5c0.2,0,0.3,0,0.5,0
			c0.2,0,0.3,0,0.5,0c0.1,0,0.3,0,0.6,0.1c0.3,0,0.6,0,0.7,0l1.6-0.1c0.2,0,0.3,0,0.5,0c0.2,0,0.3,0,0.5-0.1
			c0.3-0.1,0.7-0.1,1.1-0.2c0.3-0.1,0.7-0.2,1.1-0.3c2.4-0.8,4.4-1.9,6.1-3.4c1.6-1.5,2.9-3.4,3.9-5.6c0.2-0.5,0.4-1,0.6-1.6
			c0.1-0.5,0.3-1.1,0.5-1.7c0.1-0.2,0.1-0.5,0.1-0.7c0-0.2,0.1-0.4,0.1-0.7c0.1-0.4,0.1-0.7,0.1-1.1s0-0.7,0.1-1v-0.6
			c0.1-0.2,0.1-0.5,0.1-1c0-0.5,0-0.8-0.1-1v-0.4c0-0.2,0-0.3,0-0.6c0-0.2,0-0.4-0.1-0.6c-0.1-0.2-0.1-0.4-0.1-0.6
			c0-0.2,0-0.4-0.1-0.6c-0.1-0.4-0.2-0.7-0.2-1c-0.1-0.3-0.1-0.7-0.2-1c-0.2-0.5-0.3-0.9-0.5-1.3c-0.1-0.4-0.3-0.8-0.5-1.3
			c-0.3-0.6-0.6-1.2-0.9-1.7c-0.3-0.5-0.7-1.1-1-1.6c-0.1-0.2-0.3-0.3-0.4-0.5c-0.2-0.2-0.3-0.3-0.5-0.5c-0.3-0.4-0.7-0.8-1.1-1.1
			c-0.5-0.4-0.9-0.7-1.3-1c-1.3-0.9-2.8-1.7-4.5-2.2c-1.7-0.5-3.6-0.8-5.9-0.7c-0.1,0-0.2,0-0.3,0c-0.1,0-0.2,0-0.3,0l-1.4,0.1
			c-0.2,0-0.3,0.1-0.5,0.1c-0.1,0-0.3,0-0.5,0.1c-0.4,0.1-0.9,0.2-1.4,0.3c-0.5,0.1-0.9,0.2-1.3,0.4c-1.8,0.7-3.3,1.6-4.6,2.6
			c-1.2,1-2.3,2.3-3.3,3.8c-0.3,0.5-0.6,1-0.8,1.5c-0.2,0.5-0.5,1.1-0.7,1.6c-0.2,0.5-0.3,1-0.4,1.6c-0.1,0.5-0.2,1.1-0.4,1.6
			c-0.1,0.2-0.1,0.3-0.1,0.5c0,0.2,0,0.3-0.1,0.5c-0.1,0.2-0.1,0.4-0.1,0.6c0,0.2,0,0.4-0.1,0.7v0.3c0,0.2,0,0.3,0,0.5s0,0.3,0,0.5
			c-0.1,0.2-0.1,0.4-0.1,0.7s0,0.6,0.1,0.7C1407.6,1995.4,1407.6,1995.6,1407.6,1995.8z M1508.7,1986.6v4.1v13.3v4.8
			c0,0.4,0,0.8,0,1.2s0.1,0.7,0.2,1c0.2,0.2,0.4,0.3,0.7,0.3c0.3,0,0.6,0.1,1,0.1h3.3c0.3,0,0.5,0,0.8,0c0.3,0,0.5,0,0.8-0.1
			c0.4-0.2,0.6-0.4,0.6-0.8c0.1-0.4,0.1-0.8,0.1-1.3v-4.5v-13.8v-4.3c0-0.2,0-0.4,0-0.6c0-0.2,0-0.5,0-0.6c0.1-0.2,0.1-0.3,0-0.4
			c0-0.1,0-0.3,0-0.4c0.2-0.5,0.5-0.8,0.9-0.9c0.5-0.1,1-0.1,1.7-0.1h4.9c0.7,0,1.2,0,1.7,0c0.5,0,0.8-0.3,1-0.9
			c0.1-0.2,0.1-0.4,0.1-0.6c0-0.2,0-0.4,0-0.6v-1.9c0-0.2,0-0.3,0-0.5c0-0.2,0-0.3,0-0.4v-0.2c0-0.2-0.1-0.3-0.1-0.5
			c-0.1-0.1-0.1-0.2-0.2-0.3c-0.2-0.2-0.6-0.2-1-0.3c-0.4,0-0.8,0-1.2,0h-4.9h-19.2h-0.2c-0.3,0.1-0.4,0.1-0.5,0.2
			c-0.2,0.2-0.4,0.4-0.4,0.7c-0.1,0.3-0.1,0.7-0.1,1.1v2.3c0,0.3,0,0.5,0,0.8c0,0.3,0.1,0.5,0.2,0.6c0.1,0.2,0.3,0.3,0.6,0.4
			c0.3,0.1,0.6,0.1,1,0.1c0.4,0,0.8,0,1.2,0h4.5c0.7,0,1.3,0,1.8,0.1c0.5,0,0.8,0.3,1,0.9c0.1,0.1,0.1,0.3,0,0.4c0,0.1,0,0.3,0,0.4
			c0.1,0.2,0.1,0.4,0.1,0.7S1508.7,1986.4,1508.7,1986.6z M3000,0v4000H0V0H3000z M1591.8,2010.9c0.1-0.2,0.1-0.3,0-0.5
			c-0.1-0.2-0.1-0.5-0.2-0.8c-0.1-0.3-0.1-0.6-0.2-0.9l-0.1-0.9c-0.1-0.3-0.1-0.7-0.1-1c0-0.4,0-0.7-0.1-1c0-0.2,0-0.3,0-0.4
			c0-0.1,0-0.2,0-0.4c0-0.2,0-0.3,0-0.5c0-0.1,0-0.3,0-0.4c0-0.2,0-0.4,0-0.5c0-0.2,0-0.4,0-0.6c-0.1-0.3-0.1-0.6-0.1-0.9
			c0-0.3-0.1-0.6-0.1-0.9c-0.2-0.7-0.4-1.4-0.6-2c-0.2-0.6-0.5-1.1-0.9-1.7c-0.2-0.3-0.5-0.7-0.8-0.9c-0.3-0.3-0.6-0.5-1-0.8
			c-0.1-0.1-0.2-0.2-0.3-0.3c-0.1-0.1-0.2-0.3-0.1-0.5c0.1-0.2,0.2-0.3,0.3-0.4c0.1-0.1,0.3-0.2,0.4-0.3c0.2-0.2,0.4-0.3,0.6-0.5
			c0.2-0.2,0.4-0.3,0.6-0.5c0.1-0.1,0.2-0.2,0.4-0.3c0.1-0.1,0.2-0.2,0.3-0.4c0.1-0.1,0.1-0.2,0.2-0.3s0.2-0.2,0.2-0.3
			c0.3-0.4,0.5-0.8,0.6-1.2c0.2-0.4,0.3-0.9,0.5-1.4c0.1-0.2,0.1-0.4,0.1-0.6c0-0.2,0-0.4,0.1-0.7c0.1-0.2,0.1-0.5,0.1-0.9
			c0-0.4,0-0.7,0-0.9v-0.4c-0.1-0.1-0.1-0.2-0.1-0.4c0-0.1,0-0.3,0-0.4c-0.2-0.6-0.3-1.1-0.4-1.6c-0.1-0.5-0.3-0.9-0.6-1.4
			c-0.1-0.2-0.2-0.3-0.3-0.5c-0.1-0.2-0.2-0.3-0.3-0.5c-0.5-0.7-1-1.3-1.7-1.8c-0.7-0.5-1.4-0.9-2.2-1.3c-0.2-0.1-0.5-0.2-0.7-0.2
			c-0.2-0.1-0.4-0.1-0.7-0.2c-0.2-0.1-0.3-0.1-0.5-0.1c-0.2,0-0.4,0-0.5-0.1c-0.4-0.1-0.9-0.2-1.3-0.2c-0.5,0-0.9,0-1.5,0h-16.3
			c-0.1,0-0.1,0-0.2,0c-0.1,0-0.2,0-0.2,0c-0.3,0.1-0.6,0.3-0.7,0.5c-0.2,0.2-0.2,0.5-0.2,0.9c0,0.4,0,0.8,0,1.1v29.2
			c0,0.4,0,0.8,0,1.3c0,0.4,0.1,0.7,0.4,0.9c0.3,0.2,0.7,0.3,1.3,0.3c0.6,0,1.1,0,1.6,0h2.2c0.2,0,0.5,0,0.7,0c0.2,0,0.4,0,0.6-0.1
			c0.3-0.1,0.5-0.3,0.6-0.6c0.1-0.2,0.1-0.3,0.1-0.5c0-0.2,0-0.4,0-0.7s0-0.5,0-0.8c0-0.3,0-0.5,0-0.8v-6.2c0-0.5,0-1.2,0-1.8
			c0-0.7,0.1-1.2,0.3-1.5c0.1-0.2,0.3-0.3,0.5-0.3c0.2,0,0.4-0.1,0.7-0.1h3.9c0.7,0,1.5,0,2.2,0s1.4,0.1,2,0.3
			c0.2,0.1,0.4,0.1,0.5,0.1c0.2,0,0.3,0.1,0.5,0.1c0.6,0.3,1.1,0.7,1.5,1.3c0.3,0.6,0.6,1.2,0.9,2c0.1,0.3,0.2,0.7,0.2,1.1
			c0.1,0.4,0.1,0.7,0.2,1.1c0,0.2,0,0.3,0,0.4c0.1,0.4,0.1,0.7,0.1,1.2c0,0.4,0.1,0.8,0.1,1.2c0,0.1,0,0.2,0,0.3c0,0.1,0,0.2,0,0.4
			c0.1,0.6,0.2,1.1,0.2,1.7c0,0.6,0.2,1.1,0.4,1.5c0.2,0.3,0.5,0.5,0.9,0.5c0.4,0.1,0.8,0.1,1.3,0.1h2.6c0.4,0,0.7,0,1,0
			c0.3,0,0.6-0.1,0.8-0.2C1591.6,2011.1,1591.7,2011,1591.8,2010.9z M1352.5,2010.8c0-0.2,0-0.4,0-0.6c0-0.2-0.1-0.4-0.2-0.6
			c-0.1-0.2-0.1-0.3-0.2-0.5c-0.1-0.1-0.1-0.2-0.1-0.3s0-0.2-0.1-0.3c-0.4-1-0.8-2-1.2-3c-0.3-1-0.7-2-1.2-3.1
			c-0.1-0.3-0.2-0.5-0.2-0.7c-0.1-0.2-0.2-0.5-0.3-0.8c-0.2-0.5-0.4-1-0.6-1.5c-0.2-0.5-0.4-1-0.6-1.5c-0.1-0.1-0.1-0.2-0.1-0.4
			c0-0.1-0.1-0.2-0.1-0.4c-0.7-1.6-1.3-3.2-1.8-4.8c-0.6-1.6-1.2-3.2-1.8-4.8c-0.3-0.6-0.5-1.3-0.7-1.9c-0.2-0.6-0.5-1.3-0.7-1.9
			c-0.1-0.2-0.1-0.4-0.2-0.6c-0.1-0.2-0.1-0.4-0.2-0.6c-0.2-0.5-0.4-1.1-0.6-1.6c-0.2-0.5-0.4-1.1-0.6-1.6c-0.2-0.4-0.3-0.8-0.4-1.1
			c-0.1-0.4-0.3-0.7-0.7-0.8c-0.2-0.2-0.5-0.2-0.9-0.2c-0.4,0-0.7,0-1.1,0h-4.2c-0.1,0-0.1,0-0.2,0c-0.1,0-0.1,0-0.2,0
			c-0.3,0.1-0.5,0.2-0.6,0.2c-0.3,0.2-0.5,0.5-0.6,0.9c-0.1,0.4-0.2,0.7-0.4,1.1c-0.3,0.7-0.6,1.4-0.8,2.1c-0.3,0.7-0.5,1.4-0.8,2.1
			c-0.1,0.2-0.1,0.3-0.1,0.4c0,0.1-0.1,0.3-0.1,0.4c-0.7,1.8-1.4,3.5-2,5.3c-0.6,1.8-1.3,3.6-2,5.3c-0.2,0.6-0.5,1.3-0.7,1.9
			c-0.2,0.6-0.5,1.3-0.7,1.9c-0.2,0.7-0.5,1.4-0.8,2.1c-0.2,0.7-0.5,1.4-0.8,2.1c-0.1,0.2-0.2,0.5-0.3,0.8c-0.1,0.2-0.2,0.5-0.3,0.8
			c-0.3,0.7-0.6,1.5-0.8,2.3c-0.3,0.8-0.6,1.5-0.9,2.3c-0.1,0.1-0.1,0.3-0.2,0.5c-0.1,0.2-0.1,0.4-0.2,0.6c0,0.2-0.1,0.4,0,0.6
			c0,0.2,0.1,0.3,0.3,0.4c0.2,0.2,0.7,0.2,1.3,0.2c0.6,0,1.1,0,1.5,0c0.3,0,0.6,0,1,0c0.4,0,0.8,0,1.1,0s0.7,0,1-0.1
			c0.3-0.1,0.5-0.1,0.7-0.3c0.3-0.2,0.4-0.5,0.5-0.8c0.1-0.4,0.2-0.7,0.4-1c0.2-0.6,0.4-1.2,0.6-1.8c0.2-0.6,0.4-1.2,0.6-1.7
			c0.1-0.3,0.2-0.6,0.3-1c0.1-0.3,0.3-0.6,0.5-0.8c0.4-0.2,0.8-0.4,1.5-0.4c0.6,0,1.2,0,1.8,0h7.6c0.2,0,0.3,0,0.4,0
			c0.2,0,0.3,0,0.5,0c0.3,0.1,0.6,0.2,0.8,0.3c0.2,0.1,0.3,0.3,0.4,0.5c0.1,0.2,0.2,0.4,0.3,0.7s0.2,0.5,0.3,0.8
			c0.2,0.5,0.4,1,0.6,1.5c0.2,0.5,0.3,1,0.5,1.5c0.1,0.3,0.2,0.6,0.3,0.9c0.1,0.3,0.2,0.6,0.3,0.8c0.2,0.3,0.4,0.5,0.8,0.6
			c0.2,0.1,0.4,0.1,0.6,0.1c0.2,0,0.4,0,0.7,0h2.3c0.4,0,0.9,0,1.5,0c0.6,0,1,0,1.3-0.2C1352.3,2011.2,1352.5,2011,1352.5,2010.8z"
			/>
		<path class="st1" d="M1386.8,2001.5v0.3c-0.1,0.3-0.2,0.7-0.3,1c-0.1,0.3-0.2,0.6-0.4,0.9c-0.4,0.6-0.9,1-1.5,1.3
			c-0.6,0.3-1.3,0.5-2.1,0.6c-0.8,0.1-1.6,0.2-2.5,0.1c-0.9,0-1.8,0-2.8,0c-0.3,0-0.6,0-1,0c-0.4,0-0.8,0-1.1,0
			c-0.4,0-0.7-0.1-1-0.1c-0.3-0.1-0.5-0.2-0.6-0.4c-0.2-0.2-0.2-0.5-0.3-0.9c0-0.4,0-0.8,0-1.2v-4.3c0-0.4,0-0.7,0-1.1
			s0.1-0.7,0.2-1c0.1-0.2,0.4-0.4,0.8-0.5c0.1,0,0.1,0,0.2,0c0,0,0.1,0,0.2-0.1h5.4c0.7,0,1.4,0,2,0c0.7,0,1.2,0.1,1.8,0.3
			c1.3,0.5,2.2,1.2,2.6,2.4c0.1,0.3,0.2,0.6,0.4,1.2C1386.8,2000.5,1386.8,2001,1386.8,2001.5z"/>
		<path class="st1" d="M1376.9,1991.1c-0.3,0-0.6,0-1,0c-0.4,0-0.7,0-1,0s-0.6-0.1-0.9-0.1c-0.3-0.1-0.5-0.2-0.6-0.3
			c-0.1-0.1-0.1-0.3-0.2-0.4c0-0.2-0.1-0.3-0.1-0.5v-0.5c0-0.2,0-0.4,0-0.6c0-0.2,0-0.5,0-0.7v-2.6c0-0.3,0-0.7,0-1
			c0-0.3,0.1-0.6,0.2-0.8c0.1-0.2,0.4-0.3,0.7-0.4c0.1,0,0.1,0,0.2,0c0.1,0,0.2,0,0.2-0.1h4.1c0.4,0,0.9,0,1.4,0
			c0.5,0,0.9,0,1.3,0.1c0.2,0,0.4,0,0.6,0.1c0.2,0.1,0.5,0.1,0.7,0.2c0.2,0,0.4,0.1,0.6,0.2c0.7,0.4,1.3,0.8,1.7,1.5
			c0.4,0.6,0.5,1.5,0.5,2.6c-0.1,0.7-0.2,1.2-0.4,1.6c-0.5,0.8-1.2,1.4-2.2,1.7c-0.4,0.1-0.8,0.2-1.2,0.3c-0.5,0.1-1,0.1-1.5,0.1
			c-0.5,0-1.1,0-1.6,0C1377.9,1991.1,1377.4,1991.1,1376.9,1991.1z"/>
		<path class="st1" d="M1339.9,1995.9c0,0.1,0,0.2,0.1,0.4c0.2,0.3,0.2,0.7,0.3,1.1c0,0.4-0.2,0.7-0.6,0.8c-0.3,0.1-0.6,0.1-0.9,0.1
			s-0.7,0-1,0h-3.7c-0.4,0-0.8,0-1.1-0.1c-0.4,0-0.6-0.2-0.8-0.4c-0.1-0.3-0.1-0.6-0.1-0.9c0.1-0.3,0.2-0.7,0.3-1
			c0.1-0.3,0.2-0.6,0.3-0.9c0.4-0.9,0.7-1.8,1-2.8c0.3-0.9,0.6-1.8,1-2.7c0.2-0.4,0.3-0.8,0.4-1.3c0.1-0.4,0.3-0.8,0.6-1.2
			c0.1-0.1,0.1-0.1,0.2-0.1c0.1,0,0.1-0.1,0.2-0.1c0.2,0,0.3,0.1,0.5,0.2c0.1,0.2,0.2,0.3,0.3,0.5c0.1,0.2,0.2,0.4,0.2,0.7
			c0.1,0.2,0.1,0.4,0.2,0.6c0.4,1.1,0.8,2.2,1.2,3.4c0.4,1.1,0.7,2.2,1.2,3.3C1339.8,1995.6,1339.9,1995.8,1339.9,1995.9z"/>
	</g>
	<g>
	</g>
</g>
</svg>
