<?xml version="1.0" encoding="utf-8"?>
<!-- Generator: Adobe Illustrator 20.1.0, SVG Export Plug-In . SVG Version: 6.00 Build 0)  -->
<!DOCTYPE svg PUBLIC "-//W3C//DTD SVG 1.1//EN" "http://www.w3.org/Graphics/SVG/1.1/DTD/svg11.dtd">
<svg version="1.1" id="Layer_1" xmlns="http://www.w3.org/2000/svg" xmlns:xlink="http://www.w3.org/1999/xlink" x="0px" y="0px"
	 viewBox="0 0 3000 3000" style="enable-background:new 0 0 3000 3000;" xml:space="preserve">
<style type="text/css">
	.st0{fill:#FFFFFF;}
</style>
<title>header-aboutfilm-desktop</title>
<g id="XMLID_1_">
	<g>
		<path class="st0" d="M3000,0v3000H0V0H3000z M1887.6,1506.9c0.1-0.2,0.1-0.3,0-0.5c0-0.7-0.1-1.3-0.2-1.8c0-0.1,0-0.1,0-0.2
			c0-0.1,0-0.2,0-0.2c-0.1-0.3-0.2-0.6-0.3-0.9c-0.1-0.3-0.2-0.6-0.4-0.8c-0.5-0.8-1.1-1.5-1.7-2s-1.3-1-2.1-1.6
			c-0.5-0.3-1.1-0.6-1.8-0.8c-0.7-0.2-1.3-0.4-1.9-0.6c-0.2-0.1-0.3-0.1-0.5-0.1c-0.2,0-0.3,0-0.5-0.1c-0.9-0.2-1.7-0.5-2.6-0.7
			c-0.9-0.2-1.7-0.4-2.6-0.7c-0.4-0.1-0.7-0.2-1.1-0.3c-0.4-0.1-0.7-0.2-1-0.3c-0.6-0.2-1.1-0.5-1.6-0.8c-0.4-0.3-0.8-0.7-1-1.4
			c-0.1-0.2-0.1-0.4-0.1-0.6s0-0.5,0-0.7c0.2-0.8,0.4-1.5,0.8-1.9c0.4-0.4,0.9-0.8,1.6-1.1c0.4-0.2,0.9-0.3,1.5-0.4
			c0.6-0.1,1.1-0.1,1.7,0c0.6,0,1.1,0.1,1.7,0.2c0.5,0.1,1,0.2,1.4,0.4c0.4,0.2,0.8,0.5,1.2,0.8c0.2,0.2,0.5,0.5,0.7,0.8
			c0.2,0.3,0.4,0.7,0.5,1c0.2,0.3,0.3,0.7,0.4,1c0.1,0.3,0.3,0.6,0.7,0.7c0.2,0.1,0.4,0.1,0.7,0.1c0.3,0,0.6,0,0.8,0h2.9
			c0.3,0,0.6,0,0.9-0.1c0.3,0,0.5-0.2,0.6-0.3c0.1-0.2,0.2-0.4,0.2-0.7c0-0.3,0-0.6-0.1-0.9c-0.2-0.6-0.3-1.2-0.5-1.7
			c-0.2-0.5-0.4-1-0.7-1.5c-2.2-3.6-6.3-5.4-12.3-5.3c-0.1,0.1-0.2,0.1-0.4,0.1c-0.2,0-0.3,0-0.4,0c-0.3,0.1-0.6,0.1-0.9,0.1
			c-0.3,0-0.6,0.1-0.9,0.1c-0.8,0.2-1.6,0.4-2.2,0.6c-0.7,0.2-1.4,0.5-2,0.9c-0.9,0.6-1.8,1.3-2.5,2c-0.7,0.8-1.3,1.7-1.8,2.7
			c-0.1,0.3-0.2,0.6-0.3,0.9c-0.1,0.3-0.1,0.6-0.2,1c0,0.2,0,0.4,0,0.6c-0.1,0.3-0.1,0.8-0.1,1.3c0,0.5,0.1,0.9,0.1,1.2
			c0.1,0.3,0.2,0.7,0.2,0.9c0.1,0.3,0.2,0.6,0.3,0.9c0.3,0.8,0.8,1.5,1.4,2.1c0.6,0.6,1.2,1.1,1.9,1.6c0.5,0.3,1.2,0.6,1.8,0.9
			c0.7,0.3,1.3,0.5,2,0.8c0.2,0.1,0.5,0.1,0.7,0.2c0.2,0.1,0.4,0.1,0.7,0.2c0.1,0.1,0.2,0.1,0.3,0.1s0.2,0,0.4,0.1
			c0.5,0.2,0.9,0.3,1.4,0.4c0.5,0.1,1,0.2,1.5,0.4c0.2,0.1,0.5,0.1,0.7,0.2c0.2,0,0.4,0.1,0.6,0.2c0.6,0.2,1.1,0.4,1.7,0.5
			c0.6,0.2,1.1,0.4,1.5,0.7c0.2,0.1,0.4,0.2,0.5,0.3c0.7,0.4,1.2,1.1,1.6,1.9c0.1,0.2,0.1,0.4,0.2,0.7c0,0.3,0,0.5,0,0.7
			c-0.2,1.1-0.7,1.8-1.3,2.3c-0.6,0.5-1.4,0.8-2.5,1.1c-0.2,0.1-0.3,0.1-0.5,0.1c-0.2,0-0.3,0-0.5,0.1c-0.2,0-0.4,0-0.5,0
			c-0.2,0.1-0.6,0.1-1,0.1c-0.4,0-0.8,0-1-0.1h-0.2c-0.2-0.1-0.5-0.1-0.7-0.1c-0.2,0-0.4,0-0.6-0.1c-1-0.3-1.8-0.6-2.5-1.1
			c-0.2-0.1-0.4-0.3-0.6-0.4c-0.2-0.1-0.3-0.3-0.5-0.5c-0.2-0.3-0.4-0.6-0.6-0.9c-0.2-0.3-0.3-0.6-0.5-1c-0.2-0.4-0.3-0.7-0.3-1.1
			c-0.1-0.3-0.3-0.6-0.6-0.8c-0.2-0.1-0.5-0.1-0.7-0.1c-0.3,0-0.5,0-0.8,0h-2.9c-0.4,0-0.7,0-1,0.1c-0.3,0-0.5,0.2-0.7,0.4
			c-0.2,0.2-0.2,0.5-0.2,0.8c0,0.4,0.1,0.7,0.1,0.9c0.1,0.2,0.1,0.4,0.1,0.6c0,0.2,0,0.4,0.1,0.5c0.3,1,0.7,1.9,1.2,2.6
			c0.8,1.2,1.7,2.2,2.8,3s2.4,1.4,3.9,1.9c0.3,0.1,0.7,0.2,1.1,0.3c0.4,0.1,0.8,0.1,1.1,0.2c0.2,0,0.3,0,0.4,0.1c0.1,0,0.3,0,0.4,0
			c0.2,0.1,0.4,0.1,0.6,0.1c0.2,0,0.4,0,0.7,0.1h0.5c0.1,0,0.4,0,0.8,0c0.4,0,0.6,0,0.8,0c0.1,0,0.1,0,0.2,0c0.1,0,0.2,0,0.2,0h0.4
			c0.2-0.1,0.4-0.1,0.6-0.1c0.2,0,0.4,0,0.6-0.1c0.5-0.1,0.9-0.2,1.4-0.2c0.5,0,0.9-0.1,1.3-0.3c0.6-0.2,1.2-0.4,1.8-0.6
			c0.6-0.2,1.1-0.5,1.6-0.8c0.2-0.1,0.4-0.2,0.5-0.4c0.2-0.1,0.3-0.2,0.5-0.4c0.2-0.2,0.4-0.3,0.6-0.5c0.2-0.2,0.3-0.4,0.5-0.5
			c0.1-0.2,0.2-0.3,0.3-0.4c0.1-0.1,0.2-0.2,0.4-0.4c0.3-0.4,0.6-0.9,0.8-1.3c0.2-0.5,0.4-1,0.6-1.5c0.1-0.3,0.2-0.6,0.2-0.9
			c0-0.3,0.1-0.6,0.2-1V1506.9z M1847.7,1505.7c0.1-0.3,0.1-0.6,0.1-1c0-0.3-0.1-0.6-0.4-0.7c-0.2-0.1-0.4-0.2-0.7-0.2s-0.6,0-0.8,0
			h-2.8c-0.2,0-0.5,0-0.8,0c-0.3,0-0.5,0-0.7,0.1c-0.3,0.2-0.5,0.4-0.6,0.7c-0.1,0.3-0.2,0.6-0.3,0.9c-0.2,0.4-0.3,0.7-0.4,1.1
			c-0.1,0.4-0.3,0.7-0.5,1c-0.4,0.6-0.8,1.2-1.3,1.7c-0.5,0.5-1.1,0.9-1.8,1.2c-0.3,0.2-0.6,0.3-0.9,0.3c-0.3,0.1-0.7,0.1-1,0.2
			c-0.1,0-0.2,0-0.4,0c-0.1,0-0.3,0.1-0.6,0.1c-0.2,0-0.4,0-0.6-0.1h-0.4c-0.2,0-0.3,0-0.4,0c-0.1,0-0.3,0-0.4-0.1
			c-0.4-0.1-0.8-0.2-1.2-0.3c-0.4-0.1-0.7-0.2-1-0.4c-1.1-0.6-2-1.3-2.7-2.2c-0.7-0.9-1.2-2-1.7-3.3c-0.1-0.3-0.2-0.6-0.2-0.8
			c-0.1-0.3-0.1-0.6-0.2-0.9c-0.1-0.3-0.1-0.6-0.1-0.7c-0.1-0.1-0.1-0.3-0.1-0.5c0-0.2,0-0.3-0.1-0.5v-0.4c0-0.1,0-0.2,0-0.4
			c0-0.1,0-0.2,0-0.4c0-0.2,0-0.5,0-0.8c0-0.3,0-0.5,0.1-0.8c0.1-0.2,0.1-0.4,0.1-0.6c0-0.2,0-0.4,0.1-0.6c0-0.2,0.1-0.4,0.1-0.6
			c0-0.2,0.1-0.4,0.1-0.6c0.1-0.4,0.3-0.8,0.4-1.2c0.1-0.4,0.3-0.8,0.4-1.2c0.8-2,2.3-3.5,4.4-4.4c0.2-0.1,0.4-0.2,0.6-0.2
			c0.2,0,0.4-0.1,0.7-0.2c0.6-0.2,1.3-0.2,2-0.2s1.4,0.1,2,0.3c0.8,0.2,1.5,0.6,2.2,1c1,0.6,1.7,1.4,2.3,2.4c0.2,0.3,0.3,0.6,0.5,1
			s0.3,0.7,0.6,0.9c0.2,0.1,0.4,0.2,0.7,0.2c0.3,0,0.6,0.1,1,0.1s0.7,0,1.1,0c0.4,0,0.7,0,1,0c0.2,0,0.4,0,0.7,0s0.4,0,0.6-0.1h0.4
			c0.2-0.1,0.4-0.1,0.6-0.2c0.2,0,0.3-0.2,0.4-0.3c0.1-0.2,0.1-0.5,0-0.8c-0.1-0.3-0.1-0.5-0.2-0.7c-0.2-0.6-0.4-1.2-0.6-1.8
			c-0.2-0.5-0.5-1.1-0.8-1.6c-1.2-1.9-2.9-3.5-5-4.6c-2.1-1.2-4.7-1.7-8-1.7c-0.1,0-0.1,0-0.2,0c-0.1,0-0.2,0-0.2,0
			c-0.2,0-0.5,0.1-0.7,0.1c-0.2,0-0.5,0-0.7,0.1c-0.2,0.1-0.3,0.1-0.5,0.1c-0.2,0-0.4,0-0.6,0.1c-0.4,0.1-0.8,0.2-1.2,0.3
			s-0.8,0.2-1.2,0.4c-1.1,0.4-2,0.9-2.9,1.5c-0.8,0.5-1.7,1.2-2.4,1.9c-0.2,0.2-0.4,0.4-0.5,0.6c-0.2,0.2-0.4,0.4-0.5,0.6
			c-0.5,0.7-1,1.4-1.5,2.3c-0.2,0.3-0.4,0.7-0.6,1.1c-0.2,0.4-0.3,0.8-0.5,1.2c-0.1,0.4-0.3,0.8-0.4,1.2c-0.1,0.4-0.2,0.8-0.3,1.3
			c-0.1,0.2-0.1,0.5-0.1,0.7s-0.1,0.5-0.1,0.7c0,0.3,0,0.6-0.1,0.8c0,0.3-0.1,0.5-0.1,0.8v0.4c0,0.1,0,0.1,0,0.2c0,0.1,0,0.2,0,0.3
			c-0.1,0.2-0.1,0.4-0.1,0.7c0,0.3,0,0.5,0.1,0.7v0.9c0,0.1,0,0.2,0,0.3c0,0.1,0,0.2,0.1,0.4c0.1,0.3,0.1,0.6,0.1,0.9
			c0,0.3,0.1,0.6,0.1,0.9c0,0.1,0,0.2,0,0.3c0,0.1,0,0.2,0.1,0.4c0.1,0.5,0.3,1,0.4,1.4c0.1,0.5,0.3,0.9,0.5,1.4
			c0.8,1.8,1.8,3.4,3.1,4.8c1.3,1.3,2.8,2.4,4.7,3.2c0.2,0.1,0.5,0.2,0.8,0.3c0.3,0.1,0.6,0.2,0.8,0.3c0.3,0.1,0.6,0.2,0.9,0.2
			c0.3,0.1,0.6,0.1,0.9,0.2c0.2,0,0.5,0.1,0.7,0.1c0.2,0,0.4,0.1,0.7,0.1c0.2,0,0.4,0,0.5,0.1c0.2,0.1,0.5,0.1,0.8,0.1
			c0.3,0,0.5,0,0.8,0h0.7c0.2,0,0.4,0,0.6-0.1c0.2,0,0.4,0,0.6,0c0.2-0.1,0.3-0.1,0.4-0.1c0.1,0,0.3,0,0.4-0.1
			c0.3-0.1,0.7-0.1,1-0.2c0.3-0.1,0.7-0.2,1-0.3c3.2-1,5.7-2.9,7.3-5.5c0.2-0.2,0.3-0.4,0.4-0.7c0.1-0.2,0.2-0.5,0.4-0.7
			c0.2-0.4,0.4-0.8,0.5-1.2c0.1-0.4,0.3-0.9,0.4-1.3L1847.7,1505.7z M1803,1515.9c0.2-0.2,0.2-0.6,0.2-1.1c0-0.5,0-0.9,0-1.3v-7.5
			v-16v-4c0-0.4,0-0.8,0-1.1c0-0.3-0.1-0.6-0.2-0.8c-0.2-0.2-0.4-0.3-0.7-0.3c-0.3,0-0.6,0-1,0h-4c-0.1,0-0.1,0-0.2,0
			c-0.1,0-0.2,0-0.3,0c-0.3,0.1-0.5,0.3-0.6,0.5c-0.2,0.2-0.2,0.7-0.2,1.2c0,0.6,0,1.1,0,1.5v6.7v16.8v4c0,0.3,0,0.7,0.1,1
			c0,0.3,0.1,0.5,0.3,0.7c0.2,0.2,0.4,0.2,0.7,0.3c0.3,0,0.6,0,0.9,0h2.7c0.2,0,0.5,0,0.7,0c0.2,0,0.5,0,0.7,0
			C1802.6,1516.3,1802.9,1516.1,1803,1515.9z M1780.6,1514.4v-4v-17.1v-6.9c0-0.5,0-1,0-1.5c0-0.5-0.2-0.8-0.5-1
			c-0.2-0.1-0.4-0.2-0.7-0.2s-0.6,0-0.8,0h-3.2h-3c-0.3,0-0.6,0-0.9,0s-0.5,0.1-0.7,0.2c-0.2,0.2-0.4,0.3-0.5,0.6
			c-0.1,0.2-0.2,0.5-0.3,0.7c-0.2,0.5-0.3,1-0.5,1.5c-0.2,0.5-0.3,1-0.5,1.4c-0.6,1.9-1.2,3.8-1.8,5.7c-0.6,1.9-1.2,3.8-1.8,5.6
			c-0.2,0.7-0.5,1.4-0.7,2.1c-0.2,0.7-0.4,1.4-0.7,2.1c-0.1,0.2-0.2,0.5-0.3,0.8c-0.1,0.3-0.3,0.5-0.5,0.5c-0.1,0.1-0.1,0.1-0.2,0.1
			c-0.1,0-0.1-0.1-0.2-0.1c-0.2-0.1-0.3-0.2-0.3-0.4c-0.1-0.2-0.1-0.3-0.2-0.5c-0.2-0.6-0.5-1.2-0.6-1.9c-0.2-0.6-0.4-1.3-0.6-1.9
			c-0.7-2-1.4-3.9-2.1-5.9s-1.3-3.9-2-5.9c-0.2-0.5-0.4-1-0.5-1.5c-0.2-0.5-0.3-1-0.5-1.5c-0.1-0.3-0.2-0.6-0.3-0.8
			s-0.2-0.5-0.5-0.7c-0.3-0.2-0.7-0.3-1.2-0.3c-0.5,0-1,0-1.5,0h-6c-0.1,0-0.1,0-0.2,0c-0.1,0-0.1,0-0.2,0c-0.4,0.1-0.6,0.2-0.7,0.5
			c-0.1,0.1-0.1,0.3-0.1,0.5c0,0.2-0.1,0.5-0.1,0.7c0,0.2,0,0.5,0,0.8c0,0.3,0,0.5,0,0.7v6.4v17.1v4c0,0.3,0,0.7,0.1,1
			c0,0.3,0.1,0.6,0.3,0.7c0.2,0.2,0.4,0.2,0.7,0.2c0.3,0,0.6,0,0.9,0h2.4c0.2,0,0.5,0,0.7,0c0.2,0,0.5,0,0.7-0.1
			c0.3-0.1,0.6-0.2,0.7-0.4c0.1-0.2,0.2-0.4,0.2-0.6c0-0.2,0-0.5,0-0.7v-2.2v-12.2c0-0.3,0.1-0.7,0.1-1c0-0.3,0-0.7,0-1
			c0-0.2,0-0.5,0-0.7c0-0.2,0-0.5,0.1-0.7c0.1-0.2,0.1-0.4,0.1-0.6c0-0.2,0.1-0.4,0.2-0.5c0.1-0.1,0.2-0.1,0.2,0
			c0.1,0,0.1,0.1,0.2,0.2c0.2,0.3,0.3,0.6,0.5,1.1c0.3,0.7,0.6,1.5,0.9,2.3c0.2,0.8,0.5,1.6,0.8,2.3c0.2,0.7,0.5,1.3,0.7,2
			c0.2,0.7,0.4,1.3,0.7,1.9c0.2,0.3,0.3,0.6,0.3,0.9c0.1,0.3,0.2,0.6,0.3,0.9c0,0.1,0.1,0.1,0.1,0.2c0,0.1,0,0.2,0.1,0.2
			c0.1,0.3,0.2,0.6,0.3,0.9c0.1,0.3,0.2,0.6,0.4,0.9c0,0.1,0.1,0.2,0.1,0.2c0,0.1,0,0.2,0.1,0.2c0.2,0.4,0.3,0.8,0.4,1.2
			c0.1,0.4,0.3,0.8,0.4,1.2l0.1,0.4c0.1,0.4,0.3,0.7,0.4,1.1c0.1,0.4,0.2,0.8,0.4,1.1c0.1,0.3,0.2,0.5,0.3,0.7
			c0.1,0.2,0.3,0.4,0.5,0.5c0.1,0.1,0.3,0.2,0.5,0.2c0.2,0,0.5,0,0.8,0s0.6,0,0.9,0c0.3,0,0.5,0,0.8,0h1.1c0.2-0.1,0.4-0.1,0.6-0.1
			c0.2,0,0.3-0.1,0.5-0.2c0.2-0.1,0.3-0.3,0.4-0.5c0.1-0.2,0.2-0.4,0.2-0.6c0.1-0.3,0.3-0.7,0.4-1c0.1-0.4,0.2-0.7,0.4-1
			c0.1-0.1,0.1-0.2,0.1-0.3c0-0.1,0-0.2,0.1-0.3c0.3-0.9,0.6-1.8,0.9-2.7c0.3-0.9,0.6-1.8,1-2.7c0.1-0.3,0.2-0.6,0.3-0.9
			c0.1-0.3,0.2-0.6,0.3-0.9c0.2-0.3,0.3-0.6,0.3-0.9c0.1-0.3,0.2-0.6,0.3-0.9c0.1-0.1,0.1-0.2,0.1-0.3s0-0.2,0.1-0.3
			c0.2-0.4,0.3-0.8,0.4-1.2s0.3-0.8,0.4-1.2c0.1-0.2,0.2-0.4,0.2-0.6c0.1-0.2,0.1-0.4,0.2-0.5c0.2-0.5,0.4-1,0.5-1.5s0.3-1,0.5-1.4
			c0.1-0.2,0.1-0.3,0.2-0.5c0.1-0.2,0.2-0.3,0.3-0.4c0,0,0.1-0.1,0.1-0.1c0-0.1,0.1-0.1,0.2,0c0.2,0.1,0.3,0.2,0.3,0.5
			c0,0.2,0,0.5,0.1,0.7c0.1,0.2,0.1,0.5,0.1,0.8c0,0.3,0,0.5,0,0.8c0,0.4,0,0.8,0,1.2s0,0.8,0,1.2v11.8v2.3c0,0.3,0,0.5,0,0.8
			c0,0.2,0.1,0.4,0.2,0.6c0.1,0.2,0.3,0.3,0.4,0.3c0.2,0,0.4,0.1,0.6,0.1h1.2h2.2c0.3,0,0.7,0,0.9,0c0.3,0,0.5-0.1,0.7-0.2
			c0.2-0.1,0.3-0.4,0.3-0.7C1780.6,1515,1780.6,1514.7,1780.6,1514.4z M1732.7,1515.8c0-0.2,0-0.4,0-0.6c0-0.2-0.1-0.4-0.2-0.6
			c-0.1-0.2-0.1-0.3-0.2-0.5c-0.1-0.1-0.1-0.2-0.1-0.3c0-0.1,0-0.2-0.1-0.2c-0.4-1-0.8-1.9-1.1-2.9c-0.3-1-0.7-2-1.1-2.9
			c-0.1-0.2-0.2-0.5-0.2-0.7c-0.1-0.2-0.2-0.5-0.3-0.7c-0.2-0.5-0.4-1-0.5-1.5c-0.2-0.5-0.4-1-0.6-1.5c-0.1-0.1-0.1-0.2-0.1-0.3
			c0-0.1-0.1-0.2-0.1-0.3c-0.6-1.5-1.2-3.1-1.8-4.6c-0.5-1.6-1.1-3.1-1.7-4.6c-0.2-0.6-0.5-1.2-0.7-1.8c-0.2-0.6-0.4-1.2-0.7-1.8
			c-0.1-0.2-0.1-0.4-0.2-0.6c-0.1-0.2-0.1-0.4-0.2-0.5c-0.2-0.5-0.4-1-0.6-1.5c-0.2-0.5-0.4-1-0.6-1.5c-0.1-0.4-0.3-0.7-0.4-1.1
			c-0.1-0.3-0.3-0.6-0.7-0.8c-0.2-0.2-0.5-0.2-0.8-0.2c-0.4,0-0.7,0-1,0h-4c-0.1,0-0.1,0-0.2,0c-0.1,0-0.1,0-0.2,0
			c-0.2,0.1-0.4,0.1-0.6,0.2c-0.3,0.2-0.5,0.5-0.6,0.8c-0.1,0.3-0.2,0.7-0.4,1c-0.3,0.6-0.5,1.3-0.8,2c-0.2,0.7-0.5,1.3-0.7,2
			c-0.1,0.2-0.1,0.3-0.1,0.4c0,0.1-0.1,0.3-0.1,0.4c-0.7,1.7-1.4,3.4-2,5.1c-0.6,1.7-1.2,3.4-2,5.1c-0.2,0.6-0.5,1.2-0.7,1.8
			c-0.2,0.6-0.4,1.2-0.7,1.8c-0.2,0.6-0.5,1.3-0.7,2c-0.2,0.7-0.5,1.3-0.7,2c-0.1,0.2-0.2,0.5-0.3,0.7c-0.1,0.2-0.2,0.5-0.3,0.7
			c-0.3,0.7-0.5,1.4-0.8,2.2c-0.3,0.7-0.6,1.5-0.8,2.2c-0.1,0.1-0.1,0.3-0.2,0.5c-0.1,0.2-0.1,0.4-0.2,0.6c0,0.2-0.1,0.4,0,0.6
			c0,0.2,0.1,0.3,0.2,0.4c0.2,0.2,0.7,0.2,1.2,0.2c0.6,0,1,0,1.4,0c0.3,0,0.6,0,1,0c0.4,0,0.7,0,1.1,0s0.7,0,1-0.1
			c0.3,0,0.5-0.1,0.7-0.2c0.2-0.2,0.4-0.4,0.5-0.8c0.1-0.3,0.2-0.7,0.3-1c0.2-0.5,0.4-1.1,0.6-1.7c0.2-0.6,0.4-1.1,0.6-1.6
			c0.1-0.3,0.2-0.6,0.3-0.9c0.1-0.3,0.3-0.5,0.5-0.7c0.3-0.2,0.8-0.4,1.4-0.3c0.6,0,1.2,0,1.7,0h7.3c0.2,0,0.3,0,0.4,0
			c0.1,0,0.3,0,0.4,0c0.3,0.1,0.6,0.2,0.7,0.3c0.2,0.1,0.3,0.3,0.4,0.5c0.1,0.2,0.2,0.4,0.3,0.6c0.1,0.2,0.2,0.5,0.2,0.8
			c0.2,0.5,0.4,0.9,0.5,1.4c0.2,0.5,0.3,1,0.5,1.5c0.1,0.3,0.2,0.5,0.3,0.8c0.1,0.3,0.2,0.5,0.3,0.8c0.2,0.3,0.4,0.5,0.7,0.6
			c0.2,0.1,0.4,0.1,0.6,0.1c0.2,0,0.4,0,0.7,0h2.2c0.4,0,0.8,0,1.4,0c0.6,0,1,0,1.2-0.2C1732.6,1516.1,1732.7,1516,1732.7,1515.8z
			 M1688.9,1515.8c0.1-0.2,0.2-0.4,0.2-0.8c0-0.3,0-0.7,0-1v-3.9v-19.2v-5.1c0-0.5,0-1,0-1.3c0-0.4-0.2-0.7-0.7-0.8
			c-0.2-0.1-0.4-0.1-0.6-0.1c-0.2,0-0.5,0-0.7,0h-2.8c-0.3,0-0.6,0-0.9,0.1c-0.3,0-0.5,0.1-0.6,0.4c-0.2,0.2-0.3,0.6-0.3,1v0.5
			c0,0.1,0,0.3,0,0.4c0,0.2,0,0.3,0,0.5v1.8v10.7v2.9c0,0.2,0,0.5,0,0.8c0,0.3,0,0.5,0,0.7c-0.1,0.2-0.1,0.5-0.1,0.7
			c0,0.2-0.1,0.4-0.3,0.4c-0.1,0.1-0.2,0.1-0.3,0c-0.1-0.1-0.2-0.1-0.2-0.2c-0.2-0.2-0.3-0.3-0.4-0.5c-0.1-0.2-0.2-0.4-0.3-0.6
			c-0.6-0.8-1.1-1.6-1.6-2.5c-0.5-0.8-1-1.7-1.5-2.5c-1.1-1.7-2.2-3.5-3.2-5.2c-1.1-1.7-2.2-3.5-3.2-5.2l-1.7-2.6
			c-0.2-0.2-0.3-0.5-0.5-0.7c-0.2-0.2-0.4-0.4-0.7-0.5c-0.2-0.1-0.5-0.2-0.8-0.2c-0.3,0-0.7,0-1,0h-3.7c-0.1,0-0.1,0-0.2,0
			c-0.1,0-0.1,0-0.2,0c-0.3,0.1-0.5,0.2-0.6,0.5c-0.1,0.2-0.2,0.5-0.2,0.9s0,0.7,0,1.1v4.3v18.4v5.3c0,0.5,0,1,0.1,1.4
			c0,0.4,0.3,0.7,0.7,0.8c0.2,0.1,0.4,0.1,0.7,0.1c0.2,0,0.5,0,0.7,0h2.8c0.3,0,0.6,0,0.9,0c0.3,0,0.5-0.1,0.6-0.3
			c0.2-0.2,0.2-0.6,0.2-1.1v-0.5c0.1-0.2,0.1-0.3,0.1-0.5c0-0.2,0-0.3,0-0.5v-1.8v-11v-3.2c0-0.4,0-0.8,0-1.1c0-0.3,0.1-0.5,0.4-0.7
			c0.3,0,0.6,0.2,0.8,0.5c0.2,0.3,0.4,0.6,0.5,0.8c0.4,0.7,0.8,1.4,1.3,2.1c0.4,0.7,0.8,1.3,1.3,2l6.9,11c0.3,0.4,0.5,0.9,0.8,1.3
			c0.2,0.4,0.5,0.9,0.8,1.3c0.2,0.3,0.4,0.6,0.5,0.8c0.2,0.3,0.4,0.5,0.8,0.6c0.2,0.1,0.4,0.1,0.7,0.1s0.5,0,0.8,0h2.5h1.6
			c0.2-0.1,0.5-0.1,0.6-0.2C1688.6,1516.1,1688.8,1516,1688.9,1515.8z M1648.7,1484.5c0.1-0.3,0.1-0.6-0.2-0.7
			c-0.2-0.1-0.4-0.2-0.6-0.2c-0.3,0-0.5,0-0.8,0h-2.6c-0.4,0-0.9,0-1.5,0c-0.6,0-1,0-1.3,0.2c-0.4,0.2-0.8,0.5-1.1,1.1
			c-0.3,0.5-0.5,1-0.8,1.4c-0.6,1.1-1.3,2.1-1.9,3.2c-0.6,1.1-1.2,2.1-1.9,3.2c-0.3,0.4-0.5,0.9-0.8,1.3c-0.2,0.4-0.5,0.8-0.8,1.3
			c-0.1,0.1-0.2,0.3-0.4,0.5c-0.2,0.2-0.3,0.3-0.6,0.2c-0.3-0.1-0.6-0.2-0.7-0.5c-0.2-0.3-0.3-0.6-0.5-0.8c-0.4-0.6-0.8-1.2-1.1-1.9
			c-0.3-0.6-0.7-1.2-1.1-1.9c-0.5-0.8-1-1.7-1.5-2.5c-0.5-0.8-0.9-1.7-1.5-2.5c-0.2-0.3-0.4-0.7-0.7-1.1c-0.2-0.4-0.5-0.7-0.8-0.9
			c-0.2-0.1-0.6-0.2-1-0.2s-0.8,0-1.2,0h-4c-0.1,0-0.1,0-0.2,0c-0.1,0-0.1,0-0.2,0c-0.1,0-0.2,0.1-0.3,0.1c-0.1,0-0.2,0.1-0.2,0.2
			c-0.1,0.2-0.1,0.5,0.1,0.8c0.2,0.3,0.3,0.5,0.4,0.6c0.3,0.6,0.7,1.2,1,1.8c0.3,0.6,0.7,1.2,1.1,1.8c0.8,1.3,1.5,2.5,2.2,3.8
			c0.7,1.3,1.5,2.5,2.3,3.8c0.2,0.3,0.5,0.7,0.6,1.1c0.2,0.4,0.4,0.7,0.6,1.1c0.3,0.5,0.6,1,0.9,1.5c0.3,0.5,0.6,1,0.8,1.4
			c0.2,0.3,0.5,0.7,0.7,1.1c0.2,0.4,0.4,0.8,0.5,1.2c0.1,0.2,0.1,0.3,0.1,0.5c0,0.2,0,0.4,0,0.6v1.8v6v1.8c0,0.3,0.1,0.6,0.1,0.9
			c0,0.2,0.1,0.5,0.2,0.6c0.2,0.2,0.4,0.3,0.6,0.3c0.3,0,0.6,0.1,0.9,0.1h3.2c0.3,0,0.6,0,0.8,0c0.3,0,0.5-0.1,0.7-0.2
			c0.4-0.2,0.5-0.7,0.5-1.3c0-0.7,0-1.3,0-1.9v-6v-1.4c0-0.1,0-0.2,0-0.4c0-0.1,0-0.2,0.1-0.3c0-0.2,0-0.3,0-0.4c0-0.1,0-0.3,0-0.4
			c0.1-0.4,0.3-0.8,0.5-1.1c0.2-0.3,0.4-0.7,0.7-1c0.3-0.5,0.6-1,0.9-1.5c0.3-0.5,0.6-1,0.9-1.5c1-1.7,2-3.3,3-5c1-1.7,2-3.3,3-5
			c0.4-0.6,0.7-1.2,1.1-1.8c0.4-0.6,0.7-1.2,1.1-1.8C1648.5,1485,1648.6,1484.8,1648.7,1484.5z M1607.3,1499.8c0-0.2,0-0.4,0-0.5
			c0-0.2,0-0.3,0-0.4v-0.5c-0.1-0.2-0.1-0.3-0.1-0.6c0-0.2,0-0.4-0.1-0.6c0-0.1,0-0.2,0-0.3c0-0.1,0-0.2,0-0.4
			c-0.1-0.4-0.2-0.9-0.2-1.3c0-0.4-0.1-0.8-0.3-1.2c-0.2-0.8-0.5-1.6-0.8-2.3c-0.3-0.7-0.7-1.4-1.1-2c-0.2-0.2-0.3-0.5-0.5-0.7
			c-0.2-0.2-0.4-0.5-0.5-0.7l-0.4-0.4c-0.2-0.3-0.5-0.6-0.8-0.8l-0.3-0.3c-0.7-0.5-1.3-0.9-2.1-1.4c-0.3-0.2-0.6-0.3-1-0.5
			s-0.7-0.3-1-0.4c-0.4-0.2-0.8-0.3-1.2-0.3c-0.4-0.1-0.8-0.2-1.2-0.2c-0.2-0.1-0.4-0.1-0.5-0.1c-0.2,0-0.3,0-0.5-0.1
			c-0.2-0.1-0.3-0.1-0.5-0.1c-0.2,0-0.4,0-0.5-0.1h-0.6c-0.2,0-0.3,0-0.5,0c-0.2,0-0.4,0-0.6,0h-12.4c-0.1,0-0.1,0-0.2,0
			c-0.1,0-0.1,0-0.2,0c-0.3,0.1-0.6,0.3-0.7,0.5c-0.2,0.2-0.2,0.6-0.2,1c0,0.4,0,0.8,0,1.2v27c0,0.3,0,0.8,0,1.3
			c0,0.5,0,0.9,0.1,1.1c0.2,0.4,0.4,0.6,0.8,0.6c0.3,0,0.8,0.1,1.3,0.1h10.7c0.3,0,0.6,0,1,0c0.4,0,0.7,0,0.9,0c0.1,0,0.1,0,0.3,0
			c0.1,0,0.2,0,0.3,0c0.2,0,0.3,0,0.4,0c0.1,0,0.2,0,0.4,0c0.2,0,0.3,0,0.4,0c0.1,0,0.3,0,0.4,0c0.3-0.1,0.7-0.2,1-0.2
			c0.3,0,0.6-0.1,0.9-0.2c0.8-0.2,1.5-0.5,2.1-0.8c0.7-0.3,1.3-0.7,1.9-1.1c1.1-0.7,2-1.6,2.8-2.7c0.8-1,1.4-2.2,1.9-3.5
			c0.2-0.5,0.3-0.9,0.5-1.4c0.1-0.5,0.3-1,0.4-1.5c0.1-0.3,0.2-0.7,0.2-1c0-0.3,0.1-0.7,0.1-1c0-0.2,0-0.3,0-0.5
			c0-0.2,0-0.3,0.1-0.5c0-0.2,0-0.4,0-0.6c0-0.2,0-0.4,0-0.6c0-0.1,0-0.2,0-0.3C1607.3,1500.2,1607.3,1500,1607.3,1499.8z
			 M1543.3,1488.7c0.1-0.2,0.1-0.4,0.1-0.6c0-0.2,0-0.4,0-0.6v-1.8c0-0.2,0-0.3,0-0.5c0-0.2,0-0.3,0-0.4v-0.2c0-0.2-0.1-0.3-0.1-0.4
			c-0.1-0.1-0.1-0.2-0.2-0.3c-0.2-0.2-0.6-0.2-0.9-0.3c-0.4,0-0.8,0-1.2,0h-4.7h-18.4h-0.2c-0.2,0.1-0.4,0.1-0.5,0.2
			c-0.2,0.2-0.4,0.4-0.4,0.7c0,0.3-0.1,0.7-0.1,1.1v2.2c0,0.2,0,0.5,0,0.7c0,0.2,0.1,0.4,0.2,0.6c0.1,0.2,0.3,0.3,0.6,0.4
			c0.2,0.1,0.6,0.1,1,0.1c0.4,0,0.8,0,1.1,0h4.3c0.7,0,1.2,0,1.7,0.1c0.5,0,0.8,0.3,0.9,0.8c0.1,0.1,0.1,0.2,0,0.4
			c0,0.1,0,0.3,0,0.4c0.1,0.2,0.1,0.4,0.1,0.6c0,0.2,0,0.5,0,0.7v3.9v12.8v4.6c0,0.4,0,0.8,0,1.2c0,0.4,0.1,0.7,0.2,0.9
			c0.2,0.2,0.4,0.3,0.7,0.3c0.3,0,0.6,0,0.9,0h3.1c0.2,0,0.5,0,0.8,0c0.3,0,0.5,0,0.7-0.1c0.3-0.2,0.5-0.4,0.6-0.8
			c0-0.4,0.1-0.8,0.1-1.3v-4.3v-13.2v-4.1c0-0.2,0-0.4,0-0.6c0-0.2,0-0.4,0-0.6c0.1-0.2,0.1-0.3,0-0.4c0-0.1,0-0.3,0-0.4
			c0.2-0.5,0.4-0.8,0.9-0.8c0.4,0,1-0.1,1.6-0.1h4.7c0.6,0,1.2,0,1.7,0C1542.8,1489.5,1543.1,1489.2,1543.3,1488.7z M1503.3,1515.8
			c0.1-0.2,0.2-0.4,0.2-0.8c0-0.3,0-0.7,0-1v-3.9v-19.2v-5.1c0-0.5,0-1,0-1.3c0-0.4-0.2-0.7-0.6-0.8c-0.2-0.1-0.4-0.1-0.6-0.1
			c-0.2,0-0.5,0-0.7,0h-2.8c-0.3,0-0.6,0-0.9,0.1c-0.3,0-0.5,0.1-0.6,0.4c-0.2,0.2-0.3,0.6-0.3,1v0.5c0,0.1,0,0.3,0,0.4
			c0,0.2,0,0.3,0,0.5v1.8v10.7v2.9c0,0.2,0,0.5,0,0.8c0,0.3,0,0.5,0,0.7c-0.1,0.2-0.1,0.5-0.1,0.7c0,0.2-0.1,0.4-0.3,0.4
			c-0.1,0.1-0.2,0.1-0.3,0c-0.1-0.1-0.2-0.1-0.2-0.2c-0.2-0.2-0.3-0.3-0.4-0.5c-0.1-0.2-0.2-0.4-0.3-0.6c-0.6-0.8-1.1-1.6-1.6-2.5
			c-0.5-0.8-1-1.7-1.5-2.5c-1.1-1.7-2.2-3.5-3.2-5.2c-1.1-1.7-2.2-3.5-3.2-5.2l-1.7-2.6c-0.2-0.2-0.3-0.5-0.5-0.7s-0.4-0.4-0.7-0.5
			c-0.2-0.1-0.5-0.2-0.9-0.2c-0.3,0-0.6,0-1,0h-3.7c-0.1,0-0.1,0-0.2,0c-0.1,0-0.1,0-0.2,0c-0.3,0.1-0.5,0.2-0.6,0.5
			c-0.1,0.2-0.2,0.5-0.2,0.9s0,0.7,0,1.1v4.3v18.4v5.3c0,0.5,0,1,0.1,1.4c0,0.4,0.3,0.7,0.7,0.8c0.2,0.1,0.4,0.1,0.7,0.1
			c0.2,0,0.5,0,0.7,0h2.8c0.3,0,0.6,0,0.9,0c0.3,0,0.5-0.1,0.6-0.3c0.1-0.2,0.2-0.6,0.2-1.1v-0.5c0.1-0.2,0.1-0.3,0.1-0.5
			c0-0.2,0-0.3,0-0.5v-1.8v-11v-3.2c0-0.4,0-0.8,0-1.1c0-0.3,0.1-0.5,0.4-0.7c0.3,0,0.6,0.2,0.8,0.5c0.2,0.3,0.4,0.6,0.5,0.8
			c0.4,0.7,0.9,1.4,1.3,2.1c0.4,0.7,0.8,1.3,1.3,2l6.9,11c0.3,0.4,0.5,0.9,0.8,1.3c0.3,0.4,0.5,0.9,0.8,1.3c0.2,0.3,0.4,0.6,0.6,0.8
			c0.2,0.3,0.4,0.5,0.8,0.6c0.2,0.1,0.4,0.1,0.7,0.1s0.5,0,0.8,0h2.5h1.6c0.2-0.1,0.4-0.1,0.6-0.2
			C1503.1,1516.1,1503.2,1516,1503.3,1515.8z M1461.7,1514.4v-2.1c0-0.2,0-0.5,0-0.7c0-0.2-0.1-0.4-0.1-0.5
			c-0.1-0.2-0.3-0.4-0.5-0.5c-0.2-0.1-0.4-0.1-0.6-0.1c-0.2,0-0.5,0-0.7,0h-2.4h-8.6h-1.9c-0.1,0-0.3,0-0.5,0c-0.2,0-0.3,0-0.5,0
			h-0.5c-0.2-0.1-0.3-0.1-0.4-0.1c-0.1,0-0.2-0.1-0.3-0.2c-0.2-0.2-0.3-0.4-0.4-0.7c-0.1-0.3-0.1-0.6-0.1-1v-2.6v-1.8
			c0-0.2,0-0.3,0-0.5s0-0.3,0-0.5c0.1-0.3,0.2-0.5,0.4-0.6c0.2-0.1,0.4-0.2,0.7-0.3c0.3,0,0.6-0.1,0.9,0c0.3,0,0.7,0,1.1,0h9
			c0.2,0,0.5,0,0.8,0c0.3,0,0.6,0,1,0c0.3,0,0.6,0,0.9-0.1c0.3,0,0.5-0.1,0.6-0.2c0.2-0.2,0.3-0.4,0.4-0.6c0.1-0.1,0.1-0.3,0.1-0.5
			c0-0.2,0-0.4,0-0.7c0-0.2,0-0.5,0-0.9s0-0.7,0-1c0-0.3-0.1-0.6-0.1-0.9c-0.1-0.3-0.2-0.5-0.3-0.6c-0.1-0.1-0.3-0.2-0.6-0.2
			s-0.6-0.1-0.8-0.1c-0.3,0-0.6,0-0.9,0c-0.3,0-0.6,0-0.8,0h-7.9h-2.5c-0.3,0-0.5,0-0.8,0c-0.2,0-0.5-0.1-0.7-0.2
			c-0.2-0.1-0.3-0.2-0.3-0.4c-0.1-0.2-0.1-0.4-0.2-0.6v-1.3v-2.6c0-0.4,0-0.7,0.1-1c0-0.3,0.2-0.5,0.4-0.7c0.1-0.1,0.3-0.2,0.6-0.2
			c0.3,0,0.6-0.1,0.9-0.1c0.3,0,0.6,0,1,0c0.3,0,0.6,0,0.8,0h8.3h3.2c0.3,0,0.6,0,0.9,0c0.3,0,0.5-0.1,0.7-0.2
			c0.2-0.1,0.4-0.4,0.5-0.7c0-0.3,0-0.5,0-0.7c0-0.2,0-0.4,0-0.7c0-0.2,0-0.5,0-0.7c0-0.2,0-0.4,0-0.7c0-0.2,0-0.5,0-0.7v-0.5
			c-0.1-0.1-0.1-0.2-0.1-0.4c0-0.1-0.1-0.2-0.1-0.3c-0.1-0.2-0.4-0.3-0.7-0.4c-0.3,0-0.7-0.1-1.1-0.1h-4h-17.2c-0.1,0-0.1,0-0.2,0
			c-0.1,0-0.1,0-0.2,0c-0.3,0.1-0.6,0.2-0.7,0.5c-0.1,0.2-0.2,0.4-0.2,0.6s0,0.5,0,0.8v2.8v10v12.5v3.3c0,0.3,0,0.6,0,0.8
			s0.1,0.5,0.2,0.7c0.1,0.2,0.4,0.4,0.7,0.4c0.3,0,0.7,0.1,1.1,0.1h3.6h13.6h3.4c0.3,0,0.7,0,0.9,0s0.5-0.1,0.7-0.2
			c0.2-0.2,0.4-0.4,0.4-0.7C1461.7,1515.1,1461.7,1514.7,1461.7,1514.4z M1421.3,1514.4v-4v-17.1v-6.9c0-0.5,0-1,0-1.5
			c0-0.5-0.2-0.8-0.5-1c-0.2-0.1-0.4-0.2-0.7-0.2s-0.6,0-0.8,0h-3.2h-3c-0.3,0-0.6,0-0.9,0c-0.3,0-0.5,0.1-0.7,0.2
			c-0.2,0.2-0.4,0.3-0.5,0.6c-0.1,0.2-0.2,0.5-0.3,0.7c-0.2,0.5-0.3,1-0.5,1.5c-0.2,0.5-0.3,1-0.5,1.4c-0.6,1.9-1.2,3.8-1.8,5.7
			c-0.6,1.9-1.2,3.8-1.8,5.6c-0.2,0.7-0.5,1.4-0.7,2.1c-0.2,0.7-0.4,1.4-0.7,2.1c-0.1,0.2-0.2,0.5-0.3,0.8c-0.1,0.3-0.3,0.5-0.5,0.5
			c-0.1,0.1-0.1,0.1-0.2,0.1c-0.1,0-0.1-0.1-0.2-0.1c-0.2-0.1-0.3-0.2-0.3-0.4c-0.1-0.2-0.1-0.3-0.2-0.5c-0.2-0.6-0.5-1.2-0.6-1.9
			c-0.2-0.6-0.4-1.3-0.7-1.9c-0.7-2-1.4-3.9-2-5.9c-0.6-2-1.3-3.9-2-5.9c-0.2-0.5-0.4-1-0.5-1.5c-0.2-0.5-0.3-1-0.5-1.5
			c-0.1-0.3-0.2-0.6-0.3-0.8s-0.2-0.5-0.5-0.7c-0.3-0.2-0.7-0.3-1.2-0.3c-0.5,0-1,0-1.5,0h-6c-0.1,0-0.1,0-0.2,0c-0.1,0-0.1,0-0.2,0
			c-0.4,0.1-0.6,0.2-0.7,0.5c-0.1,0.1-0.1,0.3-0.1,0.5c0,0.2,0,0.5,0,0.7c0,0.2,0,0.5,0,0.8c0,0.3,0,0.5,0,0.7v6.4v17.1v4
			c0,0.3,0,0.7,0,1c0,0.3,0.1,0.6,0.3,0.7c0.2,0.2,0.4,0.2,0.7,0.2c0.3,0,0.6,0,0.9,0h2.4c0.2,0,0.5,0,0.7,0c0.2,0,0.5,0,0.7-0.1
			c0.3-0.1,0.6-0.2,0.7-0.4c0.1-0.2,0.2-0.4,0.2-0.6c0-0.2,0-0.5,0-0.7v-2.2v-12.2c0-0.3,0.1-0.7,0.1-1c0-0.3,0-0.7,0-1
			c0-0.2,0-0.5,0-0.7c0-0.2,0-0.5,0.1-0.7c0.1-0.2,0.1-0.4,0.1-0.6c0-0.2,0.1-0.4,0.2-0.5c0.1-0.1,0.2-0.1,0.2,0
			c0.1,0,0.1,0.1,0.2,0.2c0.2,0.3,0.3,0.6,0.5,1.1c0.3,0.7,0.6,1.5,0.9,2.3c0.2,0.8,0.5,1.6,0.8,2.3c0.2,0.7,0.5,1.3,0.7,2
			c0.2,0.7,0.4,1.3,0.7,1.9c0.2,0.3,0.3,0.6,0.3,0.9c0.1,0.3,0.2,0.6,0.3,0.9c0,0.1,0.1,0.1,0.1,0.2c0,0.1,0,0.2,0.1,0.2
			c0.1,0.3,0.2,0.6,0.3,0.9c0.1,0.3,0.2,0.6,0.4,0.9c0,0.1,0,0.2,0.1,0.2c0,0.1,0,0.2,0.1,0.2c0.2,0.4,0.3,0.8,0.4,1.2
			c0.1,0.4,0.3,0.8,0.4,1.2l0.1,0.4c0.2,0.4,0.3,0.7,0.4,1.1c0.1,0.4,0.2,0.8,0.4,1.1c0.1,0.3,0.2,0.5,0.3,0.7
			c0.1,0.2,0.3,0.4,0.5,0.5c0.1,0.1,0.3,0.2,0.6,0.2c0.2,0,0.5,0,0.8,0s0.6,0,0.9,0c0.3,0,0.5,0,0.8,0h1.1c0.2-0.1,0.4-0.1,0.5-0.1
			c0.2,0,0.3-0.1,0.5-0.2c0.1-0.1,0.3-0.3,0.3-0.5c0.1-0.2,0.2-0.4,0.2-0.6c0.2-0.3,0.3-0.7,0.4-1c0.1-0.4,0.2-0.7,0.4-1
			c0.1-0.1,0.1-0.2,0.1-0.3c0-0.1,0-0.2,0.1-0.3c0.3-0.9,0.6-1.8,0.9-2.7c0.3-0.9,0.6-1.8,1-2.7c0.1-0.3,0.2-0.6,0.3-0.9
			c0.1-0.3,0.2-0.6,0.3-0.9c0.1-0.3,0.3-0.6,0.3-0.9c0.1-0.3,0.2-0.6,0.3-0.9c0.1-0.1,0.1-0.2,0.1-0.3s0-0.2,0.1-0.3
			c0.2-0.4,0.3-0.8,0.4-1.2s0.3-0.8,0.4-1.2c0.1-0.2,0.2-0.4,0.2-0.6c0-0.2,0.1-0.4,0.2-0.5c0.2-0.5,0.4-1,0.5-1.5s0.3-1,0.5-1.4
			c0.1-0.2,0.1-0.3,0.2-0.5c0.1-0.2,0.2-0.3,0.3-0.4c0,0,0.1-0.1,0.1-0.1c0-0.1,0.1-0.1,0.2,0c0.2,0.1,0.3,0.2,0.3,0.5
			c0,0.2,0,0.5,0.1,0.7c0.1,0.2,0.1,0.5,0.1,0.8c0,0.3,0,0.5,0,0.8c0,0.4,0,0.8,0,1.2s0,0.8,0,1.2v11.8v2.3c0,0.3,0,0.5,0,0.8
			c0,0.2,0.1,0.4,0.2,0.6c0.1,0.2,0.3,0.3,0.4,0.3c0.2,0,0.4,0.1,0.6,0.1h1.2h2.2c0.3,0,0.6,0,0.9,0c0.3,0,0.5-0.1,0.7-0.2
			c0.2-0.1,0.3-0.4,0.3-0.7C1421.3,1515,1421.3,1514.7,1421.3,1514.4z M1370.3,1515.8c0.1-0.2,0.2-0.4,0.2-0.8c0-0.3,0-0.7,0-1v-3.9
			v-19.2v-5.1c0-0.5,0-1-0.1-1.3c0-0.4-0.2-0.7-0.6-0.8c-0.2-0.1-0.4-0.1-0.7-0.1c-0.2,0-0.5,0-0.7,0h-2.8c-0.3,0-0.6,0-0.9,0.1
			c-0.3,0-0.5,0.1-0.6,0.4c-0.2,0.2-0.3,0.6-0.3,1v0.5c0,0.1,0,0.3,0,0.4c0,0.2,0,0.3,0,0.5v1.8v10.7v2.9c0,0.2,0,0.5,0,0.8
			c0,0.3,0,0.5,0,0.7c-0.1,0.2-0.1,0.5-0.1,0.7c0,0.2-0.1,0.4-0.3,0.4c-0.1,0.1-0.2,0.1-0.3,0c-0.1-0.1-0.2-0.1-0.2-0.2
			c-0.2-0.2-0.3-0.3-0.4-0.5c-0.1-0.2-0.2-0.4-0.3-0.6c-0.6-0.8-1.1-1.6-1.6-2.5c-0.5-0.8-1-1.7-1.5-2.5c-1.1-1.7-2.1-3.5-3.2-5.2
			c-1.1-1.7-2.2-3.5-3.2-5.2l-1.7-2.6c-0.2-0.2-0.3-0.5-0.5-0.7c-0.2-0.2-0.4-0.4-0.7-0.5c-0.2-0.1-0.5-0.2-0.8-0.2
			c-0.3,0-0.7,0-1,0h-3.7c-0.1,0-0.1,0-0.2,0c-0.1,0-0.1,0-0.2,0c-0.3,0.1-0.5,0.2-0.7,0.5c-0.1,0.2-0.2,0.5-0.2,0.9s0,0.7,0,1.1
			v4.3v18.4v5.3c0,0.5,0,1,0.1,1.4c0,0.4,0.3,0.7,0.7,0.8c0.2,0.1,0.4,0.1,0.6,0.1c0.2,0,0.5,0,0.7,0h2.8c0.3,0,0.6,0,0.9,0
			c0.3,0,0.5-0.1,0.6-0.3c0.2-0.2,0.2-0.6,0.2-1.1v-0.5c0.1-0.2,0.1-0.3,0.1-0.5c0-0.2,0-0.3,0-0.5v-1.8v-11v-3.2c0-0.4,0-0.8,0-1.1
			c0-0.3,0.1-0.5,0.4-0.7c0.3,0,0.6,0.2,0.8,0.5c0.2,0.3,0.4,0.6,0.5,0.8c0.4,0.7,0.8,1.4,1.3,2.1c0.4,0.7,0.8,1.3,1.3,2l6.9,11
			c0.3,0.4,0.5,0.9,0.8,1.3c0.3,0.4,0.5,0.9,0.8,1.3c0.2,0.3,0.4,0.6,0.5,0.8c0.2,0.3,0.5,0.5,0.8,0.6c0.2,0.1,0.4,0.1,0.7,0.1
			s0.5,0,0.8,0h2.5h1.6c0.2-0.1,0.5-0.1,0.6-0.2C1370,1516.1,1370.2,1516,1370.3,1515.8z M1328.6,1500.8c0.1-0.2,0.1-0.5,0.1-0.9
			c0-0.4-0.1-0.8-0.1-0.9v-0.4c0-0.2,0-0.3,0-0.5c0-0.2,0-0.4-0.1-0.6c-0.1-0.2-0.1-0.4-0.1-0.6c0-0.2,0-0.4-0.1-0.6
			c-0.1-0.3-0.2-0.7-0.2-1c-0.1-0.3-0.1-0.6-0.2-0.9c-0.1-0.5-0.3-0.9-0.4-1.3c-0.1-0.4-0.3-0.8-0.5-1.2c-0.2-0.6-0.5-1.1-0.9-1.6
			c-0.3-0.5-0.7-1-1-1.5c-0.1-0.2-0.3-0.3-0.4-0.5c-0.2-0.2-0.3-0.3-0.5-0.5c-0.3-0.4-0.6-0.7-1.1-1.1c-0.4-0.3-0.8-0.7-1.2-0.9
			c-1.3-0.9-2.7-1.6-4.3-2.1c-1.6-0.5-3.5-0.7-5.6-0.7c-0.1,0-0.1,0-0.2,0c-0.1,0-0.2,0-0.2,0l-1.4,0.1c-0.2,0-0.3,0-0.4,0
			s-0.3,0-0.4,0.1c-0.4,0.1-0.9,0.2-1.3,0.3c-0.4,0.1-0.9,0.2-1.3,0.4c-1.7,0.7-3.2,1.6-4.4,2.5c-1.2,1-2.2,2.2-3.2,3.7
			c-0.3,0.5-0.6,0.9-0.8,1.5c-0.2,0.5-0.5,1-0.7,1.6c-0.2,0.5-0.3,1-0.4,1.5c-0.1,0.5-0.2,1-0.4,1.5c-0.1,0.2-0.1,0.3-0.1,0.5
			s0,0.3-0.1,0.5c-0.1,0.2-0.1,0.4-0.1,0.6c0,0.2,0,0.4-0.1,0.6v0.3c0,0.2,0,0.3,0,0.4s0,0.3,0,0.4c-0.1,0.2-0.1,0.4-0.1,0.7
			c0,0.3,0,0.6,0.1,0.7c0,0.2,0,0.4,0,0.6c0,0.2,0,0.4,0,0.6c0.1,0.1,0.1,0.2,0.1,0.4c0,0.1,0,0.3,0,0.4c0.1,0.2,0.1,0.5,0.1,0.7
			c0,0.2,0.1,0.4,0.1,0.7c0,0.1,0.1,0.2,0.1,0.3c0,0.1,0,0.2,0.1,0.4c0.2,0.5,0.3,1,0.4,1.5c0.1,0.5,0.3,0.9,0.5,1.3
			c0.8,1.8,1.8,3.4,3.1,4.8s2.8,2.4,4.7,3.2c0.3,0.2,0.7,0.3,1,0.4c0.3,0.1,0.7,0.2,1,0.4c0.2,0.1,0.5,0.1,0.7,0.2
			c0.2,0,0.5,0.1,0.7,0.2c0.2,0.1,0.5,0.1,0.7,0.1c0.2,0,0.5,0,0.7,0.1h0.5c0.1,0,0.3,0,0.4,0c0.1,0,0.3,0,0.4,0
			c0.1,0,0.3,0.1,0.6,0.1c0.3,0,0.5,0,0.6,0l1.5-0.1c0.2,0,0.3-0.1,0.5-0.1c0.2,0,0.3,0,0.5-0.1c0.3-0.1,0.7-0.1,1-0.2
			c0.3-0.1,0.7-0.2,1-0.3c2.3-0.8,4.2-1.9,5.8-3.3c1.6-1.4,2.8-3.2,3.7-5.4c0.2-0.5,0.4-1,0.5-1.5c0.1-0.5,0.3-1.1,0.4-1.6
			c0.1-0.2,0.1-0.4,0.1-0.6c0-0.2,0.1-0.4,0.1-0.7c0.1-0.3,0.1-0.7,0.1-1c0-0.3,0-0.7,0.1-1V1500.8z M1283.1,1515.8
			c0.1-0.2,0.1-0.3,0-0.5c-0.1-0.2-0.1-0.5-0.2-0.8c-0.1-0.3-0.1-0.6-0.2-0.8l-0.1-0.8c-0.1-0.3-0.1-0.6-0.1-1c0-0.3,0-0.7-0.1-1
			c0-0.2,0-0.3,0-0.4c0-0.1,0-0.2,0-0.4c0-0.1,0-0.3,0-0.4c0-0.1,0-0.3,0-0.4c0-0.2,0-0.4,0-0.5c0-0.2,0-0.3,0-0.5
			c-0.1-0.3-0.1-0.6-0.1-0.9c0-0.3-0.1-0.6-0.1-0.9c-0.2-0.7-0.4-1.3-0.6-1.9c-0.2-0.6-0.5-1.1-0.9-1.6c-0.2-0.3-0.5-0.6-0.8-0.9
			c-0.3-0.2-0.6-0.5-0.9-0.7c-0.1-0.1-0.2-0.1-0.3-0.3c-0.1-0.1-0.2-0.3-0.1-0.5c0.1-0.2,0.2-0.3,0.3-0.4c0.1-0.1,0.2-0.2,0.4-0.3
			c0.2-0.2,0.4-0.3,0.6-0.5c0.2-0.1,0.4-0.3,0.5-0.4c0.1-0.1,0.2-0.2,0.3-0.3c0.1-0.1,0.2-0.2,0.3-0.4c0.1-0.1,0.1-0.2,0.2-0.3
			s0.2-0.2,0.2-0.3c0.2-0.4,0.4-0.8,0.6-1.2c0.1-0.4,0.3-0.8,0.5-1.3c0.1-0.2,0.1-0.4,0.1-0.6c0-0.2,0-0.4,0.1-0.7
			c0.1-0.2,0.1-0.5,0.1-0.9c0-0.3,0-0.6,0-0.9v-0.4c-0.1-0.1-0.1-0.2-0.1-0.4c0-0.1,0-0.2,0-0.4c-0.1-0.6-0.3-1.1-0.4-1.5
			c-0.1-0.5-0.3-0.9-0.6-1.3c-0.1-0.2-0.2-0.3-0.3-0.5c-0.1-0.2-0.2-0.3-0.3-0.5c-0.4-0.6-1-1.2-1.6-1.7s-1.3-0.9-2.1-1.2
			c-0.2-0.1-0.4-0.2-0.7-0.2c-0.2-0.1-0.4-0.1-0.6-0.2c-0.2-0.1-0.3-0.1-0.5-0.1c-0.2,0-0.3,0-0.5-0.1c-0.4-0.1-0.8-0.1-1.3-0.2
			c-0.4,0-0.9,0-1.4,0h-15.6c-0.1,0-0.1,0-0.2,0c-0.1,0-0.1,0-0.2,0c-0.3,0.1-0.6,0.3-0.7,0.5c-0.2,0.2-0.2,0.5-0.2,0.9
			c0,0.4,0,0.7,0,1.1v27.9c0,0.4,0,0.8,0,1.2c0,0.4,0.1,0.7,0.4,0.8c0.3,0.2,0.7,0.3,1.2,0.3c0.6,0,1.1,0,1.6,0h2.1
			c0.2,0,0.5,0,0.7,0c0.2,0,0.4,0,0.5-0.1c0.3-0.1,0.5-0.3,0.6-0.6c0.1-0.1,0.1-0.3,0.1-0.5c0-0.2,0-0.4,0-0.7c0-0.2,0-0.5,0-0.8
			c0-0.3,0-0.5,0-0.8v-5.9c0-0.5,0-1.1-0.1-1.8c0-0.6,0.1-1.1,0.3-1.4c0.1-0.1,0.3-0.2,0.5-0.3c0.2,0,0.4-0.1,0.6-0.1h3.8
			c0.7,0,1.4,0,2.1,0c0.7,0,1.4,0.1,1.9,0.3c0.2,0.1,0.4,0.1,0.5,0.1c0.2,0,0.3,0.1,0.5,0.1c0.6,0.3,1.1,0.7,1.4,1.2
			c0.3,0.6,0.6,1.2,0.9,1.9c0.1,0.3,0.2,0.7,0.2,1c0,0.3,0.1,0.7,0.2,1c0,0.2,0,0.3,0.1,0.4c0.1,0.3,0.1,0.7,0.1,1.1
			c0,0.4,0,0.8,0.1,1.2c0,0.1,0,0.2,0,0.3c0,0.1,0,0.2,0,0.3c0.1,0.5,0.2,1.1,0.2,1.7c0,0.6,0.2,1.1,0.4,1.5
			c0.2,0.3,0.5,0.5,0.8,0.5c0.4,0,0.8,0.1,1.3,0.1h2.5c0.3,0,0.7,0,1,0c0.3,0,0.6-0.1,0.8-0.2
			C1282.9,1516.1,1283,1516,1283.1,1515.8z M1239.6,1515.9c0.2-0.2,0.2-0.6,0.2-1.1c0-0.5,0-0.9,0-1.3v-7.5v-16v-4
			c0-0.4,0-0.8,0-1.1c0-0.3-0.1-0.6-0.2-0.8c-0.2-0.2-0.4-0.3-0.7-0.3c-0.3,0-0.6,0-1,0h-3.9c-0.1,0-0.1,0-0.2,0c-0.1,0-0.2,0-0.3,0
			c-0.3,0.1-0.5,0.3-0.6,0.5c-0.2,0.2-0.2,0.7-0.2,1.2c0,0.6,0,1.1,0,1.5v6.7v16.8v4c0,0.3,0,0.7,0,1c0,0.3,0.1,0.5,0.3,0.7
			c0.2,0.2,0.4,0.2,0.7,0.3c0.3,0,0.6,0,0.9,0h2.7c0.2,0,0.5,0,0.7,0c0.2,0,0.5,0,0.7,0C1239.2,1516.3,1239.5,1516.1,1239.6,1515.9z
			 M1220.3,1484.7c0.1-0.4,0-0.7-0.3-0.8c-0.2-0.1-0.4-0.2-0.7-0.2c-0.3,0-0.6,0-0.9,0h-3.1c-0.3,0-0.6,0-0.9,0s-0.5,0.1-0.8,0.2
			c-0.2,0.2-0.4,0.3-0.5,0.6c-0.1,0.2-0.2,0.5-0.3,0.7c-0.1,0.5-0.3,1-0.5,1.5c-0.2,0.5-0.3,1-0.5,1.4c-0.7,2-1.3,4-2,6
			s-1.3,4-1.9,6c-0.2,0.7-0.5,1.4-0.7,2.1c-0.2,0.7-0.4,1.3-0.6,2c-0.1,0.2-0.2,0.5-0.3,0.8s-0.3,0.4-0.7,0.4
			c-0.1-0.1-0.1-0.1-0.2-0.1c0,0-0.1,0-0.1-0.1c-0.2-0.2-0.3-0.5-0.4-0.7c-0.1-0.3-0.2-0.6-0.3-0.8c-0.2-0.5-0.3-1-0.5-1.6
			c-0.2-0.5-0.3-1-0.5-1.6c-0.6-1.9-1.2-3.8-1.8-5.7c-0.6-1.9-1.2-3.8-1.8-5.7c-0.2-0.6-0.4-1.2-0.6-1.8c-0.2-0.6-0.4-1.2-0.6-1.7
			c-0.1-0.3-0.2-0.7-0.3-1c-0.1-0.3-0.3-0.6-0.6-0.7c-0.2-0.2-0.5-0.2-0.8-0.2s-0.7,0-1,0h-3.7c-0.1,0-0.1,0-0.2,0
			c-0.1,0-0.2,0-0.2,0c-0.3,0.1-0.5,0.2-0.6,0.4c-0.1,0.1-0.1,0.3-0.1,0.4c0,0.2,0,0.3,0.1,0.5c0.1,0.3,0.2,0.6,0.3,0.8
			s0.2,0.5,0.2,0.8c0.3,0.9,0.6,1.7,0.8,2.6s0.5,1.7,0.8,2.6c0.1,0.3,0.2,0.5,0.3,0.8c0.1,0.3,0.2,0.6,0.3,0.8
			c0.3,0.9,0.6,1.7,0.8,2.6c0.3,0.9,0.5,1.8,0.8,2.6c0.7,2,1.3,3.9,1.9,5.9c0.6,2,1.2,3.9,1.9,5.8c0.2,0.6,0.4,1.3,0.6,1.9
			c0.2,0.7,0.4,1.3,0.6,2c0.1,0.4,0.2,0.7,0.3,1.1c0.1,0.4,0.3,0.7,0.7,0.8c0.2,0.2,0.6,0.2,0.9,0.2c0.4,0,0.7,0,1.1,0h3.3
			c0.3,0,0.6,0,0.9,0c0.3,0,0.6,0,0.8-0.1c0.5-0.1,0.8-0.4,0.9-0.7s0.3-0.7,0.5-1.2c0.2-0.7,0.5-1.4,0.7-2.1
			c0.2-0.7,0.5-1.4,0.7-2.1c0.8-2.5,1.7-5,2.5-7.5c0.8-2.5,1.7-5,2.5-7.5c0.2-0.7,0.5-1.3,0.7-2c0.2-0.7,0.4-1.3,0.7-2
			c0.1-0.2,0.1-0.4,0.2-0.5c0.1-0.2,0.1-0.4,0.2-0.6c0.2-0.7,0.5-1.5,0.7-2.2s0.5-1.5,0.8-2.2
			C1220.1,1485.4,1220.2,1485.1,1220.3,1484.7z M1178.9,1515.8c0.1-0.2,0.2-0.4,0.2-0.8c0-0.3,0-0.7,0-1v-3.9v-19.2v-5.1
			c0-0.5,0-1,0-1.3c0-0.4-0.2-0.7-0.6-0.8c-0.2-0.1-0.4-0.1-0.6-0.1c-0.2,0-0.5,0-0.7,0h-2.8c-0.3,0-0.6,0-0.9,0.1
			c-0.3,0-0.5,0.1-0.6,0.4c-0.2,0.2-0.3,0.6-0.3,1v0.5c0,0.1,0,0.3,0,0.4c0,0.2,0,0.3,0,0.5v1.8v10.7v2.9c0,0.2,0,0.5,0,0.8
			c0,0.3,0,0.5,0,0.7c-0.1,0.2-0.1,0.5-0.1,0.7c0,0.2-0.1,0.4-0.3,0.4c-0.1,0.1-0.2,0.1-0.3,0c-0.1-0.1-0.2-0.1-0.2-0.2
			c-0.2-0.2-0.3-0.3-0.4-0.5c-0.1-0.2-0.2-0.4-0.3-0.6c-0.6-0.8-1.1-1.6-1.6-2.5c-0.5-0.8-1-1.7-1.5-2.5c-1.1-1.7-2.2-3.5-3.2-5.2
			c-1.1-1.7-2.2-3.5-3.2-5.2l-1.7-2.6c-0.2-0.2-0.3-0.5-0.5-0.7c-0.2-0.2-0.4-0.4-0.7-0.5c-0.2-0.1-0.5-0.2-0.8-0.2
			c-0.3,0-0.7,0-1,0h-3.7c-0.1,0-0.1,0-0.2,0c-0.1,0-0.1,0-0.2,0c-0.3,0.1-0.5,0.2-0.7,0.5c-0.1,0.2-0.2,0.5-0.2,0.9s0,0.7,0,1.1
			v4.3v18.4v5.3c0,0.5,0,1,0.1,1.4c0,0.4,0.3,0.7,0.7,0.8c0.2,0.1,0.4,0.1,0.7,0.1c0.2,0,0.5,0,0.7,0h2.8c0.3,0,0.6,0,0.9,0
			c0.3,0,0.5-0.1,0.6-0.3c0.2-0.2,0.2-0.6,0.2-1.1v-0.5c0.1-0.2,0.1-0.3,0.1-0.5c0-0.2,0-0.3,0-0.5v-1.8v-11v-3.2c0-0.4,0-0.8,0-1.1
			c0-0.3,0.2-0.5,0.4-0.7c0.3,0,0.6,0.2,0.8,0.5c0.2,0.3,0.4,0.6,0.5,0.8c0.4,0.7,0.8,1.4,1.3,2.1c0.4,0.7,0.8,1.3,1.3,2l6.9,11
			c0.3,0.4,0.6,0.9,0.8,1.3c0.3,0.4,0.5,0.9,0.8,1.3c0.2,0.3,0.4,0.6,0.6,0.8c0.2,0.3,0.4,0.5,0.8,0.6c0.2,0.1,0.4,0.1,0.7,0.1
			s0.5,0,0.8,0h2.5h1.6c0.2-0.1,0.4-0.1,0.6-0.2C1178.6,1516.1,1178.7,1516,1178.9,1515.8z M1137.2,1514.4v-2.1c0-0.2,0-0.5,0-0.7
			c0-0.2-0.1-0.4-0.1-0.5c-0.1-0.2-0.3-0.4-0.5-0.5c-0.2-0.1-0.4-0.1-0.6-0.1c-0.2,0-0.5,0-0.7,0h-2.4h-8.6h-1.9c-0.1,0-0.3,0-0.5,0
			c-0.2,0-0.4,0-0.5,0h-0.5c-0.2-0.1-0.3-0.1-0.4-0.1c-0.1,0-0.3-0.1-0.4-0.2c-0.2-0.2-0.3-0.4-0.4-0.7c0-0.3-0.1-0.6-0.1-1v-2.6
			v-1.8c0-0.2,0-0.3,0-0.5s0-0.3,0.1-0.5c0.1-0.3,0.2-0.5,0.4-0.6c0.2-0.1,0.5-0.2,0.7-0.3c0.3,0,0.6-0.1,0.9,0c0.3,0,0.7,0,1.1,0h9
			c0.2,0,0.5,0,0.8,0c0.3,0,0.6,0,1,0c0.3,0,0.6,0,0.9-0.1c0.3,0,0.5-0.1,0.6-0.2c0.2-0.2,0.3-0.4,0.4-0.6c0.1-0.1,0.1-0.3,0.1-0.5
			c0-0.2,0-0.4,0-0.7c0-0.2,0-0.5,0-0.9c0-0.3,0-0.7,0-1c0-0.3-0.1-0.6-0.1-0.9c-0.1-0.3-0.2-0.5-0.3-0.6c-0.1-0.1-0.3-0.2-0.6-0.2
			s-0.5-0.1-0.8-0.1c-0.3,0-0.6,0-0.9,0c-0.3,0-0.6,0-0.8,0h-7.9h-2.5c-0.3,0-0.5,0-0.8,0c-0.2,0-0.5-0.1-0.6-0.2
			c-0.2-0.1-0.3-0.2-0.3-0.4c-0.1-0.2-0.1-0.4-0.2-0.6v-1.3v-2.6c0-0.4,0-0.7,0.1-1c0.1-0.3,0.2-0.5,0.4-0.7
			c0.1-0.1,0.3-0.2,0.6-0.2c0.3,0,0.6-0.1,0.9-0.1c0.3,0,0.7,0,1,0c0.3,0,0.6,0,0.8,0h8.3h3.2c0.3,0,0.6,0,0.9,0
			c0.3,0,0.5-0.1,0.7-0.2c0.2-0.1,0.4-0.4,0.5-0.7c0-0.3,0-0.5,0-0.7c0-0.2,0-0.4,0-0.7c0-0.2,0-0.5,0-0.7c0-0.2,0-0.4,0-0.7
			c0-0.2,0-0.5,0-0.7v-0.5c-0.1-0.1-0.1-0.2-0.1-0.4c0-0.1-0.1-0.2-0.1-0.3c-0.2-0.2-0.4-0.3-0.7-0.4c-0.3,0-0.7-0.1-1.1-0.1h-4
			h-17.2c-0.1,0-0.1,0-0.2,0c-0.1,0-0.1,0-0.2,0c-0.3,0.1-0.6,0.2-0.7,0.5c-0.1,0.2-0.2,0.4-0.2,0.6s0,0.5,0,0.8v2.8v10v12.5v3.3
			c0,0.3,0,0.6,0,0.8s0.1,0.5,0.2,0.7c0.2,0.2,0.4,0.4,0.7,0.4c0.3,0,0.7,0.1,1.1,0.1h3.6h13.6h3.4c0.3,0,0.7,0,0.9,0
			s0.5-0.1,0.7-0.2c0.2-0.2,0.4-0.4,0.4-0.7C1137.2,1515.1,1137.2,1514.7,1137.2,1514.4z"/>
		<path class="st0" d="M1721,1502.9c0,0.4-0.2,0.6-0.6,0.8c-0.2,0.1-0.5,0.1-0.9,0.1c-0.3,0-0.7,0-0.9,0h-3.5c-0.4,0-0.7,0-1.1-0.1
			c-0.4,0-0.6-0.1-0.8-0.4c-0.1-0.3-0.1-0.6,0-0.8c0.1-0.3,0.2-0.7,0.3-1c0.1-0.3,0.2-0.6,0.3-0.9c0.3-0.9,0.7-1.8,0.9-2.7
			c0.3-0.9,0.6-1.8,1-2.6c0.2-0.4,0.3-0.8,0.4-1.2c0.1-0.4,0.3-0.8,0.5-1.1c0.1-0.1,0.1-0.1,0.2-0.1c0.1,0,0.1-0.1,0.2-0.1
			c0.2,0,0.3,0.1,0.5,0.2c0.1,0.2,0.2,0.3,0.3,0.5c0.1,0.2,0.2,0.4,0.2,0.7c0.1,0.2,0.1,0.4,0.2,0.6c0.4,1.1,0.8,2.1,1.1,3.2
			c0.3,1.1,0.7,2.1,1.1,3.2c0.1,0.1,0.1,0.2,0.1,0.3s0,0.2,0.1,0.3C1720.9,1502.2,1721,1502.5,1721,1502.9z"/>
		<path class="st0" d="M1600.1,1499.7c0.1,0.1,0.1,0.4,0.1,0.7c0,0.3,0,0.6-0.1,0.7v0.5c-0.1,0.2-0.1,0.5-0.1,0.7
			c0,0.2,0,0.5-0.1,0.7v0.4c-0.1,0.3-0.2,0.6-0.2,0.9c-0.1,0.3-0.2,0.6-0.3,0.8c-0.5,1.1-1,2.1-1.7,2.8c-0.7,0.8-1.6,1.4-2.7,1.8
			c-0.9,0.3-1.9,0.5-3.1,0.5c-1.2,0-2.4,0-3.6,0c-0.6,0-1.1,0-1.6,0s-0.9-0.2-1.1-0.6c-0.1-0.2-0.1-0.3-0.1-0.5c0-0.2,0-0.4,0-0.6
			v-0.5c-0.1-0.2-0.1-0.3-0.1-0.6c0-0.2,0-0.4,0-0.6v-12.8c0-0.4,0-0.9,0-1.3c0-0.4,0-0.8,0-1.2c0-0.3,0-0.6,0-0.9
			c0-0.3,0.1-0.5,0.2-0.6c0.1-0.2,0.2-0.2,0.4-0.3c0.2-0.1,0.3-0.1,0.5-0.2c0.1,0,0.2,0,0.3,0c0.1,0,0.2,0,0.3-0.1h2.1
			c0.2,0,0.4,0,0.6,0c0.2,0,0.3,0,0.5,0h1c0.1,0,0.2,0,0.3,0c0.1,0,0.2,0,0.4,0c0.2,0.1,0.5,0.1,0.7,0.1c0.2,0,0.4,0,0.7,0.1
			c0.3,0.1,0.5,0.1,0.8,0.2c0.3,0.1,0.6,0.2,0.8,0.2c0.9,0.4,1.6,0.8,2.2,1.4c0.6,0.5,1.1,1.2,1.6,1.9c0.2,0.4,0.4,0.8,0.6,1.3
			c0.1,0.4,0.3,0.9,0.4,1.4c0.1,0.2,0.1,0.3,0.1,0.4c0,0.1,0,0.3,0.1,0.4c0.1,0.2,0.1,0.5,0.1,0.8c0,0.3,0.1,0.6,0.1,0.9V1499.7z"/>
		<path class="st0" d="M1321.4,1499.5c0.1,0.2,0.1,0.4,0.1,0.7c0,0.3,0,0.5-0.1,0.7v0.4c0,0.2,0,0.3,0,0.4s0,0.3,0,0.4l-0.1,1.1
			c-0.1,0.4-0.2,0.8-0.3,1.2c-0.1,0.4-0.2,0.8-0.3,1.1c-0.5,1.3-1.2,2.4-1.9,3.2c-0.8,0.8-1.8,1.5-3.1,2c-0.3,0.1-0.6,0.2-0.9,0.2
			c-0.3,0-0.6,0.1-0.9,0.2c-0.2,0.1-0.3,0.1-0.4,0.1c-0.1,0-0.3,0-0.4,0h-0.4c-0.2,0-0.4,0-0.6,0c-0.2,0-0.4,0-0.6-0.1
			c-0.2,0-0.3,0-0.4,0c-0.1,0-0.3,0-0.4-0.1c-0.4-0.1-0.8-0.2-1.2-0.4c-0.4-0.1-0.7-0.3-1.1-0.5c-0.2-0.1-0.4-0.2-0.5-0.3
			c-0.2-0.1-0.3-0.2-0.5-0.4c-0.7-0.5-1.4-1.2-1.8-2c-0.5-0.8-0.9-1.8-1.2-2.7c-0.1-0.3-0.2-0.6-0.2-1c0-0.3-0.1-0.7-0.2-1
			c0-0.1,0-0.2,0-0.3c0-0.1,0-0.2,0-0.3c0-0.1,0-0.2,0-0.4s0-0.3,0-0.4v-0.5c-0.1-0.2-0.1-0.4-0.1-0.8c0-0.4,0-0.7,0.1-0.8
			c0-0.2,0-0.3,0-0.5c0-0.2,0-0.3,0-0.5c0-0.1,0-0.2,0-0.3s0-0.2,0.1-0.4c0.1-0.3,0.2-0.7,0.2-1c0-0.3,0.1-0.7,0.2-1
			c0.5-1.4,1.1-2.6,1.8-3.5c0.8-1,1.8-1.8,3-2.3c0.3-0.1,0.6-0.2,0.9-0.3c0.3-0.1,0.7-0.1,1-0.2c0.2-0.1,0.3-0.1,0.4-0.1
			c0.1,0,0.2,0,0.4,0c0.1,0,0.1,0,0.2,0c0.1,0,0.1,0,0.2,0c2.3,0,4,0.5,5.3,1.4c1.3,1,2.2,2.2,2.9,3.8c0.2,0.3,0.3,0.7,0.4,1
			c0.1,0.3,0.2,0.7,0.3,1c0.1,0.2,0.1,0.3,0.1,0.5c0.1,0.2,0.1,0.4,0.1,0.7c0,0.2,0.1,0.5,0.1,0.7c0.1,0.1,0.1,0.2,0.1,0.3
			c0,0.1,0,0.2,0,0.3V1499.5z"/>
		<path class="st0" d="M1275.5,1493.4c0,0.5,0,0.9,0,1.2c-0.1,0.4-0.2,0.8-0.3,1.2c-0.1,0.3-0.2,0.6-0.4,0.9c-0.3,0.4-0.6,0.7-1,1
			c-0.4,0.2-0.9,0.4-1.4,0.6c-0.2,0.1-0.4,0.1-0.7,0.1s-0.5,0-0.7,0.1h-0.6c-0.2,0.1-0.4,0.1-0.6,0.1c-0.2,0-0.5,0-0.7,0h-2.7
			c-0.3,0-0.6,0-1,0c-0.4,0-0.7,0-1.1,0c-0.3,0-0.7-0.1-0.9-0.1c-0.3-0.1-0.5-0.2-0.6-0.4c-0.2-0.2-0.2-0.5-0.2-0.9
			c0-0.4,0-0.7,0-1.1v-4.3c0-0.4,0-0.7,0-1.1c0-0.4,0.1-0.7,0.2-0.9c0.1-0.2,0.4-0.4,0.7-0.5c0.1,0,0.1,0,0.2,0c0.1,0,0.1,0,0.2-0.1
			h5.3c0.7,0,1.4,0,2.1,0c0.7,0,1.3,0.2,1.8,0.4c1,0.4,1.7,1.1,2,2.1c0.1,0.1,0.1,0.2,0.1,0.3c0,0.1,0,0.2,0.1,0.3
			C1275.4,1492.5,1275.5,1492.9,1275.5,1493.4z"/>
	</g>
	<g>
	</g>
</g>
</svg>
