<?xml version="1.0" encoding="utf-8"?>
<!-- Generator: Adobe Illustrator 20.1.0, SVG Export Plug-In . SVG Version: 6.00 Build 0)  -->
<!DOCTYPE svg PUBLIC "-//W3C//DTD SVG 1.1//EN" "http://www.w3.org/Graphics/SVG/1.1/DTD/svg11.dtd">
<svg version="1.1" id="Layer_1" xmlns="http://www.w3.org/2000/svg" xmlns:xlink="http://www.w3.org/1999/xlink" x="0px" y="0px"
	 viewBox="0 0 4000 4000" style="enable-background:new 0 0 4000 4000;" xml:space="preserve">
<style type="text/css">
	.st0{opacity:0.8;}
</style>
<title>Cover</title>
<g id="XMLID_1_" class="st0">
	<g>
		<path d="M2025.3,1952.6h7.1c0.2,0,0.3-0.1,0.4-0.2s0.2-0.2,0.2-0.4v-3.1c0-0.2-0.1-0.3-0.2-0.4c-0.1-0.1-0.2-0.2-0.4-0.2h-11.7
			c-0.2,0-0.3,0.1-0.4,0.2c-0.1,0.1-0.2,0.2-0.2,0.4v15.7c0,0.1,0.1,0.3,0.2,0.4c0.1,0.1,0.2,0.2,0.4,0.2h11.7c0.2,0,0.3,0,0.4-0.2
			c0.1-0.1,0.2-0.2,0.2-0.4v-3.2c0-0.2-0.1-0.3-0.2-0.4s-0.2-0.2-0.4-0.2h-7.1c-0.2,0-0.3-0.1-0.4-0.2c-0.1-0.1-0.2-0.2-0.2-0.4
			v-0.9c0-0.2,0.1-0.3,0.2-0.4c0.1-0.1,0.2-0.2,0.4-0.2h6.2c0.2,0,0.3-0.1,0.4-0.2c0.1-0.1,0.2-0.2,0.2-0.4v-3.2
			c0-0.2,0-0.3-0.2-0.4c-0.1-0.1-0.2-0.2-0.4-0.2h-6.2c-0.2,0-0.3,0-0.4-0.2c-0.1-0.1-0.2-0.2-0.2-0.4v-1c0-0.2,0.1-0.3,0.2-0.4
			C2025,1952.6,2025.2,1952.6,2025.3,1952.6z M4000,0v4000H0V0H4000z M2125,2048v-14c0-0.7-0.2-1.2-0.7-1.7s-1.1-0.7-1.7-0.7H2091
			c-0.7,0-1.2-0.2-1.7-0.7c-0.5-0.5-0.7-1-0.7-1.7v-3.9c0-0.7,0.2-1.2,0.7-1.7c0.5-0.5,1.1-0.7,1.7-0.7h27.5c0.7,0,1.3-0.2,1.7-0.7
			c0.5-0.5,0.7-1.1,0.7-1.7v-14c0-0.7-0.2-1.2-0.7-1.7c-0.5-0.5-1.1-0.7-1.7-0.7H2091c-0.7,0-1.2-0.2-1.7-0.7
			c-0.5-0.5-0.7-1.1-0.7-1.7v-4.3c0-0.7,0.2-1.2,0.7-1.7c0.5-0.5,1.1-0.7,1.7-0.7h31.6c0.7,0,1.3-0.2,1.7-0.7s0.7-1,0.7-1.7v-13.8
			c0-0.7-0.2-1.2-0.7-1.7c-0.5-0.5-1.1-0.7-1.7-0.7h-51.7c-0.7,0-1.2,0.2-1.7,0.7c-0.5,0.5-0.7,1.1-0.7,1.7v69.4
			c0,0.7,0.2,1.3,0.7,1.7c0.5,0.5,1.1,0.7,1.7,0.7h51.7c0.7,0,1.3-0.2,1.7-0.7S2125,2048.7,2125,2048z M2033,2019.8v-41.1
			c0-0.7-0.2-1.2-0.7-1.7c-0.5-0.5-1-0.7-1.7-0.7h-15.2c-0.7,0-1.2,0.2-1.7,0.7c-0.5,0.5-0.7,1.1-0.7,1.7v41.1
			c0,2.6-0.4,4.8-1.3,6.5c-0.9,1.7-1.9,3.1-3.1,4.1c-1.2,1-2.6,1.7-4,2.1c-1.4,0.4-2.7,0.6-3.9,0.6c-1.2,0-2.4-0.2-3.9-0.6
			c-1.4-0.4-2.8-1.1-4-2.1c-1.3-1-2.3-2.3-3.2-4.1s-1.3-3.9-1.3-6.5v-41.1c0-0.7-0.2-1.2-0.7-1.7c-0.5-0.5-1.1-0.7-1.7-0.7h-15.2
			c-0.7,0-1.2,0.2-1.7,0.7c-0.5,0.5-0.7,1.1-0.7,1.7v41.1c0,4.8,0.8,9.2,2.3,13.1c1.6,3.9,3.8,7.3,6.6,10c2.8,2.8,6.2,4.9,10.2,6.4
			c4,1.5,8.4,2.3,13.3,2.3c4.9,0,9.3-0.8,13.3-2.3c4-1.5,7.4-3.7,10.2-6.4c2.8-2.8,5-6.1,6.5-10
			C2032.3,2029,2033,2024.6,2033,2019.8z M2007.2,1964.6v-15.7c0-0.2-0.1-0.3-0.2-0.4c-0.1-0.1-0.2-0.2-0.4-0.2h-3.4
			c-0.2,0-0.3,0.1-0.4,0.2c-0.1,0.1-0.2,0.2-0.2,0.4v5.4c0,0.2,0,0.3-0.2,0.4c-0.1,0.1-0.2,0.2-0.4,0.2h-4.7c-0.2,0-0.3,0-0.4-0.2
			c-0.1-0.1-0.2-0.2-0.2-0.4v-5.4c0-0.2-0.1-0.3-0.2-0.4c-0.1-0.1-0.2-0.2-0.4-0.2h-3.4c-0.2,0-0.3,0.1-0.4,0.2
			c-0.1,0.1-0.2,0.2-0.2,0.4v15.7c0,0.1,0.1,0.3,0.2,0.4c0.1,0.1,0.2,0.2,0.4,0.2h3.4c0.2,0,0.3,0,0.4-0.2c0.1-0.1,0.2-0.2,0.2-0.4
			v-4.9c0-0.2,0-0.3,0.2-0.4c0.1-0.1,0.2-0.2,0.4-0.2h4.7c0.2,0,0.3,0.1,0.4,0.2c0.1,0.1,0.2,0.2,0.2,0.4v4.9c0,0.1,0.1,0.3,0.2,0.4
			c0.1,0.1,0.2,0.2,0.4,0.2h3.4c0.1,0,0.3,0,0.4-0.2C2007.2,1964.8,2007.2,1964.7,2007.2,1964.6z M1980.9,1952v-3.1
			c0-0.2-0.1-0.3-0.2-0.4c-0.1-0.1-0.2-0.2-0.4-0.2h-12.1c-0.2,0-0.3,0.1-0.4,0.2c-0.1,0.1-0.2,0.2-0.2,0.4v3.1
			c0,0.2,0.1,0.3,0.2,0.4c0.1,0.1,0.2,0.2,0.4,0.2h3.2c0.2,0,0.3,0,0.4,0.2s0.2,0.2,0.2,0.4v11.5c0,0.1,0.1,0.3,0.2,0.4
			c0.1,0.1,0.2,0.2,0.4,0.2h3.4c0.2,0,0.3,0,0.4-0.2c0.1-0.1,0.1-0.2,0.1-0.4v-11.5c0-0.2,0.1-0.3,0.2-0.4s0.2-0.2,0.4-0.2h3.2
			c0.2,0,0.3-0.1,0.4-0.2S1980.9,1952.2,1980.9,1952z M1940.5,2049.5c0.2-0.6,0.1-1.2-0.3-1.8c-2.2-3-4.8-6.3-7.6-9.8
			c-2.9-3.6-5.6-7.1-8.1-10.4c-0.4-0.6-0.5-1.1-0.4-1.7c0.2-0.6,0.5-1.1,1.1-1.5c1.6-1,3.1-2.3,4.4-3.8c1.3-1.5,2.4-3.2,3.3-5.1
			c1-1.9,1.7-3.9,2.2-6c0.5-2.1,0.8-4.3,0.8-6.5c0-3.9-0.7-7.5-2-10.8c-1.3-3.2-3.1-6.1-5.5-8.4c-2.3-2.4-5.2-4.2-8.5-5.5
			c-3.3-1.3-6.9-2-10.9-2h-31.6c-0.7,0-1.2,0.2-1.7,0.7c-0.5,0.5-0.7,1.1-0.7,1.7v69.4c0,0.7,0.2,1.3,0.7,1.7
			c0.5,0.5,1.1,0.7,1.7,0.7h15.2c0.7,0,1.3-0.2,1.7-0.7c0.5-0.5,0.7-1.1,0.7-1.7v-16.4c0-0.7,0.2-1.2,0.7-1.7c0.5-0.5,1-0.7,1.7-0.7
			h2.2c0.7,0,1.4,0.2,2.1,0.6c0.7,0.4,1.3,0.8,1.7,1.4c2.1,3,4.2,5.9,6.3,8.8s4.3,5.8,6.4,8.6c0.4,0.5,1,1,1.8,1.4
			c0.8,0.4,1.5,0.6,2.2,0.6h18.9C1939.8,2050.4,1940.3,2050.1,1940.5,2049.5z"/>
		<path d="M1915.3,2000.4c0.2,0.9,0.4,1.7,0.4,2.4c0,1.3-0.2,2.4-0.7,3.3c-0.5,1-1.1,1.7-1.8,2.4c-0.7,0.6-1.6,1.1-2.4,1.4
			c-0.9,0.3-1.7,0.4-2.5,0.4h-10.7c-0.7,0-1.2-0.2-1.7-0.7c-0.5-0.5-0.7-1.1-0.7-1.7v-10.8c0-0.7,0.2-1.2,0.7-1.7
			c0.5-0.5,1-0.7,1.7-0.7h10.7c1.4,0,2.6,0.3,3.6,0.9c1,0.6,1.8,1.3,2.3,2.1C1914.7,1998.7,1915.1,1999.5,1915.3,2000.4z"/>
	</g>
	<g>
	</g>
</g>
</svg>
