<?xml version="1.0" encoding="utf-8"?>
<!-- Generator: Adobe Illustrator 20.0.0, SVG Export Plug-In . SVG Version: 6.00 Build 0)  -->
<!DOCTYPE svg PUBLIC "-//W3C//DTD SVG 1.1//EN" "http://www.w3.org/Graphics/SVG/1.1/DTD/svg11.dtd">
<svg version="1.1" id="Layer_1" xmlns="http://www.w3.org/2000/svg" xmlns:xlink="http://www.w3.org/1999/xlink" x="0px" y="0px"
	 viewBox="0 0 4000 4000" style="enable-background:new 0 0 4000 4000;" xml:space="preserve">
<style type="text/css">
	.st0{opacity:0.8;}
</style>
<title>Cover</title>
<g id="XMLID_2_" class="st0">
	<g>
		<path d="M4000,0v4000H0V0H4000z M2102.9,2050.1v-4.8c0-0.6,0-1.1-0.1-1.6c0-0.5-0.1-0.9-0.3-1.2c-0.2-0.6-0.6-0.9-1.2-1.1
			c-0.4-0.2-0.9-0.3-1.4-0.3s-1.1,0-1.6,0h-5.5h-19.6h-4.4c-0.4,0-0.7,0-1.2,0.1c-0.4,0-0.8,0-1.1-0.1h-1.1c-0.4-0.1-0.7-0.2-1-0.3
			c-0.3,0-0.6-0.2-0.8-0.4c-0.5-0.3-0.8-0.8-0.9-1.5c-0.1-0.7-0.2-1.4-0.2-2.2v-5.8v-4c0-0.4,0-0.7,0-1.1c0-0.4,0-0.7,0.1-1.1
			c0.2-0.6,0.5-1.1,1-1.4c0.4-0.3,1-0.5,1.7-0.6c0.7-0.1,1.4-0.1,2.1-0.1c0.8,0,1.6,0.1,2.4,0.1h20.4c0.5,0,1.1,0,1.8,0
			c0.7,0,1.5,0.1,2.2,0.1s1.4,0,2-0.1c0.6-0.1,1.1-0.2,1.4-0.4c0.4-0.3,0.7-0.8,0.8-1.4c0.1-0.3,0.2-0.8,0.2-1.2s0-1,0-1.5
			c0-0.6,0-1.2,0.1-2c0-0.8,0-1.5,0-2.2c0-0.7-0.1-1.4-0.3-2c-0.1-0.6-0.4-1-0.7-1.2c-0.3-0.2-0.7-0.3-1.3-0.4
			c-0.6-0.1-1.2-0.1-1.9-0.2c-0.7,0-1.4,0-2.1,0c-0.7,0-1.3,0.1-1.8,0.1h-17.9h-5.6c-0.6,0-1.2,0-1.8-0.1c-0.6,0-1-0.2-1.5-0.5
			c-0.4-0.2-0.6-0.5-0.7-0.9c-0.1-0.4-0.3-0.8-0.4-1.4v-3v-6c0-0.8,0.1-1.6,0.2-2.2c0.1-0.7,0.4-1.2,0.9-1.5
			c0.3-0.2,0.7-0.4,1.4-0.5c0.6-0.1,1.3-0.2,2-0.2c0.7,0,1.5,0,2.2,0c0.7,0,1.4,0.1,1.9,0.1h18.9h7.2c0.7,0,1.3,0,2,0
			c0.6,0,1.1-0.1,1.6-0.4c0.5-0.3,0.8-0.8,1-1.7c0-0.7,0-1.2,0.1-1.6c0.1-0.5,0.1-1,0.1-1.5c0-0.5-0.1-1.1-0.1-1.6
			c0-0.5,0-1,0.1-1.6c0-0.5,0-1.1-0.1-1.6v-1.2c-0.2-0.3-0.2-0.6-0.3-0.8c0-0.3-0.1-0.5-0.3-0.7c-0.4-0.5-0.9-0.8-1.7-0.8
			c-0.8-0.1-1.6-0.1-2.4-0.1h-9.1h-39.1c-0.1,0.1-0.3,0.1-0.4,0.1c-0.1,0-0.3,0-0.4,0.1c-0.8,0.2-1.3,0.6-1.6,1
			c-0.3,0.3-0.4,0.8-0.4,1.5c0,0.6,0,1.3,0,1.9v6.5v22.8v28.4v7.5c0,0.6,0,1.3,0,1.9c0,0.7,0.1,1.2,0.4,1.6c0.3,0.6,0.9,0.9,1.6,1
			c0.7,0.1,1.6,0.2,2.6,0.2h8.2h30.9h7.8c0.8,0,1.5,0,2.1,0c0.7,0,1.2-0.2,1.6-0.5c0.6-0.4,0.9-0.9,0.9-1.6
			C2102.8,2051.7,2102.9,2050.9,2102.9,2050.1z M2031.5,1964.3v-1.4c0-0.2,0-0.3,0-0.5c0-0.1,0-0.3-0.1-0.4
			c-0.1-0.2-0.2-0.3-0.3-0.3c-0.1-0.1-0.3-0.1-0.4-0.1s-0.3,0-0.5,0h-1.6h-5.7h-1.3c-0.1,0-0.2,0-0.3,0s-0.2,0-0.3,0h-0.3
			c-0.1,0-0.2-0.1-0.3-0.1s-0.2-0.1-0.2-0.1c-0.1-0.1-0.2-0.2-0.3-0.4c0-0.2,0-0.4,0-0.7v-1.7v-1.2c0-0.1,0-0.2,0-0.3s0-0.2,0-0.3
			c0.1-0.2,0.2-0.3,0.3-0.4c0.1-0.1,0.3-0.2,0.5-0.2c0.2,0,0.4,0,0.6,0c0.2,0,0.5,0,0.7,0h5.9c0.1,0,0.3,0,0.5,0c0.2,0,0.4,0,0.6,0
			c0.2,0,0.4,0,0.6,0c0.2,0,0.3-0.1,0.4-0.1c0.1-0.1,0.2-0.2,0.2-0.4c0-0.1,0.1-0.2,0.1-0.4c0-0.2,0-0.3,0-0.4c0-0.2,0-0.4,0-0.6
			c0-0.2,0-0.4,0-0.6c0-0.2,0-0.4-0.1-0.6c0-0.2-0.1-0.3-0.2-0.4c-0.1-0.1-0.2-0.1-0.4-0.1c-0.2,0-0.4,0-0.6,0c-0.2,0-0.4,0-0.6,0
			c-0.2,0-0.4,0-0.5,0h-5.2h-1.6c-0.2,0-0.4,0-0.5,0s-0.3-0.1-0.4-0.1c-0.1-0.1-0.2-0.2-0.2-0.3s-0.1-0.2-0.1-0.4v-0.9v-1.7
			c0-0.2,0-0.5,0-0.7c0-0.2,0.1-0.3,0.3-0.4c0.1-0.1,0.2-0.1,0.4-0.1c0.2,0,0.4-0.1,0.6-0.1c0.2,0,0.4,0,0.6,0c0.2,0,0.4,0,0.6,0
			h5.5h2.1c0.2,0,0.4,0,0.6,0c0.2,0,0.3,0,0.5-0.1c0.1-0.1,0.2-0.2,0.3-0.5c0-0.2,0-0.3,0-0.4c0-0.2,0-0.3,0-0.5c0-0.1,0-0.3,0-0.5
			c0-0.1,0-0.3,0-0.5c0-0.2,0-0.3,0-0.5v-0.3c0-0.1-0.1-0.2-0.1-0.2s0-0.2-0.1-0.2c-0.1-0.2-0.3-0.2-0.5-0.2c-0.2,0-0.5,0-0.7,0
			h-2.7h-11.4c0,0-0.1,0-0.1,0c0,0-0.1,0-0.1,0c-0.2,0.1-0.4,0.2-0.5,0.3c-0.1,0.1-0.1,0.2-0.1,0.4c0,0.2,0,0.4,0,0.5v1.9v6.6v8.3
			v2.2c0,0.2,0,0.4,0,0.6c0,0.2,0,0.3,0.1,0.5c0.1,0.2,0.3,0.3,0.5,0.3s0.5,0,0.8,0h2.4h9h2.3c0.2,0,0.4,0,0.6,0
			c0.2,0,0.4,0,0.5-0.1c0.2-0.1,0.3-0.3,0.3-0.5C2031.5,1964.7,2031.5,1964.5,2031.5,1964.3z M2030.9,1983.6c0-1-0.1-1.8-0.5-2.3
			c-0.3-0.5-0.9-0.8-1.9-1.1c-0.5-0.1-1-0.2-1.5-0.2c-0.5,0-1.1,0.1-1.6,0.1h-6.7c-0.8,0-1.5,0.1-2.1,0.2c-0.6,0.1-1.1,0.4-1.5,0.8
			c-0.4,0.6-0.6,1.4-0.6,2.6c0,1.2,0,2.3,0,3.2v14v20.8c0,2.6-0.1,5.2-0.2,7.7s-0.6,4.6-1.4,6.4c-0.6,1.2-1.3,2.2-2.2,3.2
			c-0.9,0.9-2,1.7-3.3,2.2c-0.6,0.3-1.3,0.5-2.3,0.7c-0.5,0.1-1,0.2-1.6,0.3c-0.6,0.1-1.1,0.2-1.7,0.3h-1.6
			c-0.2,0.1-0.6,0.1-1.2,0.2c-0.6,0-1.1,0-1.4,0c-0.3-0.1-0.7-0.1-0.9-0.1c-0.3,0-0.6,0-0.9-0.2c-0.6-0.1-1.1-0.2-1.7-0.3
			c-0.6-0.1-1.1-0.2-1.7-0.3c-2-0.7-3.6-1.6-4.9-2.8c-1.2-1.2-2.2-2.7-3-4.5c-0.3-0.8-0.5-1.5-0.6-2.3c-0.1-0.8-0.2-1.5-0.4-2.3
			c-0.1-0.3-0.1-0.7-0.1-1.2c-0.1-0.6-0.2-1.2-0.2-1.9c0-0.7,0-1.3,0-2v-1.7c-0.1-0.3-0.1-0.6,0-0.9c0-0.3,0-0.6,0-0.9v-3.7v-21.5
			v-10.5c0-0.9,0-1.8,0-2.7c0-0.9-0.2-1.6-0.6-2.1c-0.3-0.4-0.9-0.7-1.6-0.7c-0.7-0.1-1.5-0.1-2.2-0.1h-8.9
			c-0.1,0.1-0.3,0.1-0.4,0.1s-0.3,0-0.4,0c-0.7,0.2-1.2,0.6-1.7,1.1c-0.2,0.4-0.3,0.9-0.3,1.6c0,0.7,0,1.3,0,2v7.3v29.1
			c0,2.4,0,4.9,0,7.3c0,2.4,0.3,4.6,0.8,6.6c0.1,0.3,0.2,0.6,0.2,0.9c0,0.2,0.1,0.5,0.2,0.9c0.5,1.6,1,3.1,1.6,4.4s1.3,2.7,2.2,3.9
			c2.7,3.8,6.3,6.6,11,8.3c4.7,1.7,10.3,2.5,16.9,2.5c1,0,2,0,3-0.1c1-0.1,2-0.2,2.8-0.3c0.4-0.1,0.8-0.2,1.2-0.2
			c0.4,0,0.8-0.1,1.2-0.2c0.6-0.1,1.3-0.3,1.9-0.4c0.7-0.1,1.3-0.3,1.9-0.5c2.9-1,5.5-2.2,7.6-3.8c2.4-1.7,4.4-3.7,5.9-6.1
			c1.5-2.4,2.7-5.2,3.7-8.5c0.6-2,0.9-4.3,0.9-6.8c0.1-2.5,0.1-5.1,0.1-7.7v-21.1v-14C2030.9,1985.6,2030.9,1984.6,2030.9,1983.6z
			 M2007.7,1964.8c0-0.3,0-0.5,0-0.8v-3.3v-12.5v-3c0-0.2,0-0.5,0-0.7c0-0.2-0.1-0.4-0.2-0.5c-0.2-0.2-0.5-0.2-0.8-0.2
			c-0.4,0-0.7,0-1.1,0c-0.2,0-0.4,0-0.6,0c-0.2,0-0.5,0-0.7,0s-0.5,0-0.7,0.1c-0.2,0-0.3,0.1-0.4,0.2c-0.1,0.2-0.2,0.4-0.2,0.8
			c0,0.4,0,0.8,0,1.1v4c0,0.3,0,0.6,0,1s0,0.6-0.1,0.8c-0.1,0.2-0.4,0.4-0.8,0.4c-0.4,0-0.8,0-1.1,0h-5.8c-0.2,0-0.3-0.1-0.4-0.1
			s-0.2-0.1-0.3-0.2c-0.2-0.2-0.2-0.5-0.2-1c0-0.4,0-0.8,0-1.2v-3.7v-1.1c0-0.1,0-0.2,0-0.3s0-0.2-0.1-0.3c-0.1-0.3-0.3-0.4-0.5-0.5
			c-0.2,0-0.5-0.1-0.9-0.1h-2.4c0,0-0.1,0-0.1,0c0,0-0.1,0-0.1,0c-0.2,0.1-0.3,0.2-0.4,0.3c-0.1,0.1-0.1,0.3-0.1,0.6
			c0,0.2,0,0.5,0,0.7v2.8v12.2v3.5c0,0.3,0,0.6,0,0.8c0,0.3,0.1,0.5,0.3,0.6s0.4,0.2,0.8,0.2c0.4,0,0.8,0,1,0c0.2,0,0.4,0,0.6,0
			c0.2,0,0.5,0,0.7,0c0.2,0,0.5,0,0.6-0.1c0.2,0,0.3-0.1,0.4-0.2c0.1-0.2,0.2-0.4,0.2-0.8c0-0.4,0-0.7,0-1v-4.2v-1.3
			c0-0.1,0-0.2,0-0.3s0-0.2,0-0.4v-0.3c0-0.2,0.1-0.3,0.1-0.4c0.1-0.1,0.2-0.2,0.3-0.2c0.1,0,0.2-0.1,0.4-0.1h6c0.4,0,0.8,0,1.2,0
			s0.7,0.1,0.8,0.4c0,0.1,0,0.1,0,0.2c0,0.1,0,0.1,0,0.2v0.3c0,0.1,0,0.2,0,0.2c0,0.1,0,0.2,0,0.2v0.9v4.4c0,0.2,0,0.3,0,0.6
			c0,0.2,0,0.4,0,0.6c0,0.2,0,0.4,0.1,0.6c0,0.2,0.1,0.3,0.1,0.4c0.1,0.1,0.2,0.2,0.4,0.2c0.2,0,0.4,0,0.6,0.1c0.2,0,0.5,0,0.7,0
			c0.2,0,0.4,0,0.6,0c0.3,0,0.7,0,1.1,0c0.4,0,0.7-0.1,0.9-0.2C2007.7,1965.3,2007.7,1965.1,2007.7,1964.8z M1983.8,1947.3
			c0-0.1,0-0.2,0-0.4s0-0.3,0-0.4v-1.2c0-0.1,0-0.2,0-0.3s0-0.2,0-0.3v-0.1c0-0.1-0.1-0.2-0.1-0.3c0-0.1-0.1-0.2-0.1-0.2
			c-0.2-0.1-0.4-0.2-0.6-0.2s-0.5,0-0.8,0h-3.1h-12.2h-0.2c-0.2,0-0.3,0.1-0.3,0.1c-0.2,0.1-0.3,0.3-0.3,0.5c0,0.2,0,0.4,0,0.7v1.5
			c0,0.2,0,0.3,0,0.5c0,0.2,0.1,0.3,0.1,0.4c0.1,0.1,0.2,0.2,0.4,0.3c0.2,0,0.4,0.1,0.7,0c0.3,0,0.5,0,0.8,0h2.8
			c0.4,0,0.8,0,1.1,0.1c0.3,0,0.5,0.2,0.6,0.6c0,0.1,0,0.2,0,0.2c0,0.1,0,0.2,0,0.3c0,0.1,0,0.3,0,0.4s0,0.3,0,0.4v2.6v8.5v3.1
			c0,0.3,0,0.5,0,0.8c0,0.3,0.1,0.5,0.2,0.6c0.1,0.1,0.2,0.2,0.4,0.2c0.2,0,0.4,0,0.6,0h2.1c0.2,0,0.3,0,0.5,0c0.2,0,0.3,0,0.5-0.1
			c0.2-0.1,0.3-0.3,0.4-0.5s0.1-0.5,0.1-0.8v-2.9v-8.8v-2.7c0-0.1,0-0.3,0-0.4s0-0.3,0-0.4c0-0.1,0-0.2,0-0.3c0-0.1,0-0.2,0-0.3
			c0.1-0.3,0.3-0.5,0.6-0.6c0.3,0,0.6-0.1,1-0.1h3.1c0.4,0,0.8,0,1.1,0C1983.5,1947.8,1983.7,1947.6,1983.8,1947.3z M1953.9,2053.4
			c0.2-0.3,0.2-0.7,0.1-1.1c-0.1-0.6-0.3-1.1-0.4-1.8s-0.3-1.2-0.4-1.9l-0.3-1.9c-0.1-0.7-0.2-1.4-0.2-2.2c0-0.8-0.1-1.5-0.2-2.2
			c-0.1-0.3-0.1-0.7,0-0.9c0-0.3,0-0.6-0.1-0.8c-0.1-0.3-0.1-0.7-0.1-1c0-0.3,0-0.6,0-0.9c0-0.4,0-0.8-0.1-1.2c0-0.4,0-0.8,0-1.2
			c-0.1-0.6-0.2-1.3-0.3-2c0-0.7-0.1-1.4-0.3-2c-0.4-1.6-0.9-3-1.3-4.3c-0.5-1.2-1.2-2.5-2-3.7c-0.5-0.8-1.1-1.4-1.8-2
			c-0.7-0.6-1.4-1.1-2.1-1.7c-0.2-0.1-0.5-0.3-0.7-0.6c-0.3-0.3-0.3-0.6-0.2-1.1c0.1-0.3,0.3-0.6,0.6-0.9c0.3-0.2,0.6-0.5,0.8-0.7
			c0.5-0.3,0.9-0.7,1.4-1.1c0.4-0.3,0.8-0.7,1.2-1c0.3-0.2,0.5-0.5,0.8-0.7c0.2-0.3,0.5-0.6,0.7-0.8c0.1-0.2,0.3-0.4,0.5-0.7
			c0.2-0.2,0.4-0.5,0.5-0.7c0.6-0.8,1-1.7,1.4-2.7c0.3-0.9,0.7-1.9,1-3c0.1-0.5,0.2-1,0.2-1.4c0-0.5,0.1-1,0.2-1.5
			c0.1-0.5,0.2-1.1,0.3-1.9c0.1-0.8,0-1.5-0.1-2v-0.9c-0.1-0.3-0.2-0.6-0.2-0.8c0-0.3,0-0.6,0-0.8c-0.3-1.3-0.7-2.4-0.9-3.4
			c-0.3-1-0.7-2.1-1.3-3c-0.3-0.3-0.5-0.7-0.7-1.1c-0.2-0.4-0.4-0.8-0.7-1.1c-1-1.5-2.2-2.8-3.7-3.9c-1.5-1.1-3.1-2.1-4.8-2.8
			c-0.5-0.2-1-0.4-1.5-0.5c-0.5-0.1-1-0.3-1.5-0.4c-0.3-0.1-0.7-0.2-1.1-0.2s-0.8-0.1-1.1-0.2c-0.9-0.2-1.9-0.3-2.9-0.4
			c-1,0-2.1-0.1-3.2-0.1h-35.5c-0.1,0.1-0.3,0.1-0.5,0.1c-0.2,0-0.3,0-0.5,0.1c-0.8,0.3-1.3,0.6-1.6,1c-0.3,0.5-0.5,1.2-0.5,2
			c0,0.8,0.1,1.6,0.1,2.4v63.5c0,0.9,0,1.8,0,2.8s0.3,1.6,0.8,1.9c0.6,0.5,1.6,0.7,2.8,0.7c1.2,0,2.4-0.1,3.6-0.1h4.7
			c0.6,0,1.1,0,1.6,0c0.5,0,0.9-0.1,1.3-0.2c0.6-0.2,1-0.6,1.2-1.2c0.1-0.4,0.2-0.8,0.2-1.2c0-0.4,0-1,0-1.5c0-0.5,0-1.1,0.1-1.7
			c0-0.6,0-1.2,0-1.7v-13.4c0-1.2,0-2.5-0.1-4c-0.1-1.5,0.2-2.5,0.7-3.2c0.3-0.3,0.6-0.6,1-0.6c0.4-0.1,0.9-0.2,1.5-0.3h8.6
			c1.6,0,3.2,0,4.8,0c1.6,0,3.1,0.2,4.3,0.6c0.4,0.1,0.8,0.2,1.1,0.3s0.7,0.2,1.1,0.3c1.4,0.6,2.5,1.6,3.2,2.8
			c0.8,1.3,1.4,2.7,2,4.3c0.2,0.8,0.4,1.5,0.5,2.3c0.1,0.8,0.2,1.6,0.4,2.3c0,0.4,0,0.7,0.1,0.9c0.1,0.8,0.2,1.6,0.2,2.6
			c0,0.9,0.1,1.8,0.3,2.7c0,0.2,0,0.4,0.1,0.7c0,0.2,0.1,0.5,0.1,0.8c0.3,1.2,0.5,2.4,0.5,3.8c0.1,1.3,0.4,2.4,0.9,3.3
			c0.4,0.7,1,1.1,1.9,1.2c0.8,0.1,1.8,0.2,2.9,0.2h5.7c0.8,0,1.5,0,2.2,0.1c0.7,0,1.3-0.1,1.7-0.5
			C1953.5,2054,1953.7,2053.8,1953.9,2053.4z"/>
		<path d="M1936.7,2002.4c0.1,1.1,0.1,2.1-0.1,2.8c-0.2,1-0.4,1.8-0.6,2.6c-0.2,0.8-0.5,1.5-0.9,2.1c-0.6,0.9-1.4,1.6-2.3,2.2
			c-0.9,0.6-1.9,1-3.1,1.4c-0.5,0.1-1,0.2-1.5,0.2c-0.5,0-1.1,0.1-1.6,0.2h-1.4c-0.4,0.1-0.9,0.2-1.5,0.2c-0.6,0-1.1-0.1-1.6-0.1
			h-6.2c-0.6,0-1.4,0-2.2,0.1c-0.8,0-1.6,0-2.4-0.1c-0.8-0.1-1.5-0.2-2.1-0.3c-0.6-0.1-1.1-0.4-1.3-0.8c-0.3-0.5-0.5-1.2-0.5-2
			c0-0.8,0-1.7,0-2.5v-9.7c0-0.8,0-1.7,0-2.6c0-0.9,0.1-1.6,0.5-2.1c0.3-0.5,0.8-0.8,1.7-1c0.1,0,0.3,0,0.4,0.1c0.1,0,0.3,0,0.4-0.2
			h12.1c1.7,0,3.3,0,4.8,0.1c1.5,0.1,2.9,0.4,4.1,0.9c2.2,1,3.8,2.5,4.6,4.7c0.1,0.2,0.2,0.4,0.2,0.6s0.1,0.4,0.2,0.7
			C1936.5,2000.4,1936.6,2001.2,1936.7,2002.4z"/>
	</g>
	<g>
	</g>
</g>
</svg>
