<?xml version="1.0" encoding="utf-8"?>
<!-- Generator: Adobe Illustrator 20.1.0, SVG Export Plug-In . SVG Version: 6.00 Build 0)  -->
<!DOCTYPE svg PUBLIC "-//W3C//DTD SVG 1.1//EN" "http://www.w3.org/Graphics/SVG/1.1/DTD/svg11.dtd">
<svg version="1.1" id="Layer_1" xmlns="http://www.w3.org/2000/svg" xmlns:xlink="http://www.w3.org/1999/xlink" x="0px" y="0px"
	 viewBox="0 0 3000 3000" style="enable-background:new 0 0 3000 3000;" xml:space="preserve">
<style type="text/css">
	.st0{fill:#FFFFFF;}
</style>
<title>header-aboutfilm-desktop</title>
<g id="XMLID_1_">
	<g>
		<path class="st0" d="M3000,0v3000H0V0H3000z M1673.8,1507.2c0.1-0.2,0.1-0.3,0-0.5c0-0.8-0.1-1.4-0.2-1.9c0-0.1,0-0.1,0-0.2
			c0-0.1,0-0.2-0.1-0.3c-0.1-0.3-0.2-0.6-0.4-0.9c-0.1-0.3-0.2-0.6-0.4-0.9c-0.5-0.8-1.1-1.6-1.7-2.1c-0.6-0.5-1.4-1.1-2.2-1.6
			c-0.5-0.3-1.2-0.6-1.8-0.8c-0.7-0.2-1.3-0.4-2-0.6c-0.2-0.1-0.3-0.1-0.5-0.1s-0.3,0-0.5-0.1c-0.9-0.3-1.8-0.5-2.7-0.7
			s-1.8-0.5-2.6-0.7c-0.4-0.1-0.8-0.2-1.1-0.3c-0.4-0.1-0.7-0.2-1.1-0.3c-0.6-0.3-1.2-0.5-1.6-0.8c-0.5-0.3-0.8-0.7-1.1-1.4
			c-0.1-0.2-0.1-0.4-0.2-0.6c0-0.3,0-0.5,0-0.7c0.2-0.9,0.4-1.5,0.8-1.9c0.4-0.4,1-0.8,1.7-1.1c0.4-0.2,1-0.3,1.5-0.4
			c0.6-0.1,1.2-0.1,1.7-0.1c0.6,0,1.2,0.1,1.7,0.2c0.6,0.1,1,0.2,1.4,0.4c0.4,0.2,0.8,0.5,1.3,0.8c0.2,0.2,0.5,0.5,0.7,0.8
			c0.2,0.4,0.4,0.7,0.5,1c0.2,0.3,0.3,0.7,0.4,1c0.1,0.3,0.3,0.6,0.7,0.8c0.2,0.1,0.4,0.1,0.7,0.1c0.3,0,0.6,0,0.9,0h3
			c0.3,0,0.7,0,0.9-0.1c0.3,0,0.5-0.2,0.7-0.3c0.1-0.2,0.2-0.4,0.2-0.7c0-0.3,0-0.6-0.1-0.9c-0.2-0.6-0.3-1.2-0.5-1.8
			c-0.2-0.5-0.4-1.1-0.7-1.6c-2.3-3.7-6.5-5.6-12.7-5.5c-0.1,0.1-0.2,0.1-0.4,0.1c-0.2,0-0.3,0-0.4,0c-0.3,0.1-0.6,0.1-0.9,0.1
			c-0.3,0-0.6,0-0.9,0.1c-0.8,0.2-1.6,0.4-2.3,0.6c-0.7,0.2-1.4,0.5-2,0.9c-1,0.6-1.8,1.3-2.6,2.1c-0.7,0.8-1.4,1.7-1.8,2.8
			c-0.1,0.3-0.2,0.6-0.3,0.9c-0.1,0.3-0.1,0.7-0.2,1c0,0.2,0,0.4,0,0.6c-0.1,0.3-0.1,0.8-0.1,1.3s0.1,1,0.1,1.2
			c0.1,0.4,0.2,0.7,0.2,1c0.1,0.3,0.2,0.6,0.3,0.9c0.3,0.8,0.8,1.6,1.4,2.2c0.6,0.6,1.3,1.2,2,1.7c0.6,0.3,1.2,0.6,1.9,0.9
			c0.7,0.3,1.4,0.5,2.1,0.8c0.2,0.1,0.5,0.1,0.7,0.2c0.2,0.1,0.4,0.1,0.7,0.2c0.1,0.1,0.2,0.1,0.3,0.1c0.1,0,0.2,0,0.4,0.1
			c0.5,0.2,1,0.3,1.5,0.4c0.5,0.1,1,0.2,1.5,0.4c0.2,0.1,0.5,0.1,0.7,0.2c0.2,0,0.4,0.1,0.6,0.2c0.6,0.2,1.2,0.4,1.7,0.5
			c0.6,0.2,1.1,0.4,1.6,0.7c0.2,0.1,0.4,0.2,0.5,0.3c0.8,0.5,1.3,1.1,1.6,2c0.1,0.2,0.1,0.4,0.2,0.7c0.1,0.3,0,0.5,0,0.8
			c-0.2,1.1-0.7,1.9-1.3,2.4c-0.6,0.5-1.5,0.8-2.6,1.1c-0.2,0.1-0.3,0.1-0.5,0.1c-0.2,0-0.3,0-0.5,0.1c-0.2,0-0.4,0-0.5,0
			c-0.2,0.1-0.6,0.1-1,0.1c-0.4,0-0.8,0-1-0.1h-0.2c-0.2-0.1-0.5-0.1-0.7-0.1c-0.2,0-0.4,0-0.6-0.1c-1-0.3-1.9-0.6-2.6-1.1
			c-0.2-0.1-0.4-0.3-0.6-0.4c-0.2-0.1-0.4-0.3-0.5-0.5c-0.2-0.3-0.4-0.6-0.6-0.9c-0.2-0.3-0.3-0.7-0.5-1.1c-0.2-0.4-0.3-0.8-0.3-1.1
			c-0.1-0.4-0.3-0.6-0.6-0.8c-0.2-0.1-0.5-0.1-0.8-0.1c-0.3,0-0.6,0-0.8,0h-3c-0.4,0-0.7,0-1,0.1c-0.3,0.1-0.5,0.2-0.7,0.4
			c-0.1,0.2-0.2,0.5-0.2,0.8c0,0.4,0.1,0.7,0.2,0.9c0.1,0.2,0.1,0.4,0.1,0.6c0,0.2,0,0.4,0.1,0.6c0.3,1,0.7,1.9,1.2,2.7
			c0.8,1.3,1.8,2.3,3,3.1c1.2,0.8,2.5,1.4,4.1,1.9c0.3,0.1,0.7,0.2,1.1,0.3c0.4,0.1,0.8,0.2,1.2,0.2c0.2,0,0.3,0.1,0.4,0.1
			c0.1,0,0.3,0,0.4,0c0.2,0.1,0.4,0.1,0.6,0.1c0.2,0,0.5,0,0.7,0.1h0.5c0.2,0,0.4,0.1,0.8,0.1s0.6,0,0.8-0.1c0.1,0,0.2,0,0.3,0
			c0.1,0,0.2,0,0.3,0h0.4c0.2-0.1,0.4-0.1,0.6-0.1c0.2,0,0.4,0,0.6-0.1c0.5-0.1,0.9-0.2,1.4-0.2c0.5-0.1,0.9-0.2,1.4-0.3
			c0.6-0.2,1.2-0.4,1.8-0.7c0.6-0.2,1.2-0.5,1.7-0.9c0.2-0.1,0.4-0.2,0.5-0.4c0.2-0.1,0.3-0.2,0.5-0.4c0.2-0.2,0.4-0.3,0.6-0.5
			c0.2-0.2,0.4-0.4,0.5-0.5c0.1-0.2,0.2-0.3,0.3-0.4s0.2-0.2,0.4-0.4c0.3-0.4,0.6-0.9,0.8-1.4c0.2-0.5,0.4-1,0.6-1.6
			c0.1-0.3,0.2-0.6,0.2-0.9c0.1-0.3,0.1-0.7,0.2-1V1507.2z M1631.8,1513.9v-7.8v-4.9c0-0.4,0-0.8,0-1.2s-0.1-0.7-0.2-1
			c-0.2-0.3-0.7-0.4-1.4-0.4c-0.7,0-1.3,0-1.8,0h-6.9h-1.4c-0.1,0-0.3,0-0.4,0s-0.3,0-0.3,0h-0.5c-0.1,0-0.3,0-0.5,0.1
			c-0.2,0.1-0.4,0.3-0.5,0.6c-0.1,0.2-0.1,0.3-0.1,0.6c0,0.2,0,0.5,0,0.7c0,0.3,0,0.6,0,0.9c0,0.3,0,0.7,0,0.9
			c0,0.3,0.1,0.6,0.1,0.8c0.1,0.2,0.2,0.4,0.3,0.6c0.1,0.1,0.2,0.1,0.3,0.1c0.1,0,0.3,0,0.4,0.1h0.4c0.2,0.1,0.4,0.1,0.6,0.1
			c0.2,0,0.4,0,0.6,0h2.4c0.3,0,0.6,0,0.9,0s0.6,0.1,0.7,0.2c0.3,0.2,0.5,0.5,0.4,1c0,0.5-0.1,0.9-0.3,1.2c-0.4,0.9-0.8,1.7-1.2,2.3
			c-0.5,0.6-1.1,1.2-1.9,1.6c-0.4,0.2-0.7,0.3-1.1,0.5s-0.8,0.2-1.2,0.3c-0.1,0.1-0.2,0.1-0.4,0.1c-0.1,0-0.2,0-0.4,0
			c-0.1,0-0.2,0-0.4,0c-0.1,0-0.3,0-0.4,0c-0.2,0.1-0.5,0.1-0.8,0.1c-0.3,0-0.5,0-0.7-0.1c-0.2-0.1-0.3-0.1-0.5-0.1
			c-0.2,0-0.4,0-0.6,0c-0.3-0.1-0.7-0.2-1-0.3c-0.3-0.1-0.6-0.2-0.9-0.3c-1.4-0.6-2.5-1.5-3.3-2.6c-0.8-1.1-1.4-2.5-1.8-4.1
			c0-0.1,0-0.2,0-0.3c0-0.1,0-0.2-0.1-0.3c-0.1-0.5-0.2-1-0.2-1.5s0-1.1,0-1.6c0-0.2,0-0.4,0-0.7s0-0.4,0.1-0.6v-0.6
			c0.1-0.3,0.1-0.7,0.1-1c0-0.3,0.1-0.7,0.2-1c0.2-0.8,0.5-1.5,0.7-2.2c0.2-0.7,0.6-1.4,1-2c0.5-0.7,1-1.3,1.7-1.8
			c0.7-0.5,1.4-0.9,2.2-1.2c0.2-0.1,0.4-0.2,0.6-0.2c0.2,0,0.4-0.1,0.6-0.1c0.3-0.1,0.8-0.1,1.3-0.2c0.6,0,1,0,1.4,0
			c0.2,0,0.3,0,0.4,0.1c0.2,0,0.3,0.1,0.5,0.1c0.2,0,0.4,0.1,0.5,0.1c0.8,0.3,1.6,0.6,2.2,1c0.5,0.3,0.8,0.7,1.1,1.1
			c0.3,0.4,0.6,0.8,0.9,1.3c0.2,0.3,0.3,0.7,0.4,1s0.3,0.6,0.6,0.8c0.2,0.2,0.4,0.2,0.7,0.3c0.3,0,0.6,0,1,0h3.1
			c0.3,0,0.7,0,0.9-0.1c0.3,0,0.5-0.2,0.7-0.4c0.2-0.2,0.2-0.4,0.2-0.7c0-0.3-0.1-0.6-0.1-0.8c-0.4-1.3-0.9-2.5-1.5-3.5
			c-1.2-1.9-2.9-3.5-5-4.7c-2.2-1.2-4.8-1.8-8-1.7c-0.1,0-0.2,0-0.3,0c-0.1,0-0.2,0-0.3,0c-0.2,0.1-0.4,0.1-0.6,0.1
			c-0.2,0-0.4,0-0.6,0c-0.2,0.1-0.3,0.1-0.5,0.1c-0.2,0-0.3,0-0.5,0.1c-0.4,0.1-0.8,0.2-1.2,0.3c-0.4,0.1-0.8,0.2-1.1,0.4
			c-1.7,0.6-3.2,1.4-4.4,2.3c-1.2,0.9-2.3,2.1-3.2,3.4c-0.2,0.4-0.5,0.8-0.8,1.2c-0.2,0.4-0.5,0.9-0.7,1.3c-0.2,0.4-0.4,0.8-0.5,1.3
			c-0.1,0.4-0.3,0.9-0.4,1.3c-0.1,0.3-0.2,0.7-0.3,1c-0.1,0.3-0.1,0.7-0.2,1c-0.1,0.2-0.1,0.5-0.1,0.8c0,0.3,0,0.6-0.1,0.9
			c-0.1,0.2-0.1,0.3-0.1,0.5c0,0.2,0,0.4,0,0.6v0.5c-0.1,0.2-0.1,0.4-0.1,0.7c0,0.3,0,0.6,0.1,0.7v0.9c0,0.1,0,0.3,0,0.4
			c0,0.1,0,0.2,0.1,0.4c0.1,0.3,0.1,0.5,0.1,0.7s0,0.5,0.1,0.7c0.1,0.2,0.1,0.3,0.1,0.4c0,0.1,0,0.2,0.1,0.4
			c0.2,0.4,0.3,0.9,0.4,1.3c0.1,0.4,0.2,0.9,0.4,1.3c0.8,2,1.8,3.7,3,5c1.2,1.3,2.7,2.5,4.6,3.5c0.7,0.4,1.6,0.7,2.5,1
			c0.2,0.1,0.4,0.1,0.7,0.2c0.2,0,0.4,0.1,0.7,0.2c0.2,0.1,0.5,0.1,0.8,0.1s0.5,0.1,0.8,0.1h0.4c0.2,0,0.3,0.1,0.5,0.1
			c0.1,0,0.3,0,0.4,0h0.5c0.1,0,0.3,0.1,0.5,0.1c0.2,0,0.4,0,0.5,0c0.3-0.1,0.6-0.1,0.9-0.1s0.6,0,0.8-0.1c0.2,0,0.3,0,0.5-0.1
			c0.2,0,0.3-0.1,0.5-0.1c0.5-0.2,0.9-0.3,1.4-0.5c0.5-0.2,0.9-0.4,1.3-0.6c0.3-0.2,0.7-0.4,0.9-0.6c0.3-0.2,0.6-0.4,0.9-0.7
			c0.2-0.2,0.4-0.3,0.5-0.5c0.2-0.2,0.4-0.3,0.6-0.4c0.2,0,0.3,0,0.4,0.1c0.1,0.1,0.2,0.2,0.2,0.2c0.2,0.3,0.3,0.6,0.3,0.9
			c0.1,0.3,0.2,0.7,0.3,0.9c0.2,0.5,0.5,0.7,1,0.7c0.4,0,1,0.1,1.6,0.1c0.2,0,0.5,0,0.8,0c0.3,0,0.5-0.1,0.7-0.1
			c0.4-0.2,0.6-0.5,0.6-1.1C1631.8,1515.1,1631.8,1514.5,1631.8,1513.9z M1585.6,1516.4c0.1-0.2,0.2-0.5,0.2-0.8c0-0.3,0-0.7,0-1v-4
			v-19.9v-5.2c0-0.5,0-1,0-1.4c0-0.4-0.3-0.7-0.7-0.8c-0.2-0.1-0.4-0.1-0.7-0.1c-0.3,0-0.5,0-0.8,0h-2.9c-0.3,0-0.7,0-0.9,0.1
			s-0.5,0.2-0.6,0.4c-0.2,0.3-0.3,0.6-0.3,1v0.5c0,0.1,0,0.3,0,0.4s0,0.3,0,0.5v1.8v11v3c0,0.2,0,0.5,0,0.8c0,0.3,0,0.5,0,0.7
			c-0.1,0.2-0.1,0.5-0.1,0.7c0,0.2-0.1,0.4-0.3,0.4c-0.1,0.1-0.2,0.1-0.3,0c-0.1-0.1-0.2-0.1-0.2-0.2c-0.2-0.2-0.3-0.3-0.5-0.5
			c-0.1-0.2-0.2-0.4-0.3-0.6c-0.6-0.8-1.1-1.7-1.6-2.5c-0.5-0.9-1.1-1.7-1.6-2.6c-1.1-1.8-2.2-3.6-3.3-5.4c-1.1-1.8-2.2-3.6-3.3-5.4
			l-1.7-2.7c-0.2-0.3-0.3-0.5-0.5-0.8c-0.2-0.3-0.4-0.5-0.7-0.6c-0.3-0.1-0.5-0.2-0.9-0.2c-0.3,0-0.7,0-1,0h-3.8c-0.1,0-0.1,0-0.2,0
			c-0.1,0-0.2,0-0.2,0c-0.3,0.1-0.5,0.3-0.7,0.5c-0.1,0.2-0.2,0.5-0.2,0.9s0,0.7,0,1.1v4.4v19.1v5.5c0,0.5,0,1,0.1,1.4
			c0.1,0.4,0.3,0.7,0.7,0.8c0.2,0.1,0.4,0.1,0.7,0.1c0.2,0,0.5,0,0.8,0h2.9c0.3,0,0.7,0,0.9-0.1c0.3,0,0.5-0.1,0.7-0.3
			c0.2-0.2,0.2-0.6,0.2-1.1v-0.5c0.1-0.2,0.1-0.3,0.1-0.5c0-0.2,0-0.3,0-0.5v-1.8v-11.4v-3.3c0-0.4,0-0.8,0-1.1
			c0-0.3,0.2-0.5,0.4-0.8c0.3,0,0.6,0.2,0.8,0.5c0.2,0.3,0.4,0.6,0.5,0.8c0.4,0.7,0.9,1.4,1.3,2.1c0.4,0.7,0.9,1.4,1.3,2.1l7.1,11.4
			c0.3,0.4,0.6,0.9,0.8,1.3c0.3,0.5,0.6,0.9,0.8,1.4c0.2,0.3,0.4,0.6,0.6,0.9c0.2,0.3,0.5,0.5,0.8,0.6c0.2,0.1,0.4,0.1,0.7,0.1
			s0.5,0,0.8,0h2.6h1.7c0.2-0.1,0.5-0.1,0.6-0.2C1585.3,1516.7,1585.5,1516.6,1585.6,1516.4z M1540.8,1516.4
			c0.2-0.2,0.2-0.6,0.2-1.1c0-0.5,0-1,0-1.4v-7.8v-16.5v-4.1c0-0.4,0-0.8,0-1.1c0-0.3-0.1-0.6-0.3-0.9c-0.2-0.2-0.4-0.3-0.7-0.4
			c-0.3,0-0.6,0-1,0h-4.1c-0.1,0-0.1,0-0.2,0c-0.1,0-0.2,0-0.3,0c-0.3,0.1-0.5,0.3-0.6,0.5c-0.2,0.3-0.2,0.7-0.2,1.3
			c0,0.6,0,1.1,0,1.6v6.9v17.4v4.1c0,0.3,0,0.7,0.1,1c0,0.3,0.1,0.6,0.3,0.7c0.2,0.2,0.4,0.3,0.7,0.3c0.3,0,0.6,0,1,0h2.8
			c0.2,0,0.5,0,0.8,0.1c0.2,0,0.5,0,0.7-0.1C1540.3,1516.8,1540.6,1516.7,1540.8,1516.4z M1518.3,1516.4c0.1-0.2,0.1-0.3,0-0.5
			c-0.1-0.2-0.1-0.5-0.2-0.8c-0.1-0.3-0.1-0.6-0.2-0.9l-0.1-0.8c-0.1-0.3-0.1-0.7-0.1-1s0-0.7-0.1-1c0-0.2,0-0.3,0-0.4
			c0-0.1,0-0.2,0-0.4c0-0.2,0-0.3,0-0.5c0-0.1,0-0.3,0-0.4c0-0.2,0-0.4,0-0.5c0-0.2,0-0.4,0-0.6c-0.1-0.3-0.1-0.6-0.1-0.9
			c0-0.3-0.1-0.6-0.1-0.9c-0.2-0.7-0.4-1.4-0.6-2c-0.2-0.6-0.5-1.1-0.9-1.7c-0.2-0.3-0.5-0.6-0.8-0.9c-0.3-0.2-0.6-0.5-0.9-0.8
			c-0.1-0.1-0.2-0.2-0.3-0.3c-0.1-0.1-0.2-0.3-0.1-0.5c0.1-0.2,0.2-0.3,0.3-0.4c0.1-0.1,0.3-0.2,0.4-0.3c0.2-0.2,0.4-0.3,0.6-0.5
			c0.2-0.1,0.4-0.3,0.6-0.5c0.1-0.1,0.2-0.2,0.4-0.3c0.1-0.1,0.2-0.3,0.3-0.4c0.1-0.1,0.1-0.2,0.2-0.3c0.1-0.1,0.2-0.2,0.2-0.3
			c0.3-0.4,0.5-0.8,0.6-1.2c0.2-0.4,0.3-0.9,0.5-1.4c0.1-0.2,0.1-0.4,0.1-0.6c0-0.2,0-0.4,0.1-0.7c0.1-0.2,0.1-0.5,0.1-0.9
			c0-0.4,0-0.7-0.1-0.9v-0.4c-0.1-0.1-0.1-0.3-0.1-0.4c0-0.1,0-0.3,0-0.4c-0.2-0.6-0.3-1.1-0.4-1.6c-0.1-0.5-0.3-0.9-0.6-1.4
			c-0.1-0.2-0.2-0.3-0.3-0.5c-0.1-0.2-0.2-0.3-0.3-0.5c-0.4-0.7-1-1.2-1.7-1.8c-0.7-0.5-1.4-0.9-2.2-1.3c-0.2-0.1-0.4-0.2-0.7-0.2
			c-0.2-0.1-0.4-0.1-0.7-0.2c-0.2-0.1-0.3-0.1-0.5-0.1c-0.2,0-0.3,0-0.5-0.1c-0.4-0.1-0.9-0.2-1.3-0.2c-0.5,0-0.9,0-1.4,0h-16.2
			c-0.1,0-0.1,0-0.2,0c-0.1,0-0.2,0-0.2,0c-0.3,0.1-0.6,0.3-0.7,0.5c-0.2,0.2-0.2,0.5-0.2,0.9c0,0.4,0,0.7,0,1.1v28.9
			c0,0.4,0,0.8,0,1.3c0,0.4,0.1,0.7,0.4,0.9c0.3,0.2,0.7,0.3,1.3,0.3c0.6,0,1.1,0,1.6,0h2.1c0.3,0,0.5,0,0.7,0c0.2,0,0.4,0,0.6-0.1
			c0.3-0.1,0.5-0.3,0.6-0.6c0.1-0.2,0.1-0.3,0.1-0.5c0-0.2,0-0.4,0-0.7s0-0.5,0-0.8c0-0.3,0-0.5,0-0.8v-6.1c0-0.5,0-1.1,0-1.8
			c0-0.7,0.1-1.1,0.3-1.5c0.1-0.2,0.3-0.2,0.5-0.3c0.2,0,0.4-0.1,0.7-0.1h3.9c0.7,0,1.5,0,2.2,0c0.8,0,1.4,0.1,2,0.3
			c0.2,0.1,0.4,0.1,0.5,0.1s0.3,0.1,0.5,0.1c0.6,0.3,1.1,0.7,1.5,1.3c0.3,0.6,0.6,1.2,0.9,1.9c0.1,0.3,0.2,0.7,0.2,1.1
			c0,0.4,0.1,0.7,0.2,1.1c0,0.2,0,0.3,0.1,0.4c0.1,0.3,0.1,0.7,0.1,1.2c0,0.4,0.1,0.8,0.1,1.2c0,0.1,0,0.2,0,0.3c0,0.1,0,0.2,0,0.4
			c0.1,0.5,0.2,1.1,0.2,1.7c0,0.6,0.2,1.1,0.4,1.5c0.2,0.3,0.5,0.5,0.8,0.5c0.4,0.1,0.8,0.1,1.3,0.1h2.6c0.3,0,0.7,0,1,0
			c0.3,0,0.6,0,0.8-0.2C1518.2,1516.7,1518.3,1516.6,1518.3,1516.4z M1475.2,1514.9v-2.2c0-0.2,0-0.5,0-0.7c0-0.2-0.1-0.4-0.1-0.6
			c-0.1-0.3-0.3-0.4-0.5-0.5c-0.2-0.1-0.4-0.1-0.6-0.1c-0.2,0-0.5,0-0.7,0h-2.5h-8.9h-2c-0.2,0-0.3,0-0.5,0c-0.2,0-0.4,0-0.5,0h-0.5
			c-0.2-0.1-0.3-0.1-0.5-0.1c-0.1,0-0.3-0.1-0.4-0.2c-0.2-0.2-0.4-0.4-0.4-0.7c0-0.3-0.1-0.6-0.1-1v-2.7v-1.8c0-0.2,0-0.3,0-0.5
			c0-0.2,0-0.3,0.1-0.5c0.1-0.3,0.2-0.5,0.4-0.6c0.2-0.1,0.5-0.2,0.8-0.3c0.3,0,0.6-0.1,1,0c0.3,0,0.7,0,1.1,0h9.3
			c0.2,0,0.5,0,0.8,0c0.3,0,0.7,0,1,0c0.3,0,0.6,0,0.9-0.1c0.3,0,0.5-0.1,0.6-0.2c0.2-0.2,0.3-0.4,0.4-0.6c0.1-0.2,0.1-0.3,0.1-0.6
			c0-0.2,0-0.4,0-0.7c0-0.3,0-0.6,0-0.9c0-0.3,0-0.7,0-1c0-0.3-0.1-0.6-0.1-0.9c-0.1-0.3-0.2-0.5-0.3-0.6c-0.1-0.1-0.3-0.2-0.6-0.2
			c-0.3,0-0.6-0.1-0.9-0.1c-0.3,0-0.7,0-1,0c-0.3,0-0.6,0-0.8,0h-8.2h-2.6c-0.3,0-0.6,0-0.8,0c-0.2,0-0.5-0.1-0.7-0.2
			c-0.2-0.1-0.3-0.2-0.3-0.4c-0.1-0.2-0.1-0.4-0.2-0.7v-1.4v-2.7c0-0.4,0-0.7,0.1-1c0.1-0.3,0.2-0.5,0.4-0.7
			c0.1-0.1,0.3-0.2,0.6-0.2c0.3,0,0.6-0.1,0.9-0.1c0.3,0,0.7,0,1,0c0.3,0,0.6,0,0.9,0h8.6h3.3c0.3,0,0.6,0,0.9,0
			c0.3,0,0.5-0.1,0.7-0.2c0.2-0.1,0.4-0.4,0.5-0.8c0-0.3,0-0.5,0.1-0.7c0-0.2,0-0.4,0-0.7c0-0.2,0-0.5,0-0.7c0-0.2,0-0.5,0-0.7
			c0-0.2,0-0.5,0-0.7v-0.5c-0.1-0.1-0.1-0.2-0.1-0.4c0-0.1-0.1-0.2-0.1-0.3c-0.2-0.2-0.4-0.3-0.8-0.4c-0.4,0-0.7-0.1-1.1-0.1h-4.1
			h-17.8c-0.1,0-0.1,0-0.2,0c-0.1,0-0.1,0-0.2,0c-0.3,0.1-0.6,0.3-0.7,0.5c-0.1,0.2-0.2,0.4-0.2,0.7c0,0.3,0,0.6,0,0.9v2.9v10.4
			v12.9v3.4c0,0.3,0,0.6,0,0.9c0,0.3,0.1,0.5,0.2,0.7c0.2,0.2,0.4,0.4,0.7,0.4c0.3,0.1,0.7,0.1,1.2,0.1h3.8h14.1h3.6
			c0.3,0,0.7,0,1,0c0.3,0,0.5-0.1,0.7-0.2c0.3-0.2,0.4-0.4,0.4-0.7C1475.2,1515.6,1475.2,1515.3,1475.2,1514.9z M1435.6,1486.1
			c0-0.3,0-0.7,0-1c0-0.3,0-0.6-0.1-0.9c-0.1-0.3-0.1-0.5-0.3-0.6c-0.2-0.2-0.4-0.3-0.7-0.3c-0.3,0-0.7,0-1,0h-3.8h-16.6
			c-0.1,0-0.1,0-0.2,0c-0.1,0-0.1,0-0.2,0c-0.3,0.1-0.6,0.2-0.7,0.5c-0.2,0.3-0.2,0.7-0.2,1.3c0,0.6,0,1.1,0,1.6v6.9v17.4v4.1
			c0,0.3,0,0.7,0,1c0,0.3,0.1,0.6,0.3,0.7c0.2,0.2,0.4,0.2,0.7,0.3c0.3,0,0.6,0,1,0h2.8c0.2,0,0.5,0,0.8,0.1c0.2,0,0.5,0,0.7-0.1
			c0.2-0.1,0.3-0.1,0.5-0.2c0.2-0.1,0.3-0.2,0.4-0.3c0.2-0.3,0.2-0.8,0.2-1.4c0-0.7,0-1.2,0-1.6v-6.7v-1.3v-0.7v-0.5
			c0-0.1,0.1-0.2,0.1-0.3s0-0.2,0.1-0.3c0.2-0.4,0.5-0.6,1.1-0.7c0.6,0,1.2-0.1,1.8-0.1h7.8c0.4,0,0.9,0,1.6,0c0.6,0,1.1,0,1.3-0.2
			c0.2-0.1,0.4-0.4,0.5-0.7c0.1-0.2,0.1-0.5,0.1-0.8c0-0.3,0-0.6,0-0.8c0-0.5,0-1.1,0-1.7c0-0.6-0.1-1-0.5-1.3
			c-0.1-0.1-0.3-0.2-0.6-0.2c-0.3,0-0.6-0.1-0.9-0.1c-0.3,0-0.7,0-1,0c-0.3,0-0.6,0-0.9,0h-6.6h-1.8c-0.2,0-0.5,0-0.7,0
			c-0.2,0-0.4,0-0.6-0.1c-0.2-0.1-0.4-0.2-0.5-0.4c-0.1-0.2-0.2-0.4-0.2-0.7v-0.5c0-0.2,0-0.3,0-0.6c0-0.2,0-0.4,0-0.6v-2.3
			c0-0.3,0-0.6,0-0.9c0-0.3,0-0.6,0.1-0.9c0.1-0.3,0.3-0.6,0.5-0.7c0.3-0.2,0.8-0.3,1.6-0.3c0.7,0,1.3,0,1.8,0h9.2c0.4,0,1,0,1.6,0
			c0.6,0,1.1-0.1,1.3-0.3c0.1-0.1,0.2-0.2,0.3-0.3c0-0.2,0.1-0.3,0.2-0.5c0-0.2,0-0.4,0-0.6c0-0.2,0-0.5,0-0.7
			C1435.6,1486.7,1435.6,1486.4,1435.6,1486.1z M1397.9,1486.1c0-0.3,0-0.7,0-1c0-0.3,0-0.6-0.1-0.9c-0.1-0.3-0.1-0.5-0.3-0.6
			c-0.2-0.2-0.4-0.3-0.7-0.3c-0.3,0-0.7,0-1,0h-3.8h-16.6c-0.1,0-0.1,0-0.2,0c-0.1,0-0.1,0-0.2,0c-0.4,0.1-0.6,0.2-0.7,0.5
			c-0.2,0.3-0.2,0.7-0.2,1.3c0,0.6,0,1.1,0,1.6v6.9v17.4v4.1c0,0.3,0,0.7,0,1c0,0.3,0.1,0.6,0.4,0.7c0.2,0.2,0.4,0.2,0.7,0.3
			c0.3,0,0.6,0,1,0h2.8c0.2,0,0.5,0,0.8,0.1c0.2,0,0.5,0,0.7-0.1c0.2-0.1,0.3-0.1,0.5-0.2c0.2-0.1,0.3-0.2,0.4-0.3
			c0.2-0.3,0.2-0.8,0.2-1.4c0-0.7,0-1.2,0-1.6v-6.7v-1.3v-0.7v-0.5c0-0.1,0.1-0.2,0.1-0.3s0-0.2,0.1-0.3c0.2-0.4,0.5-0.6,1.1-0.7
			c0.6,0,1.2-0.1,1.8-0.1h7.8c0.4,0,0.9,0,1.6,0c0.6,0,1.1,0,1.3-0.2c0.2-0.1,0.4-0.4,0.5-0.7c0.1-0.2,0.1-0.5,0.1-0.8
			c0-0.3,0-0.6,0-0.8c0-0.5,0-1.1,0-1.7c0-0.6-0.1-1-0.4-1.3c-0.1-0.1-0.3-0.2-0.6-0.2c-0.3,0-0.6-0.1-0.9-0.1c-0.3,0-0.7,0-1,0
			c-0.3,0-0.6,0-0.9,0h-6.6h-1.8c-0.2,0-0.5,0-0.7,0c-0.2,0-0.4,0-0.6-0.1c-0.3-0.1-0.4-0.2-0.5-0.4c-0.1-0.2-0.2-0.4-0.2-0.7v-0.5
			c0-0.2,0-0.3,0-0.6s0-0.4,0-0.6v-2.3c0-0.3,0-0.6,0-0.9c0-0.3,0-0.6,0.1-0.9c0.1-0.3,0.3-0.6,0.5-0.7c0.3-0.2,0.8-0.3,1.5-0.3
			c0.7,0,1.3,0,1.8,0h9.2c0.5,0,1,0,1.6,0c0.6,0,1.1-0.1,1.3-0.3c0.1-0.1,0.2-0.2,0.3-0.3c0.1-0.2,0.1-0.3,0.2-0.5
			c0-0.2,0-0.4,0-0.6c0-0.2,0-0.5,0-0.7C1397.9,1486.7,1397.9,1486.4,1397.9,1486.1z M1359.5,1500.8c0.1-0.2,0.1-0.5,0.1-1
			c0-0.5,0-0.8-0.1-1v-0.4c0-0.2,0-0.3,0-0.6c0-0.2,0-0.4-0.1-0.6c-0.1-0.2-0.1-0.4-0.1-0.6c0-0.2,0-0.4-0.1-0.7
			c-0.1-0.3-0.2-0.7-0.2-1c-0.1-0.3-0.1-0.7-0.2-1c-0.2-0.5-0.3-0.9-0.4-1.3c-0.1-0.4-0.3-0.8-0.5-1.3c-0.2-0.6-0.6-1.2-0.9-1.7
			c-0.3-0.5-0.7-1-1-1.5c-0.1-0.2-0.3-0.3-0.4-0.5c-0.2-0.2-0.3-0.3-0.5-0.5c-0.3-0.4-0.7-0.8-1.1-1.1c-0.5-0.4-0.9-0.7-1.3-1
			c-1.3-0.9-2.8-1.6-4.4-2.2c-1.7-0.5-3.6-0.8-5.8-0.7c-0.1,0-0.2,0-0.3,0c-0.1,0-0.2,0-0.3,0l-1.4,0.2c-0.2,0-0.3,0-0.5,0
			s-0.3,0-0.4,0.1c-0.5,0.1-0.9,0.2-1.4,0.3c-0.5,0.1-0.9,0.2-1.3,0.4c-1.8,0.7-3.3,1.6-4.5,2.6c-1.2,1-2.3,2.3-3.3,3.8
			c-0.3,0.5-0.6,1-0.8,1.5c-0.2,0.5-0.5,1.1-0.7,1.6c-0.2,0.5-0.3,1-0.4,1.6c-0.1,0.5-0.2,1-0.4,1.6c-0.1,0.2-0.1,0.3-0.1,0.5
			c0,0.2,0,0.3-0.1,0.5c-0.1,0.2-0.1,0.4-0.1,0.6c0,0.2,0,0.4-0.1,0.6v0.3c0,0.2,0,0.3,0,0.4s0,0.3,0,0.4c-0.1,0.2-0.1,0.4-0.1,0.7
			c0,0.3,0,0.6,0.1,0.7c0,0.2,0,0.4,0,0.6s0,0.4,0,0.6c0.1,0.1,0.1,0.3,0.1,0.4c0,0.1,0,0.3,0,0.4c0.1,0.2,0.1,0.5,0.1,0.7
			c0,0.2,0.1,0.5,0.1,0.7c0,0.1,0,0.2,0,0.4s0,0.2,0.1,0.4c0.2,0.5,0.3,1,0.4,1.5c0.1,0.5,0.3,1,0.5,1.4c0.8,1.9,1.9,3.5,3.2,4.9
			c1.3,1.4,2.9,2.5,4.8,3.3c0.3,0.2,0.7,0.3,1.1,0.4c0.4,0.1,0.7,0.3,1.1,0.4c0.2,0.1,0.5,0.1,0.8,0.2c0.2,0.1,0.5,0.1,0.8,0.2
			c0.2,0.1,0.5,0.1,0.7,0.1c0.2,0,0.5,0.1,0.7,0.1h0.5c0.2,0,0.3,0,0.5,0c0.1,0,0.3,0,0.4,0c0.1,0,0.3,0.1,0.6,0.1
			c0.3,0,0.5,0,0.7,0l1.6-0.2c0.2,0,0.3,0,0.5,0c0.2,0,0.3,0,0.5-0.1c0.3-0.1,0.7-0.1,1-0.2c0.3-0.1,0.7-0.2,1-0.3
			c2.4-0.8,4.4-1.9,6-3.4c1.6-1.5,2.9-3.3,3.8-5.5c0.2-0.5,0.4-1,0.5-1.6c0.2-0.5,0.3-1.1,0.5-1.7c0.1-0.2,0.1-0.4,0.1-0.7
			c0-0.2,0.1-0.5,0.1-0.7c0.1-0.3,0.1-0.7,0.1-1c0-0.3,0-0.7,0.1-1V1500.8z"/>
		<path class="st0" d="M1510.6,1493.2c0,0.5,0,0.9,0,1.3c-0.1,0.5-0.2,0.8-0.3,1.2c-0.1,0.3-0.2,0.7-0.4,0.9c-0.3,0.4-0.6,0.7-1,1
			c-0.4,0.2-0.9,0.5-1.4,0.6c-0.2,0.1-0.4,0.1-0.7,0.1c-0.2,0-0.5,0-0.7,0.1h-0.6c-0.2,0.1-0.4,0.1-0.7,0.1c-0.2,0-0.5,0-0.7,0h-2.8
			c-0.3,0-0.6,0-1,0c-0.4,0-0.8,0-1.1,0c-0.3,0-0.7-0.1-1-0.1c-0.3-0.1-0.5-0.2-0.6-0.4c-0.2-0.2-0.2-0.5-0.2-0.9s0-0.8,0-1.1v-4.4
			c0-0.4,0-0.8,0-1.2c0-0.4,0.1-0.7,0.2-1c0.1-0.2,0.4-0.4,0.8-0.5c0.1,0,0.1,0,0.2,0c0.1,0,0.1,0,0.2-0.1h5.5c0.8,0,1.5,0,2.2,0
			c0.7,0,1.3,0.2,1.8,0.4c1,0.4,1.7,1.2,2.1,2.1c0.1,0.1,0.1,0.2,0.1,0.3c0,0.1,0,0.2,0.1,0.3
			C1510.4,1492.3,1510.5,1492.7,1510.6,1493.2z"/>
		<path class="st0" d="M1352.1,1499.5c0.1,0.2,0.1,0.4,0.1,0.7c0,0.3,0,0.5-0.1,0.7v0.4c0,0.2,0,0.3,0,0.4c0,0.1,0,0.3,0,0.4
			l-0.1,1.1c-0.1,0.4-0.2,0.8-0.3,1.2c-0.1,0.4-0.2,0.8-0.4,1.1c-0.5,1.4-1.2,2.5-2,3.3c-0.8,0.9-1.8,1.6-3.2,2.1
			c-0.3,0.1-0.6,0.2-0.9,0.3c-0.3,0-0.6,0.1-1,0.2c-0.2,0.1-0.3,0.1-0.4,0.1c-0.1,0-0.3,0-0.4,0h-0.4c-0.2,0-0.4,0-0.6,0
			c-0.2,0-0.4,0-0.6-0.1c-0.2,0-0.3,0-0.5,0c-0.1,0-0.3,0-0.4-0.1c-0.4-0.1-0.9-0.2-1.3-0.4c-0.4-0.1-0.8-0.3-1.1-0.5
			c-0.2-0.1-0.4-0.2-0.6-0.3c-0.2-0.1-0.3-0.2-0.5-0.4c-0.8-0.5-1.4-1.2-1.9-2.1c-0.5-0.9-0.9-1.8-1.3-2.8c-0.1-0.3-0.2-0.7-0.3-1
			c0-0.3-0.1-0.7-0.2-1c0-0.1,0-0.2,0-0.4c0-0.1,0-0.2,0-0.4c0-0.1,0-0.3,0-0.4c0-0.1,0-0.3,0-0.4v-0.5c-0.1-0.2-0.1-0.5-0.1-0.9
			c0-0.4,0.1-0.7,0.1-0.9c0-0.2,0-0.3,0-0.5c0-0.2,0-0.4,0-0.5c0-0.1,0.1-0.2,0.1-0.4s0-0.2,0-0.3c0.1-0.3,0.2-0.7,0.2-1
			c0-0.3,0.1-0.7,0.2-1c0.5-1.4,1.1-2.6,1.9-3.7c0.8-1,1.8-1.8,3.2-2.4c0.3-0.1,0.6-0.2,0.9-0.3c0.3-0.1,0.7-0.2,1-0.2
			c0.2-0.1,0.3-0.1,0.4-0.1c0.1,0,0.2,0,0.4,0c0.1,0,0.1,0,0.2,0c0.1,0,0.2,0,0.2,0c2.3,0,4.2,0.5,5.5,1.5c1.3,1,2.3,2.3,3,3.9
			c0.2,0.3,0.3,0.7,0.4,1c0.1,0.3,0.2,0.7,0.3,1.1c0.1,0.2,0.1,0.4,0.1,0.5c0.1,0.2,0.1,0.4,0.1,0.7c0,0.2,0.1,0.5,0.1,0.7
			c0.1,0.1,0.1,0.2,0.1,0.3c0,0.1,0,0.2,0,0.4V1499.5z"/>
	</g>
	<g>
	</g>
</g>
</svg>
