<?xml version="1.0" encoding="utf-8"?>
<!-- Generator: Adobe Illustrator 20.0.0, SVG Export Plug-In . SVG Version: 6.00 Build 0)  -->
<!DOCTYPE svg PUBLIC "-//W3C//DTD SVG 1.1//EN" "http://www.w3.org/Graphics/SVG/1.1/DTD/svg11.dtd">
<svg version="1.1" id="Layer_1" xmlns="http://www.w3.org/2000/svg" xmlns:xlink="http://www.w3.org/1999/xlink" x="0px" y="0px"
	 viewBox="0 0 4000 4000" style="enable-background:new 0 0 4000 4000;" xml:space="preserve">
<style type="text/css">
	.st0{opacity:0.8;}
</style>
<title>Cover</title>
<g id="XMLID_1_" class="st0">
	<g>
		<path d="M2289,1986.3c0.1,1,0.1,1.9-0.1,2.6c-0.2,0.9-0.4,1.7-0.6,2.4c-0.2,0.7-0.5,1.3-0.9,1.9c-0.6,0.8-1.3,1.5-2.1,2
			c-0.8,0.5-1.8,0.9-2.8,1.2c-0.4,0.1-0.9,0.2-1.4,0.2s-1,0.1-1.5,0.2h-1.2c-0.4,0.1-0.8,0.2-1.3,0.1c-0.5,0-1,0-1.4,0h-5.6
			c-0.6,0-1.2,0-2,0c-0.8,0-1.5,0-2.2,0c-0.7-0.1-1.3-0.2-1.9-0.3c-0.6-0.1-1-0.4-1.2-0.8c-0.3-0.4-0.5-1-0.5-1.8s0-1.5,0-2.3v-8.8
			c0-0.8,0-1.5,0-2.3c0-0.8,0.1-1.4,0.4-1.9c0.2-0.4,0.8-0.8,1.5-0.9c0.1,0,0.2,0,0.4,0c0.1,0,0.2,0,0.4-0.1h11c1.5,0,3,0,4.3,0.1
			c1.4,0.1,2.6,0.3,3.7,0.8c2,0.9,3.4,2.3,4.2,4.2c0.1,0.2,0.2,0.4,0.2,0.6c0,0.2,0.1,0.4,0.2,0.7
			C2288.8,1984.6,2288.9,1985.3,2289,1986.3z"/>
		<path d="M2088.1,1978.7c0.5,0.1,1,0.2,1.4,0.2c0.4,0,0.9,0.1,1.4,0.1c0.6,0.1,1.1,0.3,1.7,0.4c0.6,0.2,1.1,0.3,1.7,0.5
			c1.8,0.8,3.3,1.7,4.5,2.8c1.2,1.1,2.3,2.4,3.3,3.9c0.5,0.8,0.9,1.7,1.2,2.6c0.3,0.9,0.6,1.9,0.9,2.9c0.1,0.3,0.2,0.6,0.1,0.9
			c0,0.3,0,0.6,0.1,0.9c0.1,0.5,0.2,1.1,0.2,1.7c0,0.6,0.1,1.2,0.2,1.8v1.8c0.1,0.3,0.2,0.8,0.2,1.5c0,0.7-0.1,1.2-0.2,1.5v0.9
			c-0.1,0.5-0.2,1-0.2,1.5c0,0.5-0.1,1-0.2,1.4v0.8c-0.2,0.6-0.3,1.3-0.5,1.9c-0.1,0.6-0.3,1.2-0.6,1.7c-0.9,2.3-2.1,4.3-3.4,5.9
			c-1.4,1.6-3.2,2.8-5.5,3.8c-1.8,0.7-3.9,1-6.4,1.1c-2.5,0-5,0.1-7.5,0.1c-1.1,0-2.2,0-3.3-0.1c-1.1,0-1.8-0.4-2.2-1.2
			c-0.1-0.3-0.2-0.7-0.2-1.1s0-0.8,0-1.3v-0.9c-0.1-0.3-0.2-0.7-0.2-1.1c0-0.4,0.1-0.8,0.1-1.2V1988c0-0.9,0-1.8,0.1-2.7
			s0.1-1.7,0.1-2.6c0-0.7,0-1.3,0-1.9c0-0.6,0.1-1,0.4-1.3c0.2-0.3,0.4-0.5,0.8-0.6c0.3-0.1,0.6-0.2,0.9-0.3c0.2-0.1,0.4-0.1,0.7,0
			c0.3,0.1,0.5,0,0.6-0.1h4.2c0.4,0,0.8,0,1.1,0c0.4,0,0.7,0,1,0h2.1c0.2,0.1,0.4,0.1,0.7,0.1
			C2087.6,1978.6,2087.9,1978.6,2088.1,1978.7z"/>
		<path d="M2025.7,1998.9c0.1,0.3,0.2,0.8,0.2,1.4c0,0.6-0.1,1-0.2,1.4v0.8c0,0.3,0,0.6,0,0.9c0,0.3,0,0.5-0.1,0.8l-0.3,2.3
			c-0.2,0.8-0.5,1.6-0.6,2.5c-0.2,0.8-0.4,1.6-0.7,2.3c-1.1,2.7-2.4,4.9-3.9,6.6c-1.5,1.7-3.7,3.1-6.4,4.2c-0.6,0.2-1.2,0.4-1.8,0.5
			c-0.6,0.1-1.3,0.2-1.9,0.3c-0.3,0.1-0.6,0.2-0.8,0.1s-0.5,0-0.8,0.1h-0.8c-0.4,0-0.8,0-1.2,0c-0.4,0-0.8-0.1-1.1-0.2
			c-0.3-0.1-0.6-0.1-0.9,0c-0.3,0-0.6,0-0.9-0.1c-0.9-0.2-1.7-0.5-2.5-0.8c-0.8-0.2-1.5-0.6-2.2-1c-0.4-0.2-0.7-0.4-1.1-0.6
			c-0.3-0.2-0.7-0.4-1-0.8c-1.5-1.1-2.8-2.5-3.8-4.2c-1-1.7-1.9-3.6-2.6-5.6c-0.2-0.6-0.4-1.3-0.5-2c-0.1-0.7-0.2-1.4-0.4-2.1
			c0-0.2,0-0.5,0-0.7c0-0.2,0-0.5,0-0.7c-0.1-0.2-0.1-0.5-0.1-0.8c0-0.3,0-0.6-0.1-0.8v-1c-0.1-0.3-0.2-0.9-0.1-1.8
			c0-0.8,0.1-1.4,0.2-1.8c0.1-0.3,0.1-0.7,0-1c-0.1-0.4,0-0.7,0.1-1c0.1-0.2,0.1-0.5,0.1-0.7c0-0.2,0-0.5,0.1-0.7
			c0.2-0.7,0.3-1.4,0.4-2c0.1-0.7,0.2-1.3,0.4-2c0.9-2.8,2.2-5.3,3.7-7.3c1.5-2,3.6-3.6,6.3-4.7c0.6-0.2,1.2-0.5,1.8-0.6
			c0.7-0.2,1.3-0.3,2-0.4c0.3-0.1,0.6-0.2,0.8-0.1s0.5,0,0.8,0c0.1-0.1,0.3-0.1,0.4-0.1c0.2,0,0.3,0,0.4,0c4.7,0,8.3,1,10.9,3
			c2.6,2,4.6,4.6,6,7.8c0.3,0.7,0.6,1.4,0.8,2.1c0.2,0.7,0.4,1.4,0.6,2.1c0.1,0.4,0.2,0.7,0.2,1c0.1,0.4,0.2,0.9,0.2,1.4
			c0,0.5,0.1,1,0.2,1.5c0.1,0.2,0.2,0.5,0.1,0.7c0,0.2,0,0.5,0.1,0.7V1998.9z"/>
		<path d="M1942.6,2011.2c0.2,1,0.3,2,0.1,2.8v0.6c-0.2,0.7-0.4,1.4-0.6,2c-0.2,0.7-0.4,1.2-0.8,1.8c-0.8,1.1-1.8,2-3,2.5
			c-1.2,0.5-2.6,0.9-4.2,1.1c-1.6,0.2-3.2,0.3-5,0.3c-1.8,0-3.6,0-5.5,0c-0.6,0-1.2,0-2,0c-0.8,0-1.5,0-2.2,0
			c-0.7,0-1.4-0.1-1.9-0.3c-0.6-0.2-1-0.4-1.2-0.7c-0.3-0.4-0.5-1.1-0.5-1.8c0-0.8-0.1-1.6-0.1-2.3v-8.4c0-0.7,0-1.4,0-2.2
			c0-0.8,0.2-1.4,0.5-1.9c0.2-0.4,0.8-0.8,1.5-0.9c0.1,0,0.2,0,0.3,0.1c0.1,0,0.2,0,0.3-0.1h10.7c1.4,0,2.7,0,4,0.1
			c1.3,0.1,2.5,0.2,3.5,0.6c2.6,0.9,4.3,2.5,5.2,4.7C1942.2,2009.4,1942.4,2010.2,1942.6,2011.2z"/>
		<path d="M1939,1981.5c0.8,1.2,1.1,2.9,0.9,5.1c-0.1,1.3-0.4,2.4-0.9,3.2c-0.9,1.6-2.4,2.7-4.2,3.3c-0.7,0.2-1.5,0.4-2.4,0.5
			c-1,0.1-1.9,0.1-3,0.1c-1,0-2.1,0-3.1,0c-1,0-2-0.1-3-0.1c-0.6,0-1.2,0-1.9,0.1c-0.7,0-1.4,0-2,0c-0.7,0-1.3-0.1-1.8-0.2
			c-0.5-0.1-0.9-0.3-1.2-0.7c-0.1-0.2-0.2-0.5-0.3-0.8c-0.1-0.3-0.2-0.6-0.3-1v-0.9c-0.1-0.3-0.1-0.7,0-1.2c0-0.5,0-0.9,0-1.4v-5.1
			c0-0.7,0-1.4,0-2c0-0.7,0.2-1.2,0.5-1.7c0.2-0.4,0.7-0.7,1.3-0.9c0.1-0.1,0.3-0.1,0.4-0.1c0.2,0,0.3,0,0.4-0.1h8
			c0.9,0,1.8,0,2.8,0c1,0,1.8,0,2.6,0.2c0.5,0,0.9,0,1.1,0.1c0.5,0.1,1,0.2,1.4,0.3c0.4,0.1,0.9,0.2,1.2,0.3
			C1937.1,1979.3,1938.2,1980.2,1939,1981.5z"/>
		<path d="M2425.1,2021.3c-0.3,0-0.7,0-1,0c-0.4,0-0.7,0-1,0h-0.9c-0.3-0.1-0.6-0.2-0.9-0.2c-0.3,0-0.5-0.1-0.7-0.3
			c-0.4-0.3-0.7-0.8-0.8-1.4c-0.1-0.6-0.1-1.3-0.1-2v-5.3v-3.6c0-0.3,0-0.6,0-1c0-0.3,0-0.7,0.1-1c0.2-0.6,0.5-1,0.9-1.3
			c0.4-0.3,0.9-0.5,1.5-0.6c0.6-0.1,1.2-0.1,1.9-0.1s1.4,0,2.2,0h18.4c0.4,0,1,0,1.7,0.1c0.7,0,1.3,0.1,2,0.1c0.7,0,1.3,0,1.8-0.1
			c0.5-0.1,1-0.2,1.3-0.4c0.4-0.3,0.6-0.7,0.8-1.2c0.1-0.3,0.2-0.7,0.2-1.1c0-0.4,0-0.9,0-1.3c0-0.5,0-1.1,0-1.8c0-0.7,0-1.4,0-2
			c0-0.7-0.1-1.3-0.2-1.8c-0.1-0.6-0.4-0.9-0.7-1.1c-0.3-0.2-0.6-0.3-1.2-0.4c-0.5-0.1-1.1-0.1-1.7-0.1c-0.6,0-1.3,0-1.9,0
			c-0.7,0-1.2,0-1.6,0h-16.3h-5.1c-0.6,0-1.1,0-1.6,0c-0.5,0-0.9-0.2-1.3-0.4c-0.3-0.2-0.5-0.4-0.7-0.8c-0.1-0.3-0.2-0.8-0.4-1.3
			v-2.7v-5.4c0-0.8,0.1-1.4,0.1-2c0.1-0.6,0.4-1.1,0.8-1.4c0.3-0.2,0.7-0.3,1.2-0.4c0.6-0.1,1.2-0.2,1.9-0.2c0.7,0,1.3,0,2,0
			c0.7,0,1.2,0,1.8,0h17.1h6.5c0.6,0,1.2,0,1.8,0s1-0.1,1.4-0.4c0.4-0.2,0.8-0.8,0.9-1.5c0-0.6,0-1.1,0.1-1.4c0.1-0.4,0.1-0.9,0-1.4
			c0-0.5,0-1,0-1.5c0-0.4,0-0.9,0-1.4c0-0.5,0-1,0-1.4v-1c-0.1-0.2-0.2-0.5-0.2-0.8c0-0.2-0.1-0.5-0.2-0.7c-0.3-0.4-0.8-0.7-1.5-0.8
			c-0.7-0.1-1.4-0.1-2.2-0.1h-8.2h-35.4c-0.1,0.1-0.2,0.1-0.4,0c-0.1,0-0.3,0-0.4,0.1c-0.7,0.2-1.2,0.5-1.4,0.9
			c-0.2,0.3-0.4,0.8-0.4,1.3c0,0.6,0,1.1,0,1.7v5.9v20.6v25.7v6.8c0,0.6,0,1.2,0,1.8c0,0.6,0.1,1.1,0.4,1.5c0.3,0.5,0.8,0.8,1.5,0.9
			c0.7,0.1,1.4,0.2,2.3,0.2h7.5h28h7.1c0.7,0,1.3,0,1.9,0s1.1-0.2,1.5-0.5c0.5-0.3,0.8-0.8,0.9-1.5c0.1-0.7,0.1-1.4,0.1-2.1v-4.3
			c0-0.5,0-1,0-1.4c0-0.4-0.1-0.8-0.2-1.1c-0.2-0.5-0.5-0.8-1-1c-0.4-0.2-0.8-0.3-1.3-0.3c-0.5,0-1,0-1.5,0h-5h-17.8H2425.1z
			 M2355,2022.7c-0.2,0.1-0.6,0.1-1.1,0.1c-0.6,0-1,0-1.2,0c-0.3-0.1-0.6-0.1-0.9,0s-0.5,0-0.9-0.2c-0.5-0.1-1-0.2-1.5-0.3
			c-0.5-0.1-1-0.2-1.5-0.3c-1.8-0.6-3.3-1.5-4.4-2.6c-1.1-1.1-2-2.4-2.7-4.1c-0.2-0.7-0.4-1.4-0.5-2.1c-0.1-0.7-0.2-1.4-0.3-2.1
			c-0.1-0.2-0.1-0.6-0.1-1c-0.1-0.5-0.2-1.1-0.2-1.7c0-0.6,0.1-1.2,0.1-1.8v-1.5c-0.1-0.2-0.1-0.5-0.1-0.8c0-0.3,0.1-0.6,0.1-0.8
			v-3.3v-19.5v-9.5c0-0.8,0-1.6-0.1-2.4c0-0.8-0.2-1.4-0.5-1.9c-0.3-0.4-0.8-0.6-1.5-0.7c-0.7-0.1-1.3-0.1-2-0.1h-8
			c-0.1,0.1-0.3,0.1-0.4,0.1c-0.1,0-0.2,0-0.4,0c-0.6,0.2-1.1,0.5-1.5,0.9c-0.2,0.4-0.3,0.9-0.3,1.5c0,0.6,0,1.2,0,1.9v6.6v26.4
			c0,2.2,0,4.4,0,6.6c0,2.2,0.3,4.2,0.8,5.9c0.1,0.3,0.2,0.6,0.2,0.8c0,0.2,0.1,0.5,0.2,0.8c0.4,1.5,0.9,2.8,1.5,4
			c0.5,1.2,1.2,2.4,2,3.5c2.4,3.5,5.7,6,9.9,7.5c4.2,1.5,9.3,2.3,15.3,2.2c0.9,0,1.8,0,2.7-0.1c0.9-0.1,1.8-0.2,2.6-0.3
			c0.4-0.1,0.7-0.2,1.1-0.2c0.3,0,0.7-0.1,1.1-0.2c0.6-0.1,1.2-0.2,1.8-0.4c0.6-0.1,1.2-0.3,1.8-0.5c2.6-0.9,4.9-2,6.9-3.4
			c2.2-1.5,4-3.4,5.3-5.5c1.4-2.2,2.5-4.7,3.4-7.7c0.5-1.8,0.8-3.9,0.8-6.2c0.1-2.3,0.1-4.6,0.1-7v-19.1v-12.7c0-0.8,0-1.6,0-2.5
			c0-0.9-0.1-1.6-0.4-2.1c-0.2-0.4-0.8-0.8-1.7-0.9c-0.4-0.1-0.9-0.2-1.4-0.1c-0.5,0-1,0-1.5,0h-6.1c-0.7,0-1.3,0.1-1.9,0.1
			c-0.6,0.1-1,0.3-1.3,0.7c-0.4,0.5-0.6,1.3-0.5,2.4c0,1.1,0.1,2,0.1,2.9v12.7v18.8c0,2.4-0.1,4.7-0.2,7c-0.1,2.2-0.5,4.2-1.2,5.8
			c-0.5,1.1-1.2,2-2,2.9c-0.8,0.9-1.8,1.5-3,2c-0.5,0.2-1.2,0.5-2.1,0.7c-0.4,0.1-0.9,0.2-1.4,0.3c-0.5,0.1-1,0.2-1.5,0.3H2355z
			 M1974.3,2002.9c-0.1,0.4-0.1,0.8,0,1.2c0.1,0.2,0.2,0.5,0.1,0.8c0,0.3,0,0.6,0.1,0.9c0.1,0.5,0.2,1,0.3,1.5
			c0.1,0.5,0.2,0.9,0.3,1.4c0.1,0.2,0.1,0.5,0.1,0.7s0.1,0.5,0.2,0.8c0.3,1,0.6,2,0.8,3c0.2,1,0.6,1.9,1,2.8c1.6,3.8,3.8,7,6.4,9.8
			c2.6,2.7,5.8,4.9,9.6,6.6c0.7,0.3,1.4,0.6,2.1,0.8c0.7,0.3,1.4,0.5,2.1,0.8c0.5,0.1,1,0.2,1.5,0.3c0.5,0.1,1,0.2,1.5,0.3
			c0.5,0.1,1,0.2,1.4,0.2c0.4,0,0.9,0.1,1.4,0.2h1c0.3,0.1,0.6,0.1,0.9,0.1c0.3,0,0.6,0,0.9,0c0.2,0.1,0.6,0.1,1.2,0.1
			s1.1,0,1.3-0.1l3.1-0.3c0.3-0.1,0.6-0.1,1-0.1c0.3,0,0.7-0.1,1-0.2c0.7-0.1,1.4-0.3,2.1-0.4c0.7-0.1,1.4-0.3,2.1-0.6
			c4.7-1.6,8.7-3.8,11.9-6.8c3.2-2.9,5.8-6.6,7.7-11c0.4-1,0.8-2.1,1.1-3.1c0.3-1.1,0.6-2.2,0.9-3.3c0.1-0.4,0.2-0.9,0.3-1.3
			c0.1-0.4,0.2-0.9,0.3-1.3c0.1-0.7,0.2-1.4,0.2-2.1c0-0.7,0.1-1.3,0.2-2v-1.2c0.1-0.4,0.2-1,0.1-1.9c0-0.9-0.1-1.6-0.2-1.9v-0.8
			c-0.1-0.3-0.1-0.7,0-1.1c0-0.4,0-0.8-0.2-1.2c-0.1-0.4-0.2-0.8-0.2-1.2c0-0.4-0.1-0.8-0.2-1.3c-0.2-0.7-0.3-1.4-0.5-2
			c-0.1-0.7-0.3-1.3-0.5-1.9c-0.3-0.9-0.6-1.8-0.9-2.7c-0.3-0.8-0.6-1.7-1-2.5c-0.5-1.2-1.1-2.3-1.8-3.4c-0.7-1-1.4-2.1-2.1-3.1
			c-0.3-0.3-0.5-0.6-0.8-1c-0.3-0.3-0.6-0.7-1-1c-0.6-0.8-1.3-1.5-2.2-2.2c-0.9-0.7-1.7-1.4-2.6-1.9c-2.6-1.8-5.5-3.3-8.8-4.3
			c-3.3-1-7.2-1.5-11.6-1.4c-0.1,0.1-0.3,0.1-0.5,0c-0.2-0.1-0.4-0.1-0.5,0l-2.8,0.3c-0.3,0.1-0.6,0.1-0.9,0.1
			c-0.3,0-0.6,0.1-0.9,0.2c-0.9,0.2-1.8,0.5-2.7,0.7c-0.9,0.2-1.8,0.4-2.6,0.8c-3.5,1.5-6.5,3.2-9,5.2c-2.5,2-4.6,4.5-6.5,7.6
			c-0.6,0.9-1.2,2-1.6,3c-0.4,1.1-0.9,2.1-1.4,3.2c-0.4,1-0.7,2-0.8,3.1c-0.2,1-0.4,2.1-0.8,3.2c-0.1,0.3-0.2,0.6-0.2,1
			s-0.1,0.7-0.2,1c-0.1,0.4-0.2,0.8-0.2,1.2c0,0.4,0,0.8-0.1,1.3v0.6c-0.1,0.3-0.1,0.6,0,0.9c0.1,0.3,0.1,0.6,0,0.9
			c-0.1,0.3-0.2,0.8-0.2,1.5c0,0.7,0.1,1.2,0.2,1.5C1974.4,2002.1,1974.4,2002.5,1974.3,2002.9z M1934.9,2033.6
			c0.3-0.1,0.6-0.2,0.9-0.1c0.3,0.1,0.6,0.1,0.8,0c0.3-0.1,0.6-0.1,0.9-0.1c0.3,0,0.6,0,0.9-0.1c0.7-0.1,1.4-0.2,2.2-0.3
			c0.8-0.1,1.5-0.3,2.2-0.5c1.4-0.4,2.7-0.9,3.9-1.5c1.2-0.5,2.4-1.2,3.5-1.9c2.8-2,4.8-4.6,6.1-7.8c0.2-0.5,0.3-1,0.5-1.6
			c0.1-0.6,0.2-1.2,0.4-1.8c0.1-0.6,0.2-1.5,0.3-2.7c0.1-1.1,0.1-2,0-2.7v-1c-0.1-0.5-0.2-1-0.3-1.6c-0.1-0.5-0.2-1.1-0.4-1.6
			c-0.6-1.9-1.4-3.7-2.4-5.1c-1.1-1.5-2.5-2.8-4.2-4c-0.5-0.3-1.1-0.6-1.8-1c-0.7-0.3-1.1-0.8-1.2-1.3c-0.1-0.3-0.1-0.6,0.1-0.8
			c0.2-0.2,0.3-0.4,0.4-0.5c0.4-0.5,0.8-0.9,1.3-1.2c0.5-0.3,1-0.7,1.4-1.1c1.3-1.4,2.4-3.3,3.2-5.6c0.1-0.3,0.2-0.6,0.2-1
			c0-0.3,0.1-0.7,0.2-1.2c0-0.1,0-0.3,0.1-0.6c0-0.2,0-0.5,0-0.7v-0.8c0.1-0.1,0.1-0.3,0.2-0.6c0-0.3,0-0.5,0-0.7
			c-0.1-0.2-0.1-0.5-0.1-0.8c0-0.2,0-0.5-0.1-0.8c-0.1-0.5-0.2-1-0.2-1.4s-0.1-0.9-0.2-1.3c-0.5-1.7-1.2-3.2-2-4.5
			c-0.8-1.3-1.9-2.4-3.1-3.3c-0.9-0.6-1.9-1.1-2.9-1.6c-1.1-0.4-2.2-0.8-3.4-1.3c-0.5-0.1-1-0.2-1.5-0.3c-0.5-0.1-1-0.1-1.5-0.3
			c-0.4-0.1-0.9-0.2-1.3-0.1c-0.4,0-0.8,0-1.2-0.1h-0.6c-0.3-0.1-0.6-0.1-0.9,0c-0.3,0.1-0.6,0-1-0.1c-0.4-0.1-0.8-0.1-1.2,0
			c-0.4,0-0.9,0-1.3,0h-28.2c-0.1,0.1-0.2,0.1-0.4,0c-0.1,0-0.2,0-0.4,0.1c-0.7,0.2-1.2,0.5-1.4,0.9c-0.3,0.5-0.5,1.2-0.4,2
			s0,1.7,0,2.4v55.5c0,0.7,0,1.6,0,2.6c0,1,0,1.8,0.2,2.3c0.3,0.8,0.8,1.2,1.6,1.3c0.7,0.1,1.6,0.2,2.7,0.2h27.6c0.3,0,0.6,0,0.9,0
			C1934.4,2033.7,1934.7,2033.7,1934.9,2033.6z M1704,2021.3c-0.3,0-0.7,0-1,0c-0.4,0-0.7,0-1,0h-0.9c-0.3-0.1-0.6-0.2-0.9-0.2
			c-0.3,0-0.5-0.1-0.7-0.3c-0.4-0.3-0.7-0.8-0.8-1.4c-0.1-0.6-0.2-1.3-0.2-2v-5.3v-3.6c0-0.3,0-0.6,0-1c0-0.3,0-0.7,0.1-1
			c0.2-0.6,0.5-1,0.9-1.3c0.4-0.3,0.9-0.5,1.5-0.6c0.6-0.1,1.2-0.1,1.9-0.1c0.7,0,1.4,0,2.2,0h18.4c0.4,0,1,0,1.7,0.1s1.3,0.1,2,0.1
			c0.7,0,1.3,0,1.8-0.1c0.5-0.1,1-0.2,1.3-0.4c0.4-0.3,0.6-0.7,0.8-1.2c0.1-0.3,0.2-0.7,0.2-1.1c0-0.4,0-0.9,0-1.3
			c0-0.5,0-1.1,0.1-1.8c0-0.7,0-1.4,0-2c0-0.7-0.1-1.3-0.2-1.8c-0.1-0.6-0.3-0.9-0.7-1.1c-0.2-0.2-0.7-0.3-1.2-0.4
			c-0.5-0.1-1.1-0.1-1.8-0.1c-0.6,0-1.3,0-1.9,0c-0.7,0-1.2,0-1.7,0h-16.2h-5.1c-0.6,0-1.1,0-1.6,0c-0.5,0-1-0.2-1.3-0.4
			c-0.3-0.2-0.5-0.4-0.7-0.8c-0.1-0.3-0.2-0.8-0.4-1.3v-2.7v-5.4c0-0.8,0-1.4,0.2-2c0.1-0.6,0.4-1.1,0.8-1.4
			c0.2-0.2,0.7-0.3,1.2-0.4c0.6-0.1,1.2-0.2,1.8-0.2c0.7,0,1.3,0,2,0c0.7,0,1.2,0,1.7,0h17.1h6.5c0.6,0,1.2,0,1.8,0
			c0.6,0,1-0.1,1.4-0.4c0.4-0.2,0.8-0.8,0.9-1.5c0-0.6,0-1.1,0.1-1.4c0.1-0.4,0.1-0.9,0-1.4c0-0.5,0-1,0-1.5c0-0.4,0-0.9,0-1.4
			c0-0.5,0-1,0-1.4v-1c-0.1-0.2-0.2-0.5-0.2-0.8c0-0.2-0.1-0.5-0.2-0.7c-0.3-0.4-0.8-0.7-1.5-0.8c-0.7-0.1-1.4-0.1-2.2-0.1h-8.2
			h-35.3c-0.1,0.1-0.2,0.1-0.4,0s-0.2,0-0.4,0.1c-0.7,0.2-1.2,0.5-1.4,0.9c-0.3,0.3-0.4,0.8-0.4,1.3c0,0.6,0,1.1,0,1.7v5.9v20.6
			v25.7v6.8c0,0.6,0,1.2,0,1.8c0,0.6,0.1,1.1,0.4,1.5c0.3,0.5,0.8,0.8,1.5,0.9c0.7,0.1,1.4,0.2,2.3,0.2h7.5h28h7.1
			c0.7,0,1.3,0,1.9,0s1.1-0.2,1.5-0.5c0.5-0.3,0.8-0.8,0.8-1.5c0.1-0.7,0.1-1.4,0.1-2.1v-4.3c0-0.5,0-1-0.1-1.4
			c0-0.4-0.1-0.8-0.2-1.1c-0.2-0.5-0.5-0.8-1-1c-0.4-0.2-0.8-0.3-1.3-0.3c-0.5,0-1,0-1.5,0h-5h-17.8H1704z M1637.2,2010.7
			c-0.3-0.4-0.6-0.9-0.8-1.5c-0.2-0.6-0.4-1.1-0.6-1.7c-0.3-1.1-0.7-2.1-1-3.2c-0.3-1.1-0.7-2.1-1-3.2c-1.3-3.9-2.5-7.8-3.7-11.7
			c-1.2-3.9-2.5-7.8-3.7-11.7c-0.4-1.3-0.8-2.5-1.2-3.7c-0.3-1.2-0.8-2.4-1.2-3.6c-0.2-0.7-0.5-1.4-0.7-2.1
			c-0.2-0.7-0.6-1.2-1.1-1.5c-0.4-0.3-1-0.5-1.8-0.5s-1.4,0-2.1,0h-7.7c-0.1,0.1-0.3,0.1-0.4,0c-0.2,0-0.3,0-0.4,0.1
			c-0.6,0.1-1,0.4-1.2,0.8c-0.1,0.2-0.2,0.5-0.1,0.8c0,0.3,0.1,0.6,0.1,0.9c0.2,0.6,0.4,1.1,0.6,1.7c0.2,0.5,0.3,1.1,0.5,1.7
			c0.6,1.8,1.2,3.5,1.8,5.2c0.5,1.7,1.1,3.5,1.6,5.2c0.2,0.6,0.4,1.1,0.6,1.7c0.1,0.6,0.3,1.1,0.6,1.7c0.6,1.8,1.2,3.6,1.7,5.3
			c0.5,1.8,1.1,3.6,1.7,5.4c1.4,4,2.7,8.1,4,12.1s2.6,8,4,12c0.4,1.3,0.9,2.7,1.3,4c0.4,1.3,0.8,2.7,1.3,4c0.2,0.8,0.5,1.5,0.7,2.3
			c0.2,0.8,0.7,1.4,1.4,1.8c0.5,0.3,1.1,0.5,1.9,0.4c0.8,0,1.5,0,2.2,0h6.8c0.6,0,1.2,0,1.8,0c0.6,0,1.2,0,1.7-0.1
			c0.9-0.2,1.6-0.7,1.9-1.5c0.3-0.7,0.6-1.5,0.9-2.4c0.5-1.4,1-2.9,1.4-4.4c0.4-1.5,0.9-2.9,1.5-4.4c1.7-5.1,3.4-10.2,5.1-15.4
			c1.7-5.1,3.4-10.2,5.1-15.3c0.5-1.4,1-2.8,1.4-4.2s0.9-2.7,1.4-4.1c0.1-0.4,0.2-0.8,0.3-1.1c0.1-0.4,0.2-0.8,0.4-1.1
			c0.5-1.5,1-3,1.5-4.6c0.5-1.5,1-3,1.6-4.5c0.2-0.6,0.4-1.3,0.6-2.1c0.2-0.9,0-1.4-0.7-1.8c-0.4-0.2-0.9-0.4-1.5-0.4s-1.3,0-1.9,0
			h-6.3c-0.6,0-1.2,0-1.8,0c-0.6,0-1.1,0.2-1.6,0.5c-0.5,0.3-0.8,0.7-1,1.2c-0.2,0.5-0.4,1-0.6,1.5c-0.3,1-0.6,2-1,3
			c-0.3,1-0.6,2-0.9,3c-1.4,4.2-2.7,8.3-4,12.4c-1.3,4.1-2.6,8.3-4,12.4c-0.5,1.5-0.9,2.9-1.3,4.2c-0.4,1.4-0.8,2.8-1.3,4.1
			c-0.2,0.5-0.4,1-0.6,1.7c-0.2,0.6-0.7,0.9-1.4,0.9c-0.1-0.1-0.2-0.2-0.3-0.2C1637.3,2010.9,1637.2,2010.8,1637.2,2010.7z
			 M1564.3,2021.3c-0.3,0-0.7,0-1,0s-0.7,0-1,0h-0.9c-0.3-0.1-0.6-0.2-0.9-0.2c-0.3,0-0.5-0.1-0.7-0.3c-0.4-0.3-0.7-0.8-0.8-1.4
			c-0.1-0.6-0.1-1.3-0.1-2v-5.3v-3.6c0-0.3,0-0.6,0-1c0-0.3,0-0.7,0.1-1c0.2-0.6,0.5-1,0.9-1.3c0.4-0.3,0.9-0.5,1.5-0.6
			c0.6-0.1,1.2-0.1,1.9-0.1c0.7,0,1.4,0,2.2,0h18.4c0.4,0,1,0,1.7,0.1c0.7,0,1.3,0.1,2,0.1c0.7,0,1.3,0,1.8-0.1
			c0.5-0.1,1-0.2,1.3-0.4c0.4-0.3,0.6-0.7,0.8-1.2c0.1-0.3,0.2-0.7,0.2-1.1c0-0.4,0-0.9,0-1.3c0-0.5,0-1.1,0-1.8c0-0.7,0-1.4,0-2
			c0-0.7-0.1-1.3-0.2-1.8c-0.1-0.6-0.3-0.9-0.7-1.1c-0.2-0.2-0.6-0.3-1.2-0.4c-0.5-0.1-1.1-0.1-1.8-0.1c-0.6,0-1.3,0-1.9,0
			c-0.7,0-1.2,0-1.7,0h-16.2h-5.1c-0.6,0-1.1,0-1.6,0c-0.5,0-0.9-0.2-1.3-0.4c-0.3-0.2-0.5-0.4-0.7-0.8c-0.1-0.3-0.2-0.8-0.4-1.3
			v-2.7v-5.4c0-0.8,0-1.4,0.1-2c0.1-0.6,0.4-1.1,0.8-1.4c0.2-0.2,0.7-0.3,1.2-0.4c0.6-0.1,1.2-0.2,1.8-0.2c0.7,0,1.3,0,2,0
			c0.7,0,1.2,0,1.7,0h17.1h6.5c0.6,0,1.2,0,1.8,0c0.6,0,1-0.1,1.4-0.4c0.4-0.2,0.8-0.8,1-1.5c0-0.6,0-1.1,0.1-1.4
			c0.1-0.4,0.1-0.9,0.1-1.4c0-0.5-0.1-1-0.1-1.5c0-0.4,0-0.9,0.1-1.4c0-0.5,0-1-0.1-1.4v-1c-0.1-0.2-0.2-0.5-0.2-0.8
			c0-0.2-0.1-0.5-0.2-0.7c-0.3-0.4-0.8-0.7-1.5-0.8c-0.7-0.1-1.4-0.1-2.2-0.1h-8.2h-35.3c-0.1,0.1-0.2,0.1-0.4,0s-0.2,0-0.4,0.1
			c-0.7,0.2-1.2,0.5-1.4,0.9c-0.3,0.3-0.4,0.8-0.4,1.3c0,0.6,0,1.1,0,1.7v5.9v20.6v25.7v6.8c0,0.6,0,1.2,0,1.8
			c0,0.6,0.1,1.1,0.4,1.5c0.3,0.5,0.8,0.8,1.5,0.9c0.7,0.1,1.4,0.2,2.3,0.2h7.5h28h7.1c0.7,0,1.3,0,1.9,0c0.6,0,1.1-0.2,1.5-0.5
			c0.5-0.3,0.8-0.8,0.8-1.5c0.1-0.7,0.1-1.4,0.1-2.1v-4.3c0-0.5,0-1-0.1-1.4c0-0.4-0.1-0.8-0.2-1.1c-0.2-0.5-0.5-0.8-1-1
			c-0.4-0.2-0.8-0.3-1.3-0.3s-1,0-1.5,0h-5h-17.8H1564.3z M4000,0v4000H0V0H4000z M2304.5,2032.6c0.1-0.3,0.2-0.7,0.1-1
			c-0.1-0.5-0.3-1-0.4-1.6c-0.1-0.6-0.3-1.1-0.4-1.7l-0.3-1.7c-0.1-0.6-0.2-1.3-0.2-2c0-0.7-0.1-1.4-0.2-2c-0.1-0.3-0.1-0.6-0.1-0.8
			s0-0.5-0.1-0.8c-0.1-0.3-0.1-0.6,0-0.9c0-0.3,0-0.6-0.1-0.8c0-0.4,0-0.7,0-1.1c0-0.3-0.1-0.7-0.1-1.1c-0.1-0.6-0.2-1.2-0.2-1.8
			s-0.1-1.2-0.2-1.8c-0.4-1.4-0.8-2.7-1.2-3.9c-0.4-1.1-1-2.2-1.8-3.3c-0.4-0.7-1-1.3-1.6-1.8c-0.6-0.5-1.3-1-1.9-1.5
			c-0.2-0.1-0.4-0.3-0.7-0.6s-0.3-0.6-0.2-0.9c0.1-0.3,0.3-0.6,0.6-0.8c0.2-0.2,0.5-0.4,0.8-0.6c0.4-0.3,0.8-0.6,1.2-1
			c0.4-0.3,0.8-0.6,1.1-0.9c0.2-0.2,0.5-0.4,0.7-0.7c0.2-0.2,0.4-0.5,0.6-0.8c0.1-0.2,0.3-0.4,0.5-0.6s0.4-0.4,0.5-0.6
			c0.5-0.8,0.9-1.6,1.2-2.4c0.3-0.8,0.6-1.7,1-2.7c0.1-0.4,0.2-0.9,0.2-1.3c0-0.4,0.1-0.9,0.2-1.4c0.1-0.4,0.2-1,0.3-1.7
			c0.1-0.7,0-1.3-0.1-1.8v-0.8c-0.1-0.2-0.2-0.5-0.1-0.8s0-0.5,0-0.8c-0.3-1.1-0.6-2.2-0.9-3.1c-0.2-0.9-0.6-1.9-1.1-2.7
			c-0.2-0.3-0.5-0.6-0.6-1c-0.2-0.3-0.4-0.7-0.6-1c-0.9-1.3-2-2.5-3.3-3.5c-1.3-1-2.8-1.9-4.3-2.5c-0.4-0.2-0.9-0.3-1.3-0.5
			c-0.4-0.1-0.9-0.2-1.3-0.4c-0.3-0.1-0.6-0.2-1-0.2s-0.7-0.1-1-0.2c-0.8-0.2-1.7-0.3-2.6-0.3c-0.9,0-1.9,0-2.9,0h-32.1
			c-0.1,0.1-0.3,0.1-0.4,0c-0.2,0-0.3,0-0.4,0.1c-0.7,0.2-1.2,0.6-1.4,0.9c-0.3,0.4-0.5,1-0.4,1.8c0,0.8,0.1,1.5,0.1,2.2v57.5
			c0,0.8,0,1.7,0,2.5s0.2,1.4,0.8,1.8c0.6,0.4,1.4,0.7,2.6,0.6c1.1,0,2.2,0,3.2,0h4.2c0.5,0,1,0,1.4,0c0.4,0,0.8-0.1,1.1-0.2
			c0.6-0.2,0.9-0.6,1.1-1.1c0.1-0.3,0.2-0.7,0.2-1.1c0-0.4,0-0.9,0-1.4c0-0.5,0-1,0.1-1.6c0-0.5,0-1.1,0-1.6v-12.1
			c0-1.1,0-2.3-0.1-3.6c-0.1-1.3,0.2-2.3,0.7-2.9c0.2-0.3,0.6-0.5,0.9-0.6c0.4-0.1,0.8-0.2,1.3-0.3h7.8c1.4,0,2.9,0,4.4,0
			s2.8,0.2,3.9,0.6c0.4,0.1,0.7,0.2,1,0.3c0.3,0.1,0.6,0.2,1,0.3c1.3,0.6,2.2,1.4,2.9,2.6c0.7,1.1,1.3,2.4,1.8,3.9
			c0.2,0.7,0.3,1.4,0.4,2.1c0.1,0.7,0.2,1.4,0.3,2.1c0,0.4,0,0.7,0.1,0.8c0.1,0.7,0.2,1.5,0.2,2.3c0,0.9,0.1,1.7,0.3,2.4
			c0,0.2,0,0.4,0,0.6s0.1,0.5,0.1,0.7c0.2,1.1,0.4,2.2,0.5,3.4c0.1,1.2,0.4,2.2,0.9,3c0.4,0.6,0.9,1,1.7,1.1
			c0.8,0.1,1.6,0.2,2.6,0.2h5.2c0.7,0,1.4,0,2,0c0.7,0,1.2-0.1,1.6-0.4C2304.1,2033.1,2304.3,2032.9,2304.5,2032.6z M2195.5,1968.1
			c0.2-0.7,0.1-1.2-0.4-1.5c-0.3-0.2-0.7-0.3-1.3-0.3c-0.5,0-1.1-0.1-1.6-0.1h-5.3c-0.9,0-1.9,0-3.2-0.1c-1.2-0.1-2.1,0.1-2.7,0.4
			c-0.9,0.4-1.6,1.1-2.2,2.2c-0.6,1.1-1.1,2-1.6,2.8c-1.3,2.2-2.6,4.4-3.9,6.6c-1.3,2.2-2.6,4.3-3.9,6.5c-0.6,0.9-1.1,1.8-1.6,2.6
			c-0.5,0.9-1,1.8-1.6,2.6c-0.2,0.3-0.4,0.6-0.8,1c-0.3,0.4-0.7,0.5-1.1,0.5c-0.7-0.1-1.2-0.5-1.5-1.1c-0.3-0.6-0.6-1.1-0.9-1.7
			c-0.8-1.3-1.6-2.5-2.3-3.8c-0.7-1.3-1.5-2.6-2.3-3.8c-1.1-1.7-2.1-3.4-3-5.1c-0.9-1.7-1.9-3.4-3-5.1c-0.4-0.6-0.9-1.4-1.4-2.3
			s-1.1-1.5-1.8-1.8c-0.5-0.2-1.2-0.4-2-0.4c-0.8,0-1.6,0-2.4,0h-8.3c-0.1,0.1-0.2,0.1-0.4,0.1c-0.1,0-0.2,0-0.4,0
			c-0.2,0.1-0.5,0.1-0.7,0.2c-0.2,0.1-0.4,0.3-0.5,0.5c-0.2,0.4-0.2,1,0.1,1.6c0.3,0.6,0.6,1,0.8,1.3c0.7,1.3,1.4,2.5,2.1,3.6
			c0.7,1.2,1.4,2.4,2.2,3.6c1.6,2.6,3.1,5.2,4.6,7.8c1.5,2.6,3.1,5.2,4.7,7.8c0.5,0.7,0.9,1.4,1.3,2.2c0.4,0.8,0.8,1.5,1.3,2.2
			c0.6,1,1.2,2,1.8,3c0.6,1,1.1,2,1.7,3c0.5,0.7,1,1.4,1.4,2.2c0.4,0.8,0.8,1.6,1,2.6c0.1,0.3,0.2,0.7,0.2,1.1c0,0.4,0,0.8,0,1.2
			v3.6v12.3v3.7c0.1,0.7,0.1,1.3,0.1,1.8c0,0.5,0.2,0.9,0.5,1.3c0.3,0.4,0.8,0.6,1.3,0.7c0.6,0.1,1.2,0.1,1.9,0.1h6.6
			c0.6,0,1.1,0,1.8,0s1.1-0.1,1.5-0.4c0.8-0.4,1.1-1.3,1.1-2.7c0-1.4-0.1-2.7-0.1-3.9v-12.3v-2.9c0-0.2,0-0.5,0-0.8s0-0.5,0.1-0.7
			c0.1-0.3,0.1-0.6,0-0.9c0-0.3,0-0.6,0-0.9c0.2-0.9,0.6-1.7,1-2.4c0.4-0.7,0.9-1.4,1.4-2.1c0.6-1.1,1.2-2.1,1.8-3.2
			c0.6-1,1.2-2.1,1.9-3.1c2.1-3.4,4.1-6.8,6.1-10.2c2-3.4,4.1-6.8,6.2-10.2c0.8-1.3,1.5-2.5,2.2-3.7s1.5-2.5,2.2-3.7
			C2195,1969.2,2195.2,1968.7,2195.5,1968.1z M2119.7,1999.6c0-0.4,0-0.7,0-1c0-0.3,0-0.6,0-0.8v-1c-0.1-0.3-0.2-0.7-0.1-1.1
			c0-0.4,0-0.8-0.1-1.2c0-0.2,0-0.5-0.1-0.7c0-0.2-0.1-0.5-0.1-0.8c-0.2-0.9-0.3-1.8-0.4-2.7c-0.1-0.9-0.3-1.7-0.6-2.5
			c-0.5-1.6-1.1-3.2-1.7-4.7c-0.6-1.5-1.3-2.9-2.2-4.2c-0.3-0.5-0.7-1-1.1-1.5c-0.4-0.5-0.8-1-1.1-1.5l-0.9-0.8
			c-0.5-0.6-1.1-1.2-1.7-1.7l-0.6-0.6c-1.3-0.9-2.8-1.9-4.4-2.9c-0.6-0.4-1.3-0.7-2-0.9c-0.7-0.2-1.4-0.5-2.1-0.8
			c-0.8-0.3-1.5-0.5-2.4-0.7s-1.7-0.3-2.6-0.5c-0.4-0.1-0.7-0.2-1.1-0.1c-0.3,0-0.7,0-1.1-0.1c-0.3-0.1-0.7-0.2-1-0.2
			c-0.4,0-0.7,0-1-0.1h-1.1c-0.3-0.1-0.7-0.1-1.1,0c-0.4,0-0.8,0-1.2,0h-25.4c-0.1,0.1-0.3,0.1-0.4,0c-0.1,0-0.2,0-0.4,0.1
			c-0.7,0.2-1.2,0.6-1.4,0.9c-0.3,0.5-0.5,1.2-0.4,2c0,0.8,0,1.7,0,2.4v55.5c0,0.7,0,1.6,0,2.6c0,1,0,1.8,0.2,2.3
			c0.3,0.8,0.8,1.2,1.6,1.3c0.7,0.1,1.6,0.2,2.7,0.2h22c0.6,0,1.2,0,2,0.1c0.8,0.1,1.4,0,1.9-0.1c0.1-0.1,0.3-0.1,0.6,0
			c0.2,0,0.4,0,0.6-0.1c0.3-0.1,0.6-0.1,0.9-0.1c0.2,0,0.5,0,0.8,0c0.3-0.1,0.6-0.1,0.9-0.1c0.3,0,0.6,0,0.9-0.1
			c0.7-0.2,1.4-0.3,2-0.4c0.7-0.1,1.3-0.2,1.9-0.4c1.6-0.5,3-1.1,4.4-1.7c1.3-0.6,2.7-1.4,3.9-2.3c2.2-1.5,4.1-3.3,5.7-5.5
			c1.6-2.1,2.9-4.5,4-7.2c0.4-0.9,0.7-1.9,0.9-2.9c0.2-1,0.5-2,0.8-3.1c0.2-0.7,0.3-1.4,0.4-2.1c0.1-0.7,0.2-1.4,0.3-2.1
			c0.1-0.3,0.1-0.6,0-0.9c0-0.3,0-0.6,0.1-0.9c0-0.4,0-0.8,0.1-1.2c0-0.4,0.1-0.8,0.1-1.3c0-0.1,0-0.3,0-0.7
			C2119.7,2000.3,2119.7,1999.9,2119.7,1999.6z M1884.6,1968.1c0.2-0.7,0.1-1.2-0.4-1.5c-0.3-0.2-0.7-0.3-1.3-0.3
			c-0.5,0-1.1-0.1-1.6-0.1h-5.3c-0.9,0-1.9,0-3.2-0.1c-1.2-0.1-2.1,0.1-2.7,0.4c-0.9,0.4-1.6,1.1-2.2,2.2c-0.6,1.1-1.1,2-1.6,2.8
			c-1.3,2.2-2.6,4.4-3.9,6.6c-1.3,2.2-2.6,4.3-3.9,6.5c-0.6,0.9-1.1,1.8-1.6,2.6c-0.5,0.9-1,1.8-1.6,2.6c-0.2,0.3-0.4,0.6-0.8,1
			c-0.3,0.4-0.7,0.5-1.1,0.5c-0.7-0.1-1.2-0.5-1.5-1.1c-0.3-0.6-0.6-1.1-1-1.7c-0.8-1.3-1.6-2.5-2.3-3.8c-0.7-1.3-1.4-2.6-2.3-3.8
			c-1.1-1.7-2.1-3.4-3-5.1c-0.9-1.7-2-3.4-3-5.1c-0.4-0.6-0.9-1.4-1.4-2.3c-0.5-0.9-1.1-1.5-1.8-1.8c-0.5-0.2-1.2-0.4-2-0.4
			c-0.8,0-1.6,0-2.4,0h-8.3c-0.1,0.1-0.3,0.1-0.4,0.1c-0.1,0-0.3,0-0.4,0c-0.2,0.1-0.5,0.1-0.7,0.2c-0.2,0.1-0.4,0.3-0.5,0.5
			c-0.2,0.4-0.2,1,0.1,1.6c0.3,0.6,0.6,1,0.8,1.3c0.7,1.3,1.4,2.5,2.1,3.6c0.7,1.2,1.4,2.4,2.2,3.6c1.6,2.6,3.1,5.2,4.6,7.8
			c1.5,2.6,3.1,5.2,4.7,7.8c0.5,0.7,0.9,1.4,1.3,2.2c0.4,0.8,0.8,1.5,1.3,2.2c0.6,1,1.2,2,1.8,3c0.6,1,1.1,2,1.7,3
			c0.5,0.7,1,1.4,1.4,2.2c0.4,0.8,0.8,1.6,1,2.6c0.1,0.3,0.2,0.7,0.2,1.1c0,0.4,0,0.8,0,1.2v3.6v12.3v3.7c0.1,0.7,0.1,1.3,0.1,1.8
			c0,0.5,0.1,0.9,0.5,1.3c0.3,0.4,0.8,0.6,1.3,0.7c0.6,0.1,1.2,0.1,1.9,0.1h6.6c0.6,0,1.2,0,1.8,0c0.6,0,1.1-0.1,1.5-0.4
			c0.8-0.4,1.1-1.3,1.1-2.7c0-1.4-0.1-2.7-0.1-3.9v-12.3v-2.9c0-0.2,0-0.5,0-0.8s0-0.5,0.1-0.7c0.1-0.3,0.1-0.6,0.1-0.9
			s0-0.6,0.1-0.9c0.2-0.9,0.6-1.7,1-2.4c0.4-0.7,0.9-1.4,1.4-2.1c0.6-1.1,1.2-2.1,1.8-3.2c0.6-1,1.2-2.1,1.9-3.1
			c2.1-3.4,4.1-6.8,6.1-10.2c2-3.4,4-6.8,6.2-10.2c0.8-1.3,1.5-2.5,2.2-3.7c0.7-1.2,1.5-2.5,2.2-3.7
			C1884.1,1969.2,1884.3,1968.7,1884.6,1968.1z M1811.2,2032.6c0.2-0.3,0.2-0.7,0.1-1c-0.1-0.5-0.3-1-0.4-1.6
			c-0.1-0.6-0.2-1.1-0.4-1.7l-0.3-1.7c-0.1-0.6-0.2-1.3-0.2-2c0-0.7-0.1-1.4-0.2-2c-0.1-0.3-0.1-0.6,0-0.8s0-0.5,0-0.8
			c-0.1-0.3-0.1-0.6,0-0.9c0-0.3,0-0.6-0.1-0.8c0-0.4,0-0.7-0.1-1.1c0-0.3,0-0.7,0-1.1c-0.1-0.6-0.2-1.2-0.2-1.8
			c0-0.6-0.1-1.2-0.2-1.8c-0.4-1.4-0.8-2.7-1.2-3.9c-0.4-1.1-1-2.2-1.8-3.3c-0.4-0.7-1-1.3-1.6-1.8c-0.6-0.5-1.3-1-1.9-1.5
			c-0.2-0.1-0.4-0.3-0.7-0.6s-0.3-0.6-0.2-0.9c0.1-0.3,0.3-0.6,0.6-0.8s0.5-0.4,0.8-0.6c0.4-0.3,0.8-0.6,1.2-1
			c0.4-0.3,0.8-0.6,1.1-0.9c0.2-0.2,0.5-0.4,0.7-0.7c0.2-0.2,0.4-0.5,0.6-0.8c0.1-0.2,0.3-0.4,0.5-0.6c0.2-0.2,0.3-0.4,0.5-0.6
			c0.5-0.8,0.9-1.6,1.2-2.4c0.3-0.8,0.6-1.7,0.9-2.7c0.1-0.4,0.2-0.9,0.2-1.3c0-0.4,0.1-0.9,0.2-1.4c0.1-0.4,0.2-1,0.3-1.7
			c0.1-0.7,0-1.3-0.1-1.8v-0.8c-0.1-0.2-0.2-0.5-0.1-0.8c0-0.2,0-0.5-0.1-0.8c-0.3-1.1-0.6-2.2-0.8-3.1c-0.3-0.9-0.6-1.9-1.1-2.7
			c-0.2-0.3-0.4-0.6-0.6-1c-0.2-0.3-0.4-0.7-0.6-1c-0.9-1.3-2-2.5-3.3-3.5c-1.3-1-2.8-1.9-4.4-2.5c-0.4-0.2-0.9-0.3-1.3-0.5
			c-0.4-0.1-0.9-0.2-1.3-0.4c-0.3-0.1-0.6-0.2-1-0.2c-0.3,0-0.7-0.1-1-0.2c-0.8-0.2-1.7-0.3-2.6-0.3s-1.9,0-2.9,0h-32.1
			c-0.1,0.1-0.3,0.1-0.4,0c-0.2,0-0.3,0-0.4,0.1c-0.7,0.2-1.2,0.6-1.4,0.9c-0.3,0.4-0.5,1-0.4,1.8c0,0.8,0,1.5,0,2.2v57.5
			c0,0.8,0,1.7,0,2.5s0.2,1.4,0.8,1.8c0.6,0.4,1.4,0.7,2.6,0.6c1.1,0,2.2,0,3.2,0h4.3c0.5,0,1,0,1.4,0c0.4,0,0.8-0.1,1.1-0.2
			c0.6-0.2,0.9-0.6,1.1-1.1c0.1-0.3,0.2-0.7,0.2-1.1c0-0.4,0-0.9,0-1.4c0-0.5,0-1,0.1-1.6c0-0.5,0-1.1,0-1.6v-12.1
			c0-1.1,0-2.3-0.1-3.6c-0.1-1.3,0.2-2.3,0.7-2.9c0.2-0.3,0.6-0.5,0.9-0.6c0.4-0.1,0.8-0.2,1.3-0.3h7.8c1.4,0,2.9,0,4.4,0
			s2.8,0.2,3.9,0.6c0.4,0.1,0.7,0.2,1,0.3c0.3,0.1,0.6,0.2,0.9,0.3c1.3,0.6,2.2,1.4,2.9,2.6c0.7,1.1,1.3,2.4,1.8,3.9
			c0.2,0.7,0.3,1.4,0.4,2.1c0.1,0.7,0.2,1.4,0.3,2.1c0,0.4,0,0.7,0.1,0.8c0.1,0.7,0.2,1.5,0.2,2.3c0,0.9,0.1,1.7,0.3,2.4
			c0,0.2,0,0.4,0,0.6c0,0.2,0,0.5,0,0.7c0.2,1.1,0.4,2.2,0.5,3.4c0.1,1.2,0.3,2.2,0.8,3c0.4,0.6,0.9,1,1.7,1.1
			c0.8,0.1,1.6,0.2,2.6,0.2h5.2c0.7,0,1.4,0,2,0c0.7,0,1.2-0.1,1.6-0.4C1810.9,2033.1,1811,2032.9,1811.2,2032.6z"/>
		<path d="M1795.7,1986.3c0.1,1,0.1,1.9,0,2.6c-0.2,0.9-0.4,1.7-0.6,2.4c-0.2,0.7-0.5,1.3-0.8,1.9c-0.6,0.8-1.3,1.5-2.1,2
			c-0.8,0.5-1.8,0.9-2.8,1.2c-0.4,0.1-0.9,0.2-1.4,0.2c-0.5,0-1,0.1-1.5,0.2h-1.2c-0.4,0.1-0.8,0.2-1.3,0.1c-0.5,0-1,0-1.4,0h-5.6
			c-0.6,0-1.2,0-2,0c-0.8,0-1.5,0-2.2,0c-0.7-0.1-1.3-0.2-1.9-0.3c-0.6-0.1-1-0.4-1.2-0.8c-0.3-0.4-0.5-1-0.5-1.8s0-1.5,0-2.3v-8.8
			c0-0.8,0-1.5,0-2.3c0-0.8,0.1-1.4,0.4-1.9c0.2-0.4,0.8-0.8,1.5-0.9c0.1,0,0.3,0,0.4,0c0.1,0,0.2,0,0.4-0.1h11c1.5,0,3,0,4.3,0.1
			c1.4,0.1,2.6,0.3,3.7,0.8c2,0.9,3.4,2.3,4.2,4.2c0.1,0.2,0.2,0.4,0.2,0.6c0,0.2,0.1,0.4,0.2,0.7
			C1795.5,1984.6,1795.6,1985.3,1795.7,1986.3z"/>
	</g>
	<g>
	</g>
</g>
</svg>
