<?xml version="1.0" encoding="utf-8"?>
<!-- Generator: Adobe Illustrator 20.1.0, SVG Export Plug-In . SVG Version: 6.00 Build 0)  -->
<!DOCTYPE svg PUBLIC "-//W3C//DTD SVG 1.1//EN" "http://www.w3.org/Graphics/SVG/1.1/DTD/svg11.dtd">
<svg version="1.1" id="Layer_1" xmlns="http://www.w3.org/2000/svg" xmlns:xlink="http://www.w3.org/1999/xlink" x="0px" y="0px"
	 viewBox="0 0 3000 3000" style="enable-background:new 0 0 3000 3000;" xml:space="preserve">
<style type="text/css">
	.st0{fill:#FFFFFF;}
</style>
<title>header-aboutfilm-desktop</title>
<g>
	<g id="XMLID_1_">
		<g>
			<path class="st0" d="M3000,0v3000H0V0H3000z M1776.1,1484.6c0.1-0.3,0.1-0.6-0.2-0.7c-0.2-0.1-0.4-0.2-0.6-0.2
				c-0.3,0-0.5,0-0.8,0h-2.6c-0.4,0-0.9,0-1.5,0c-0.6,0-1,0-1.3,0.2c-0.4,0.2-0.8,0.5-1.1,1c-0.3,0.5-0.5,1-0.8,1.4
				c-0.6,1.1-1.3,2.1-1.9,3.2c-0.6,1-1.2,2.1-1.9,3.1c-0.3,0.4-0.5,0.9-0.8,1.3c-0.2,0.4-0.5,0.9-0.8,1.3c-0.1,0.1-0.2,0.3-0.4,0.5
				c-0.2,0.2-0.3,0.3-0.6,0.2c-0.3-0.1-0.6-0.2-0.7-0.5s-0.3-0.6-0.5-0.8c-0.4-0.6-0.8-1.2-1.1-1.8c-0.3-0.6-0.7-1.2-1.1-1.8
				c-0.5-0.8-1-1.7-1.5-2.5c-0.5-0.8-0.9-1.7-1.5-2.5c-0.2-0.3-0.4-0.7-0.7-1.1c-0.2-0.4-0.5-0.7-0.8-0.9c-0.2-0.1-0.6-0.2-1-0.2
				c-0.4,0-0.8,0-1.2,0h-4c-0.1,0-0.1,0-0.2,0c-0.1,0-0.1,0-0.2,0c-0.1,0-0.2,0.1-0.3,0.1c-0.1,0-0.2,0.1-0.2,0.3
				c-0.1,0.2-0.1,0.5,0.1,0.8c0.2,0.3,0.3,0.5,0.4,0.6c0.3,0.6,0.7,1.2,1,1.8c0.3,0.6,0.7,1.2,1,1.8c0.8,1.2,1.5,2.5,2.2,3.8
				c0.7,1.2,1.5,2.5,2.3,3.8c0.2,0.3,0.5,0.7,0.6,1.1c0.2,0.4,0.4,0.7,0.6,1.1c0.3,0.5,0.6,1,0.9,1.4c0.3,0.5,0.5,0.9,0.8,1.4
				c0.2,0.3,0.5,0.7,0.7,1.1c0.2,0.4,0.4,0.8,0.5,1.2c0.1,0.1,0.1,0.3,0.1,0.5c0,0.2,0,0.4,0,0.6v1.7v5.9v1.8c0,0.3,0,0.6,0,0.9
				c0,0.2,0.1,0.5,0.2,0.6c0.1,0.2,0.4,0.3,0.6,0.3c0.3,0,0.6,0,0.9,0h3.2c0.3,0,0.6,0,0.8,0c0.3,0,0.5-0.1,0.7-0.2
				c0.4-0.2,0.5-0.7,0.5-1.3c0-0.7,0-1.3,0-1.9v-5.9v-1.4c0-0.1,0-0.2,0-0.4s0-0.2,0-0.3c0-0.2,0-0.3,0-0.4c0-0.1,0-0.3,0-0.4
				c0.1-0.4,0.3-0.8,0.5-1.1c0.2-0.3,0.4-0.7,0.7-1c0.3-0.5,0.6-1,0.9-1.5s0.6-1,0.9-1.5c1-1.6,2-3.3,3-4.9c1-1.7,1.9-3.3,3-4.9
				c0.4-0.6,0.7-1.2,1.1-1.8c0.4-0.6,0.7-1.2,1.1-1.8C1775.9,1485.1,1776,1484.9,1776.1,1484.6z M1733.5,1514.3v-4v-17v-6.9
				c0-0.5,0-1,0-1.5c0-0.5-0.2-0.8-0.5-1c-0.2-0.1-0.4-0.2-0.7-0.2c-0.3,0-0.6,0-0.8,0h-3.2h-3c-0.3,0-0.6,0-0.9,0
				c-0.3,0-0.5,0.1-0.7,0.2c-0.2,0.1-0.4,0.3-0.5,0.6c-0.1,0.2-0.2,0.5-0.3,0.7c-0.2,0.5-0.3,1-0.4,1.4c-0.2,0.5-0.3,1-0.5,1.4
				c-0.6,1.9-1.2,3.8-1.8,5.7c-0.6,1.9-1.2,3.7-1.8,5.6c-0.2,0.7-0.5,1.4-0.7,2.1c-0.2,0.7-0.4,1.4-0.7,2.1
				c-0.1,0.2-0.2,0.5-0.3,0.8c-0.1,0.3-0.3,0.5-0.5,0.6c-0.1,0.1-0.1,0.1-0.2,0c-0.1,0-0.1-0.1-0.2-0.1c-0.2-0.1-0.3-0.2-0.3-0.4
				c-0.1-0.2-0.1-0.3-0.2-0.5c-0.2-0.6-0.5-1.2-0.6-1.9c-0.2-0.6-0.4-1.3-0.6-1.9c-0.7-2-1.4-3.9-2-5.9c-0.6-2-1.3-3.9-2-5.9
				c-0.2-0.5-0.4-1-0.5-1.5c-0.2-0.5-0.3-1-0.5-1.5c-0.1-0.3-0.2-0.6-0.3-0.8c-0.1-0.3-0.2-0.5-0.5-0.7c-0.3-0.2-0.7-0.3-1.2-0.3
				c-0.5,0-1,0-1.5,0h-6c-0.1,0-0.1,0-0.2,0c-0.1,0-0.1,0-0.2,0c-0.4,0.1-0.6,0.2-0.7,0.4c-0.1,0.1-0.1,0.3-0.1,0.5
				c0,0.2,0,0.5,0,0.7c0,0.2,0,0.5,0,0.8c0,0.3,0,0.5,0,0.7v6.4v17v4c0,0.3,0,0.7,0,1c0,0.3,0.1,0.6,0.3,0.7
				c0.2,0.2,0.4,0.2,0.7,0.2c0.3,0,0.6,0,0.9,0h2.4c0.2,0,0.5,0,0.7,0c0.2,0,0.5,0,0.7-0.1c0.3-0.1,0.6-0.2,0.7-0.4
				c0.1-0.1,0.2-0.3,0.2-0.6c0-0.2,0-0.5,0-0.7v-2.2v-12.2c0-0.3,0-0.7,0-1c0-0.3,0-0.7,0-1c0-0.2,0-0.5,0-0.7c0-0.2,0-0.4,0.1-0.7
				c0.1-0.2,0.1-0.4,0.1-0.6c0-0.2,0.1-0.4,0.2-0.5c0.1-0.1,0.2-0.1,0.2,0c0.1,0.1,0.1,0.1,0.2,0.2c0.2,0.3,0.3,0.6,0.5,1.1
				c0.3,0.7,0.6,1.5,0.9,2.3c0.2,0.8,0.5,1.6,0.8,2.3c0.2,0.6,0.5,1.3,0.7,2c0.2,0.7,0.4,1.3,0.7,1.9c0.2,0.3,0.3,0.6,0.3,0.9
				c0.1,0.3,0.2,0.6,0.3,0.9c0,0.1,0,0.1,0.1,0.2c0,0.1,0,0.2,0.1,0.2c0.1,0.3,0.2,0.6,0.3,0.9c0.1,0.3,0.2,0.6,0.4,0.9
				c0,0.1,0.1,0.2,0.1,0.2c0,0.1,0,0.2,0.1,0.2c0.2,0.4,0.3,0.8,0.4,1.2c0.1,0.4,0.3,0.8,0.4,1.2l0.1,0.4c0.2,0.4,0.3,0.7,0.4,1.1
				c0.1,0.4,0.2,0.8,0.4,1.1c0.1,0.3,0.2,0.5,0.3,0.7c0.1,0.2,0.2,0.4,0.5,0.5c0.1,0.1,0.3,0.2,0.5,0.2c0.2,0,0.5,0,0.8,0
				c0.3,0,0.6,0,0.9,0c0.3,0,0.5,0,0.8,0h1.1c0.2-0.1,0.4-0.1,0.5-0.1c0.2,0,0.3-0.1,0.5-0.2c0.2-0.1,0.3-0.3,0.3-0.5
				c0.1-0.2,0.2-0.4,0.3-0.6c0.1-0.3,0.3-0.7,0.4-1c0.1-0.3,0.2-0.7,0.4-1c0.1-0.1,0.1-0.2,0.1-0.3c0-0.1,0-0.2,0.1-0.3
				c0.3-0.9,0.6-1.8,0.9-2.7c0.3-0.9,0.6-1.8,1-2.7c0.1-0.3,0.2-0.6,0.3-0.9c0.1-0.3,0.2-0.6,0.3-0.9c0.1-0.3,0.3-0.6,0.3-0.9
				c0.1-0.3,0.2-0.6,0.3-0.9c0.1-0.1,0.1-0.2,0.1-0.3c0-0.1,0-0.2,0.1-0.3c0.2-0.4,0.3-0.8,0.4-1.2s0.3-0.8,0.4-1.2
				c0.1-0.2,0.2-0.4,0.2-0.6c0-0.2,0.1-0.4,0.2-0.5c0.2-0.5,0.4-1,0.5-1.5c0.2-0.5,0.3-1,0.5-1.4c0.1-0.2,0.1-0.3,0.2-0.5
				c0.1-0.2,0.2-0.3,0.3-0.4c0,0,0.1-0.1,0.1-0.1c0-0.1,0.1-0.1,0.2-0.1c0.2,0.1,0.3,0.2,0.3,0.5s0,0.5,0.1,0.7
				c0.1,0.2,0.1,0.5,0.1,0.8c0,0.3,0,0.5,0,0.8c0,0.4,0,0.8,0,1.2s0,0.8,0.1,1.2v11.8v2.3c0,0.3,0,0.5,0,0.8c0,0.2,0.1,0.5,0.2,0.6
				c0.1,0.2,0.3,0.3,0.4,0.3c0.2,0,0.4,0.1,0.6,0.1h1.2h2.2c0.3,0,0.6,0,0.9,0c0.3,0,0.5-0.1,0.7-0.2c0.2-0.2,0.3-0.4,0.3-0.7
				C1733.5,1515,1733.5,1514.6,1733.5,1514.3z M1684.3,1500.8c0.1-0.2,0.1-0.5,0.1-0.9c0-0.4-0.1-0.8-0.1-0.9v-0.4
				c0-0.2,0-0.3,0-0.5c0-0.2,0-0.4-0.1-0.6c-0.1-0.2-0.1-0.4-0.1-0.6c0-0.2,0-0.4-0.1-0.6c-0.1-0.3-0.2-0.7-0.2-1
				c-0.1-0.3-0.1-0.6-0.2-0.9c-0.2-0.5-0.3-0.9-0.4-1.3c-0.1-0.4-0.3-0.8-0.5-1.2c-0.2-0.6-0.5-1.1-0.9-1.6c-0.3-0.5-0.7-1-1-1.5
				c-0.1-0.1-0.3-0.3-0.4-0.5c-0.2-0.2-0.3-0.3-0.5-0.5c-0.3-0.4-0.6-0.7-1-1.1c-0.4-0.3-0.8-0.7-1.2-0.9c-1.2-0.9-2.7-1.6-4.2-2.1
				c-1.6-0.5-3.5-0.7-5.6-0.7c-0.1,0-0.2,0-0.2,0c-0.1,0-0.2,0-0.3,0l-1.4,0.1c-0.2,0-0.3,0-0.4,0c-0.1,0-0.3,0-0.4,0.1
				c-0.4,0.1-0.9,0.2-1.3,0.3c-0.4,0.1-0.9,0.2-1.3,0.4c-1.7,0.7-3.2,1.5-4.3,2.5c-1.2,1-2.2,2.2-3.2,3.7c-0.3,0.5-0.6,0.9-0.8,1.5
				c-0.2,0.5-0.4,1-0.7,1.6c-0.2,0.5-0.3,1-0.4,1.5c-0.1,0.5-0.2,1-0.4,1.5c-0.1,0.2-0.1,0.3-0.1,0.5c0,0.2,0,0.3-0.1,0.5
				c-0.1,0.2-0.1,0.4-0.1,0.6c0,0.2,0,0.4-0.1,0.6v0.3c0,0.2,0,0.3,0,0.4c0,0.1,0,0.3,0,0.4c-0.1,0.2-0.1,0.4-0.1,0.7
				c0,0.3,0,0.6,0.1,0.7c0,0.2,0,0.4,0,0.6c0,0.2,0,0.4,0,0.6c0.1,0.1,0.1,0.2,0.1,0.4c0,0.1,0,0.3,0,0.4c0.1,0.2,0.1,0.5,0.1,0.7
				c0,0.2,0.1,0.4,0.1,0.7c0,0.1,0,0.2,0,0.3s0,0.2,0.1,0.4c0.1,0.5,0.3,1,0.4,1.4s0.3,0.9,0.5,1.3c0.8,1.8,1.8,3.4,3.1,4.7
				c1.3,1.3,2.8,2.4,4.6,3.2c0.3,0.2,0.7,0.3,1,0.4c0.3,0.1,0.7,0.2,1,0.4c0.2,0.1,0.5,0.1,0.7,0.2c0.2,0.1,0.5,0.1,0.7,0.2
				c0.2,0.1,0.5,0.1,0.7,0.1c0.2,0,0.4,0.1,0.7,0.1h0.5c0.1,0,0.3,0,0.4,0c0.1,0,0.3,0,0.4,0c0.1,0,0.3,0.1,0.6,0.1
				c0.3,0,0.5,0,0.6,0l1.5-0.1c0.2,0,0.3-0.1,0.5-0.1c0.2,0,0.3,0,0.5-0.1c0.3-0.1,0.7-0.1,1-0.2c0.3-0.1,0.7-0.2,1-0.3
				c2.3-0.8,4.2-1.8,5.8-3.3c1.6-1.4,2.8-3.2,3.7-5.3c0.2-0.5,0.4-1,0.5-1.5c0.1-0.5,0.3-1,0.4-1.6c0.1-0.2,0.1-0.4,0.1-0.6
				c0-0.2,0.1-0.4,0.1-0.6c0.1-0.3,0.1-0.7,0.1-1c0-0.3,0-0.6,0.1-1V1500.8z M1638,1515.8c0.1-0.2,0.2-0.4,0.2-0.8c0-0.3,0-0.7,0-1
				v-3.8V1491v-5c0-0.5,0-1,0-1.3c0-0.4-0.2-0.7-0.6-0.8c-0.2-0.1-0.4-0.1-0.7-0.1c-0.2,0-0.5,0-0.7,0h-2.8c-0.3,0-0.6,0-0.9,0.1
				s-0.5,0.2-0.6,0.4c-0.2,0.2-0.3,0.6-0.3,1v0.5c0,0.1,0,0.3,0,0.4c0,0.2,0,0.3,0,0.5v1.7v10.6v2.9c0,0.2,0,0.5,0,0.8s0,0.5,0,0.7
				c-0.1,0.2-0.1,0.5-0.1,0.7c0,0.2-0.1,0.3-0.3,0.4c-0.1,0.1-0.2,0.1-0.3,0c-0.1-0.1-0.2-0.1-0.2-0.2c-0.2-0.2-0.3-0.3-0.4-0.5
				c-0.1-0.2-0.2-0.4-0.3-0.5c-0.5-0.8-1.1-1.6-1.6-2.4c-0.5-0.8-1-1.7-1.5-2.5c-1.1-1.7-2.1-3.5-3.2-5.2c-1.1-1.7-2.2-3.5-3.2-5.2
				l-1.6-2.6c-0.2-0.2-0.3-0.5-0.5-0.7c-0.2-0.2-0.4-0.4-0.7-0.6c-0.2-0.1-0.5-0.2-0.8-0.2c-0.3,0-0.7,0-1,0h-3.7
				c-0.1,0-0.1,0-0.2,0c-0.1,0-0.1,0-0.2,0c-0.3,0.1-0.5,0.2-0.6,0.4c-0.1,0.2-0.2,0.5-0.2,0.9c0,0.4,0,0.7,0,1.1v4.2v18.3v5.3
				c0,0.5,0,1,0.1,1.4c0,0.4,0.3,0.7,0.7,0.8c0.2,0.1,0.4,0.1,0.6,0.1c0.2,0,0.5,0,0.7,0h2.8c0.3,0,0.6,0,0.9-0.1s0.5-0.1,0.6-0.3
				c0.2-0.2,0.2-0.6,0.2-1.1v-0.5c0.1-0.2,0.1-0.3,0.1-0.4c0-0.2,0-0.3,0-0.5v-1.8v-10.9v-3.2c0-0.4,0-0.8,0-1.1
				c0-0.3,0.1-0.5,0.4-0.7c0.3,0,0.6,0.2,0.8,0.5c0.2,0.3,0.4,0.6,0.5,0.8c0.4,0.7,0.8,1.4,1.3,2c0.4,0.7,0.8,1.3,1.3,2l6.9,11
				c0.3,0.4,0.5,0.9,0.8,1.3c0.3,0.4,0.5,0.9,0.8,1.3c0.2,0.3,0.4,0.6,0.6,0.8c0.2,0.3,0.4,0.5,0.8,0.6c0.2,0.1,0.4,0.1,0.7,0.1
				s0.5,0,0.8,0h2.5h1.6c0.2-0.1,0.4-0.1,0.6-0.2C1637.7,1516.1,1637.8,1516,1638,1515.8z M1596.5,1500.8c0.1-0.2,0.1-0.5,0.1-0.9
				c0-0.4-0.1-0.8-0.1-0.9v-0.4c0-0.2,0-0.3,0-0.5c0-0.2,0-0.4-0.1-0.6c-0.1-0.2-0.1-0.4-0.1-0.6c0-0.2,0-0.4-0.1-0.6
				c-0.1-0.3-0.2-0.7-0.2-1c-0.1-0.3-0.1-0.6-0.2-0.9c-0.1-0.5-0.3-0.9-0.4-1.3c-0.1-0.4-0.3-0.8-0.5-1.2c-0.2-0.6-0.5-1.1-0.9-1.6
				c-0.3-0.5-0.7-1-1-1.5c-0.1-0.1-0.3-0.3-0.4-0.5c-0.2-0.2-0.3-0.3-0.5-0.5c-0.3-0.4-0.6-0.7-1.1-1.1c-0.4-0.3-0.8-0.7-1.2-0.9
				c-1.2-0.9-2.7-1.6-4.2-2.1c-1.6-0.5-3.5-0.7-5.6-0.7c-0.1,0-0.2,0-0.2,0c-0.1,0-0.2,0-0.3,0l-1.4,0.1c-0.2,0-0.3,0-0.4,0
				c-0.1,0-0.3,0-0.4,0.1c-0.4,0.1-0.9,0.2-1.3,0.3c-0.4,0.1-0.9,0.2-1.3,0.4c-1.7,0.7-3.2,1.5-4.4,2.5c-1.2,1-2.2,2.2-3.1,3.7
				c-0.3,0.5-0.6,0.9-0.8,1.5c-0.2,0.5-0.4,1-0.7,1.6c-0.2,0.5-0.3,1-0.4,1.5c-0.1,0.5-0.2,1-0.4,1.5c-0.1,0.2-0.1,0.3-0.1,0.5
				c0,0.2,0,0.3-0.1,0.5c-0.1,0.2-0.1,0.4-0.1,0.6c0,0.2,0,0.4-0.1,0.6v0.3c0,0.2,0,0.3,0,0.4c0,0.1,0,0.3,0,0.4
				c-0.1,0.2-0.1,0.4-0.1,0.7c0,0.3,0,0.6,0.1,0.7c0,0.2,0,0.4,0,0.6c0,0.2,0,0.4,0,0.6c0.1,0.1,0.1,0.2,0.1,0.4c0,0.1,0,0.3,0,0.4
				c0.1,0.2,0.1,0.5,0.1,0.7c0,0.2,0.1,0.4,0.1,0.7c0,0.1,0.1,0.2,0.1,0.3s0,0.2,0.1,0.4c0.2,0.5,0.3,1,0.4,1.4s0.3,0.9,0.5,1.3
				c0.8,1.8,1.8,3.4,3.1,4.7c1.3,1.3,2.8,2.4,4.6,3.2c0.3,0.2,0.7,0.3,1,0.4s0.7,0.2,1,0.4c0.2,0.1,0.5,0.1,0.7,0.2
				c0.2,0.1,0.5,0.1,0.7,0.2c0.2,0.1,0.5,0.1,0.7,0.1c0.2,0,0.4,0.1,0.7,0.1h0.5c0.2,0,0.3,0,0.4,0c0.1,0,0.3,0,0.4,0
				c0.1,0,0.3,0.1,0.6,0.1c0.3,0,0.5,0,0.6,0l1.5-0.1c0.2,0,0.3-0.1,0.5-0.1c0.2,0,0.3,0,0.5-0.1c0.3-0.1,0.7-0.1,1-0.2
				c0.3-0.1,0.7-0.2,1-0.3c2.3-0.8,4.2-1.8,5.8-3.3c1.6-1.4,2.8-3.2,3.7-5.3c0.2-0.5,0.4-1,0.5-1.5c0.1-0.5,0.3-1,0.4-1.6
				c0.1-0.2,0.1-0.4,0.1-0.6c0-0.2,0.1-0.4,0.1-0.6c0.1-0.3,0.1-0.7,0.1-1c0-0.3,0-0.6,0.1-1V1500.8z M1552.8,1488.8
				c0.1-0.2,0.1-0.4,0.1-0.6c0-0.2,0-0.4,0-0.6v-1.8c0-0.2,0-0.3,0-0.5s0-0.3,0-0.4v-0.2c0-0.2-0.1-0.3-0.1-0.4
				c0-0.1-0.1-0.2-0.2-0.3c-0.2-0.2-0.6-0.2-0.9-0.2c-0.4,0-0.8,0-1.2,0h-4.7h-18.3h-0.2c-0.2,0.1-0.4,0.1-0.5,0.2
				c-0.2,0.2-0.4,0.4-0.4,0.7c-0.1,0.3-0.1,0.7-0.1,1.1v2.2c0,0.2,0,0.5,0,0.7c0,0.2,0.1,0.4,0.2,0.6c0.1,0.2,0.3,0.3,0.6,0.4
				c0.2,0.1,0.6,0.1,1,0.1c0.4,0,0.8,0,1.1,0h4.2c0.6,0,1.2,0,1.7,0.1c0.5,0,0.8,0.3,0.9,0.8c0.1,0.1,0.1,0.2,0,0.4
				c0,0.1,0,0.3,0,0.4c0.1,0.2,0.1,0.4,0.1,0.6c0,0.2,0,0.5,0,0.7v3.9v12.7v4.6c0,0.4,0,0.8,0,1.2s0.1,0.7,0.2,0.9
				c0.2,0.2,0.4,0.3,0.7,0.3s0.6,0.1,0.9,0.1h3.1c0.2,0,0.5,0,0.8,0c0.3,0,0.5,0,0.7-0.1c0.3-0.2,0.5-0.4,0.6-0.8
				c0.1-0.4,0.1-0.8,0.1-1.3v-4.3v-13.2v-4.1c0-0.2,0-0.4,0-0.6c0-0.2,0-0.4,0-0.6c0.1-0.2,0.1-0.3,0.1-0.4c0-0.1,0-0.3,0-0.4
				c0.2-0.5,0.4-0.8,0.9-0.8c0.4,0,1-0.1,1.6-0.1h4.7c0.6,0,1.2,0,1.6-0.1C1552.4,1489.6,1552.7,1489.3,1552.8,1488.8z
				 M1513.3,1485.2c0-0.4-0.1-0.8-0.2-1c-0.1-0.2-0.4-0.4-0.8-0.5c-0.2-0.1-0.4-0.1-0.7-0.1c-0.2,0-0.5,0-0.7,0h-2.9
				c-0.3,0-0.6,0-0.9,0.1c-0.3,0.1-0.5,0.2-0.6,0.3c-0.2,0.2-0.3,0.6-0.2,1.1c0,0.5,0,1,0,1.4v6.1v9.1c0,1.2,0,2.3-0.1,3.4
				c-0.1,1.1-0.2,2-0.6,2.8c-0.2,0.5-0.6,1-1,1.4c-0.4,0.4-0.9,0.7-1.5,1c-0.2,0.1-0.6,0.2-1,0.3c-0.2,0.1-0.4,0.1-0.7,0.1
				c-0.2,0-0.5,0.1-0.7,0.1h-0.7c-0.1,0-0.3,0.1-0.5,0.1c-0.3,0-0.5,0-0.6,0c-0.1,0-0.3,0-0.4,0c-0.1,0-0.3,0-0.4-0.1
				c-0.2-0.1-0.5-0.1-0.7-0.1c-0.2,0-0.5-0.1-0.7-0.1c-0.9-0.3-1.6-0.7-2.1-1.2c-0.5-0.5-1-1.2-1.3-2c-0.1-0.3-0.2-0.7-0.2-1
				c0-0.3-0.1-0.7-0.2-1c0-0.1,0-0.3,0-0.5c-0.1-0.2-0.1-0.5-0.1-0.8c0-0.3,0-0.6,0-0.9v-0.7c0-0.1,0-0.2,0-0.4c0-0.1,0-0.3,0-0.4
				v-1.6v-9.4v-4.6c0-0.4,0-0.8,0-1.2c0-0.4-0.1-0.7-0.2-0.9c-0.1-0.2-0.4-0.3-0.7-0.3c-0.3,0-0.6,0-1,0h-3.9c-0.1,0-0.1,0-0.2,0
				c-0.1,0-0.1,0-0.2,0c-0.3,0.1-0.5,0.2-0.7,0.5c-0.1,0.2-0.1,0.4-0.1,0.7s0,0.6,0,0.9v3.2v12.8c0,1.1,0,2.1,0,3.2
				c0,1.1,0.1,2,0.4,2.9c0.1,0.1,0.1,0.3,0.1,0.4c0,0.1,0,0.2,0.1,0.4c0.2,0.7,0.4,1.3,0.7,1.9c0.3,0.6,0.6,1.2,1,1.7
				c1.2,1.7,2.8,2.9,4.8,3.6c2,0.7,4.5,1.1,7.4,1.1c0.4,0,0.9,0,1.3,0c0.5,0,0.9-0.1,1.2-0.1c0.2-0.1,0.3-0.1,0.5-0.1
				c0.2,0,0.3,0,0.5-0.1c0.3-0.1,0.6-0.1,0.8-0.2c0.3-0.1,0.6-0.1,0.8-0.2c1.3-0.4,2.4-1,3.3-1.6c1.1-0.7,1.9-1.6,2.6-2.7
				c0.7-1,1.2-2.3,1.6-3.7c0.2-0.9,0.4-1.9,0.4-3s0.1-2.2,0.1-3.4v-9.2v-6.1C1513.3,1486,1513.3,1485.6,1513.3,1485.2z
				 M1473.2,1515.7c0-0.2,0-0.4,0-0.6c-0.1-0.2-0.1-0.4-0.2-0.6c-0.1-0.2-0.1-0.3-0.2-0.4c-0.1-0.1-0.1-0.2-0.1-0.3
				c0-0.1,0-0.2-0.1-0.2c-0.4-0.9-0.8-1.9-1.1-2.9c-0.3-1-0.7-1.9-1.1-2.9c-0.1-0.2-0.2-0.5-0.2-0.7c-0.1-0.2-0.1-0.5-0.3-0.7
				c-0.2-0.5-0.4-1-0.6-1.5c-0.2-0.5-0.4-1-0.5-1.5c-0.1-0.1-0.1-0.2-0.1-0.3c0-0.1,0-0.2-0.1-0.3c-0.6-1.5-1.2-3.1-1.8-4.6
				c-0.5-1.6-1.1-3.1-1.7-4.6c-0.2-0.6-0.5-1.2-0.7-1.8c-0.2-0.6-0.4-1.2-0.7-1.8c-0.1-0.2-0.1-0.4-0.2-0.6
				c-0.1-0.2-0.1-0.4-0.2-0.6c-0.2-0.5-0.4-1-0.6-1.5c-0.2-0.5-0.4-1-0.6-1.5c-0.2-0.4-0.3-0.7-0.4-1.1c-0.1-0.4-0.3-0.6-0.7-0.8
				c-0.2-0.2-0.5-0.2-0.8-0.2c-0.3,0-0.7,0-1,0h-4c-0.1,0-0.1,0-0.2,0c-0.1,0-0.1,0-0.2,0c-0.2,0.1-0.4,0.1-0.6,0.2
				c-0.3,0.2-0.5,0.5-0.6,0.8c-0.1,0.4-0.2,0.7-0.4,1c-0.3,0.6-0.5,1.3-0.8,2c-0.2,0.7-0.5,1.3-0.7,2c-0.1,0.1-0.1,0.3-0.1,0.4
				c0,0.1-0.1,0.3-0.1,0.4c-0.7,1.7-1.3,3.4-1.9,5.1c-0.6,1.7-1.2,3.4-1.9,5.1c-0.2,0.6-0.5,1.2-0.7,1.8c-0.2,0.6-0.4,1.2-0.7,1.8
				c-0.2,0.6-0.5,1.3-0.7,2c-0.2,0.7-0.5,1.3-0.7,2c-0.1,0.2-0.2,0.5-0.3,0.7c-0.1,0.2-0.2,0.5-0.3,0.7c-0.3,0.7-0.6,1.4-0.8,2.2
				c-0.3,0.7-0.5,1.4-0.8,2.1c-0.1,0.1-0.1,0.3-0.2,0.5c-0.1,0.2-0.1,0.4-0.2,0.6c-0.1,0.2-0.1,0.4-0.1,0.6c0,0.2,0.1,0.3,0.2,0.4
				c0.2,0.2,0.7,0.2,1.2,0.2c0.6,0,1,0,1.4,0c0.3,0,0.6,0,1,0c0.4,0,0.7,0,1.1,0s0.7,0,1-0.1c0.3,0,0.5-0.1,0.7-0.2
				c0.2-0.2,0.4-0.4,0.5-0.8c0.1-0.3,0.2-0.7,0.3-1c0.2-0.6,0.4-1.1,0.6-1.7c0.2-0.6,0.4-1.1,0.6-1.6c0.1-0.3,0.2-0.6,0.3-0.9
				c0.1-0.3,0.2-0.5,0.5-0.7c0.3-0.2,0.8-0.4,1.4-0.3c0.6,0,1.1,0,1.7,0h7.2c0.2,0,0.3,0,0.4,0c0.1,0,0.3,0,0.4,0
				c0.3,0.1,0.6,0.2,0.7,0.3c0.2,0.1,0.3,0.3,0.4,0.5c0.1,0.2,0.2,0.4,0.2,0.6c0.1,0.2,0.2,0.5,0.2,0.8c0.2,0.5,0.4,0.9,0.5,1.4
				c0.2,0.5,0.3,1,0.5,1.5c0.1,0.3,0.2,0.6,0.3,0.8c0.1,0.3,0.2,0.5,0.3,0.8c0.2,0.3,0.4,0.5,0.7,0.5c0.2,0.1,0.4,0.1,0.6,0.1
				c0.2,0,0.4,0,0.7,0h2.2c0.4,0,0.8,0,1.4,0c0.6,0,1,0,1.2-0.2C1473,1516.1,1473.1,1515.9,1473.2,1515.7z M1409.2,1514.3v-2.1
				c0-0.2,0-0.5,0-0.7c0-0.2-0.1-0.4-0.1-0.6c-0.1-0.2-0.3-0.4-0.5-0.5c-0.2-0.1-0.4-0.1-0.6-0.1c-0.2,0-0.5,0-0.7,0h-2.4h-8.6h-1.9
				c-0.2,0-0.3,0-0.5,0c-0.2,0-0.3,0-0.5,0h-0.5c-0.1-0.1-0.3-0.1-0.4-0.1c-0.1,0-0.3-0.1-0.3-0.2c-0.2-0.2-0.3-0.4-0.4-0.7
				c0-0.3-0.1-0.6-0.1-1v-2.6v-1.7c0-0.2,0-0.3,0-0.5c0-0.2,0-0.3,0.1-0.5c0.1-0.3,0.2-0.5,0.4-0.6c0.2-0.1,0.4-0.2,0.7-0.3
				c0.3,0,0.6-0.1,0.9,0c0.3,0,0.7,0,1.1,0h8.9c0.2,0,0.5,0,0.8,0c0.3,0,0.6,0,1,0c0.3,0,0.6,0,0.9-0.1s0.5-0.1,0.6-0.2
				c0.2-0.2,0.3-0.4,0.4-0.6c0.1-0.1,0.1-0.3,0.1-0.5c0-0.2,0-0.4,0-0.6c0-0.2,0-0.5,0-0.9c0-0.3,0-0.7,0-1c0-0.3-0.1-0.6-0.1-0.9
				c-0.1-0.3-0.2-0.5-0.3-0.6c-0.1-0.1-0.3-0.2-0.6-0.2c-0.3,0-0.5-0.1-0.9-0.1c-0.3,0-0.6,0-0.9,0c-0.3,0-0.6,0-0.8,0h-7.9h-2.5
				c-0.3,0-0.5,0-0.8,0c-0.2,0-0.5-0.1-0.6-0.2c-0.2-0.1-0.3-0.2-0.3-0.4c-0.1-0.2-0.1-0.4-0.2-0.6v-1.3v-2.6c0-0.4,0-0.7,0.1-1
				c0-0.3,0.2-0.5,0.4-0.7c0.1-0.1,0.3-0.2,0.6-0.2c0.3,0,0.6-0.1,0.9-0.1c0.3,0,0.6,0,1,0c0.3,0,0.6,0,0.8,0h8.3h3.2
				c0.3,0,0.6,0,0.9,0c0.3,0,0.5-0.1,0.7-0.2c0.2-0.1,0.4-0.4,0.5-0.7c0-0.3,0-0.5,0-0.7c0-0.2,0-0.4,0-0.7c0-0.2,0-0.5,0-0.7
				c0-0.2,0-0.4,0-0.7c0-0.2,0-0.5,0-0.7v-0.5c-0.1-0.1-0.1-0.2-0.1-0.4c0-0.1,0-0.2-0.1-0.3c-0.2-0.2-0.4-0.3-0.7-0.4
				c-0.3,0-0.7-0.1-1.1-0.1h-4h-17.1c-0.1,0-0.1,0-0.2,0c-0.1,0-0.1,0-0.2,0c-0.3,0.1-0.6,0.2-0.7,0.4c-0.1,0.2-0.2,0.4-0.2,0.6
				c0,0.3,0,0.6,0,0.8v2.8v10v12.4v3.3c0,0.3,0,0.6,0,0.8c0,0.3,0.1,0.5,0.2,0.7c0.1,0.2,0.4,0.4,0.7,0.4c0.3,0,0.7,0.1,1.1,0.1h3.6
				h13.5h3.4c0.3,0,0.7,0,0.9,0c0.3,0,0.5-0.1,0.7-0.2c0.2-0.2,0.4-0.4,0.4-0.7C1409.2,1515,1409.2,1514.7,1409.2,1514.3z
				 M1370.1,1505.7c0.1-0.3,0.1-0.6,0.1-1c0-0.3-0.1-0.6-0.3-0.7c-0.2-0.1-0.4-0.2-0.7-0.2c-0.3,0-0.6,0-0.8,0h-2.8
				c-0.2,0-0.5,0-0.8,0c-0.3,0-0.5,0-0.7,0.1c-0.3,0.2-0.5,0.4-0.6,0.6c-0.1,0.3-0.2,0.6-0.3,0.9c-0.2,0.4-0.3,0.7-0.4,1.1
				c-0.1,0.4-0.3,0.7-0.5,1c-0.4,0.6-0.8,1.2-1.3,1.7c-0.5,0.5-1.1,0.9-1.8,1.2c-0.3,0.2-0.6,0.3-0.9,0.3c-0.3,0.1-0.7,0.1-1,0.2
				c-0.1,0-0.2,0-0.4,0c-0.2,0-0.4,0.1-0.6,0.1c-0.2,0-0.4,0-0.6-0.1h-0.4c-0.2,0-0.3,0-0.4,0c-0.1,0-0.3,0-0.4-0.1
				c-0.4-0.1-0.8-0.2-1.2-0.3c-0.4-0.1-0.7-0.2-1-0.4c-1.1-0.6-2-1.3-2.7-2.2s-1.2-2-1.7-3.3c-0.1-0.3-0.2-0.5-0.2-0.8
				c-0.1-0.3-0.1-0.6-0.2-0.9c-0.1-0.3-0.1-0.6-0.1-0.7c-0.1-0.2-0.1-0.3-0.1-0.5c0-0.2,0-0.3-0.1-0.5v-0.4c0-0.1,0-0.2,0-0.4
				c0-0.1,0-0.2,0-0.4c0-0.2,0-0.5,0-0.8c0-0.3,0-0.5,0.1-0.8c0.1-0.2,0.1-0.4,0.1-0.6c0-0.2,0-0.4,0.1-0.6c0-0.2,0.1-0.4,0.1-0.6
				c0-0.2,0.1-0.4,0.1-0.6c0.2-0.4,0.3-0.8,0.4-1.2c0.1-0.4,0.3-0.8,0.4-1.1c0.9-2,2.3-3.5,4.4-4.4c0.2-0.1,0.4-0.2,0.6-0.2
				c0.2-0.1,0.4-0.1,0.7-0.2c0.6-0.2,1.3-0.2,2-0.2c0.8,0,1.4,0.1,2,0.3c0.8,0.2,1.5,0.6,2.1,1c0.9,0.6,1.7,1.4,2.3,2.4
				c0.2,0.3,0.3,0.6,0.4,1c0.1,0.4,0.3,0.7,0.6,0.9c0.2,0.1,0.4,0.2,0.7,0.2c0.3,0,0.6,0.1,1,0.1c0.4,0,0.7,0,1.1,0c0.4,0,0.7,0,1,0
				c0.2,0,0.4,0,0.7,0c0.2,0,0.4,0,0.6-0.1h0.4c0.2-0.1,0.4-0.1,0.6-0.2c0.2,0,0.3-0.2,0.3-0.3c0.1-0.2,0.1-0.5,0.1-0.8
				c-0.1-0.3-0.1-0.5-0.2-0.7c-0.2-0.6-0.4-1.2-0.6-1.8s-0.5-1.1-0.8-1.6c-1.2-1.9-2.9-3.5-5-4.6c-2.1-1.2-4.7-1.7-7.9-1.6
				c-0.1,0-0.1,0-0.2,0c-0.1,0-0.2,0-0.2,0c-0.2,0-0.5,0.1-0.7,0.1c-0.2,0-0.5,0-0.7,0.1c-0.2,0.1-0.3,0.1-0.5,0.1
				c-0.2,0-0.4,0-0.6,0.1c-0.4,0.1-0.8,0.2-1.2,0.3c-0.4,0.1-0.8,0.2-1.2,0.4c-1.1,0.4-2,0.9-2.9,1.4s-1.6,1.2-2.4,1.9
				c-0.2,0.2-0.4,0.4-0.6,0.5c-0.2,0.2-0.3,0.4-0.5,0.6c-0.5,0.7-1,1.4-1.5,2.3c-0.2,0.3-0.4,0.7-0.6,1.1c-0.2,0.4-0.3,0.8-0.5,1.2
				c-0.2,0.4-0.3,0.8-0.4,1.2c-0.1,0.4-0.2,0.8-0.3,1.3c-0.1,0.2-0.1,0.5-0.1,0.7c0,0.2-0.1,0.5-0.1,0.7c0,0.3-0.1,0.6-0.1,0.8
				c0,0.3-0.1,0.5-0.1,0.8v0.4c0,0.1,0,0.2,0,0.2c0,0.1,0,0.2,0,0.3c-0.1,0.2-0.1,0.4-0.1,0.7c0,0.3,0,0.5,0.1,0.7v0.9
				c0,0.1,0,0.2,0,0.3c0,0.1,0,0.2,0.1,0.4c0.1,0.3,0.1,0.6,0.1,0.9c0,0.3,0.1,0.6,0.1,0.9c0,0.1,0,0.2,0,0.3c0,0.1,0,0.2,0.1,0.4
				c0.2,0.5,0.3,1,0.4,1.4c0.1,0.5,0.3,0.9,0.4,1.4c0.8,1.8,1.8,3.4,3.1,4.7c1.3,1.3,2.8,2.4,4.7,3.2c0.2,0.1,0.5,0.2,0.8,0.3
				c0.3,0.1,0.5,0.2,0.8,0.3c0.3,0.1,0.6,0.2,0.9,0.2c0.3,0.1,0.6,0.1,0.9,0.2c0.2,0,0.5,0.1,0.7,0.1c0.2,0,0.4,0.1,0.6,0.1
				c0.2,0,0.4,0,0.5,0.1c0.2,0.1,0.5,0.1,0.8,0.1c0.3,0,0.5,0,0.8,0h0.7c0.2,0,0.4-0.1,0.6-0.1c0.2,0,0.4,0,0.6,0
				c0.2-0.1,0.3-0.1,0.4-0.1c0.1,0,0.3,0,0.4-0.1c0.3-0.1,0.7-0.1,1-0.2c0.3-0.1,0.7-0.2,1-0.3c3.2-1,5.6-2.9,7.3-5.5
				c0.2-0.2,0.3-0.4,0.4-0.7c0.1-0.2,0.2-0.5,0.4-0.7c0.2-0.4,0.4-0.8,0.5-1.2c0.1-0.4,0.3-0.9,0.4-1.3L1370.1,1505.7z
				 M1328.9,1515.7c0-0.2,0-0.4,0-0.6c-0.1-0.2-0.1-0.4-0.2-0.6c-0.1-0.2-0.1-0.3-0.2-0.4c-0.1-0.1-0.1-0.2-0.1-0.3
				c0-0.1,0-0.2-0.1-0.2c-0.4-0.9-0.8-1.9-1.1-2.9c-0.3-1-0.7-1.9-1.1-2.9c-0.1-0.2-0.2-0.5-0.2-0.7c-0.1-0.2-0.2-0.5-0.3-0.7
				c-0.2-0.5-0.4-1-0.5-1.5c-0.2-0.5-0.4-1-0.6-1.5c-0.1-0.1-0.1-0.2-0.1-0.3c0-0.1-0.1-0.2-0.1-0.3c-0.6-1.5-1.2-3.1-1.8-4.6
				c-0.5-1.6-1.1-3.1-1.7-4.6c-0.2-0.6-0.5-1.2-0.7-1.8c-0.2-0.6-0.4-1.2-0.7-1.8c-0.1-0.2-0.1-0.4-0.2-0.6
				c-0.1-0.2-0.1-0.4-0.2-0.6c-0.2-0.5-0.4-1-0.6-1.5c-0.2-0.5-0.4-1-0.6-1.5c-0.2-0.4-0.3-0.7-0.4-1.1c-0.1-0.4-0.3-0.6-0.7-0.8
				c-0.2-0.2-0.5-0.2-0.9-0.2c-0.3,0-0.7,0-1,0h-4c-0.1,0-0.1,0-0.2,0c-0.1,0-0.1,0-0.2,0c-0.2,0.1-0.4,0.1-0.6,0.2
				c-0.3,0.2-0.5,0.5-0.6,0.8c-0.1,0.4-0.2,0.7-0.4,1c-0.3,0.6-0.5,1.3-0.8,2c-0.2,0.7-0.5,1.3-0.7,2c-0.1,0.1-0.1,0.3-0.1,0.4
				c0,0.1-0.1,0.3-0.1,0.4c-0.7,1.7-1.4,3.4-2,5.1c-0.6,1.7-1.2,3.4-1.9,5.1c-0.2,0.6-0.5,1.2-0.7,1.8c-0.2,0.6-0.4,1.2-0.7,1.8
				c-0.2,0.6-0.5,1.3-0.7,2c-0.2,0.7-0.5,1.3-0.7,2c-0.1,0.2-0.2,0.5-0.3,0.7c-0.1,0.2-0.2,0.5-0.3,0.7c-0.3,0.7-0.5,1.4-0.8,2.2
				c-0.3,0.7-0.5,1.4-0.8,2.1c-0.1,0.1-0.1,0.3-0.2,0.5c-0.1,0.2-0.1,0.4-0.2,0.6c0,0.2-0.1,0.4,0,0.6c0,0.2,0.1,0.3,0.2,0.4
				c0.2,0.2,0.7,0.2,1.2,0.2c0.6,0,1.1,0,1.4,0c0.3,0,0.6,0,1,0c0.4,0,0.7,0,1.1,0c0.4,0,0.7,0,1-0.1c0.3,0,0.5-0.1,0.7-0.2
				c0.2-0.2,0.4-0.4,0.5-0.8c0.1-0.3,0.2-0.7,0.3-1c0.2-0.6,0.4-1.1,0.6-1.7c0.2-0.6,0.4-1.1,0.6-1.6c0.1-0.3,0.2-0.6,0.3-0.9
				c0.1-0.3,0.3-0.5,0.5-0.7c0.3-0.2,0.8-0.4,1.4-0.3c0.6,0,1.2,0,1.7,0h7.2c0.2,0,0.3,0,0.4,0c0.1,0,0.3,0,0.4,0
				c0.3,0.1,0.6,0.2,0.7,0.3c0.2,0.1,0.3,0.3,0.4,0.5c0.1,0.2,0.2,0.4,0.2,0.6c0.1,0.2,0.2,0.5,0.3,0.8c0.2,0.5,0.3,0.9,0.5,1.4
				c0.2,0.5,0.3,1,0.5,1.5c0.1,0.3,0.2,0.6,0.3,0.8c0.1,0.3,0.2,0.5,0.3,0.8c0.2,0.3,0.4,0.5,0.7,0.5c0.2,0.1,0.4,0.1,0.6,0.1
				c0.2,0,0.4,0,0.7,0h2.2c0.4,0,0.8,0,1.4,0c0.6,0,1,0,1.2-0.2C1328.8,1516.1,1328.9,1515.9,1328.9,1515.7z M1290.6,1495.3
				c0.1-1.7,0-3.1-0.3-4.3c-0.3-1.2-0.8-2.3-1.5-3.2c-0.2-0.4-0.5-0.7-0.9-1.1l-0.3-0.3c-0.2-0.1-0.3-0.2-0.4-0.3
				c-0.1-0.1-0.2-0.2-0.4-0.3c-0.2-0.2-0.4-0.3-0.5-0.4c-0.2-0.1-0.4-0.2-0.5-0.3c-0.4-0.2-0.9-0.4-1.4-0.6c-0.5-0.1-1-0.3-1.5-0.4
				c-0.1-0.1-0.3-0.1-0.4-0.1s-0.3,0-0.4,0c-0.2-0.1-0.3-0.1-0.5-0.1c-0.2,0-0.3,0-0.5-0.1h-0.2c-0.2-0.1-0.5-0.1-0.8-0.1
				c-0.3,0-0.6,0-0.8,0h-13.2c-0.1,0-0.1,0-0.2,0c-0.1,0-0.1,0-0.2,0c-0.3,0.1-0.6,0.3-0.7,0.4c-0.2,0.2-0.2,0.7-0.2,1.2
				c0,0.6,0,1.1,0,1.5v27.4c0,0.3,0,0.7,0,1c0,0.3,0.1,0.6,0.3,0.7c0.2,0.2,0.4,0.2,0.7,0.2c0.3,0,0.6,0,0.9,0h2.6
				c0.2,0,0.5,0,0.7,0c0.2,0,0.5,0,0.7,0c0.4-0.1,0.7-0.3,0.8-0.5c0.2-0.2,0.2-0.6,0.2-1c0-0.4,0-0.8,0-1.2v-6c0-0.5,0-1.1,0-1.6
				c0-0.5,0.2-0.9,0.4-1.1c0.2-0.2,0.6-0.3,1-0.3c0.4,0,0.9,0,1.3,0h3.8h1.9c0.2,0,0.4,0,0.6,0c0.2,0,0.4,0,0.5-0.1
				c0.4-0.1,0.7-0.2,1.1-0.2c0.4,0,0.7-0.1,1-0.2c1.1-0.4,2.1-0.8,3-1.4c0.9-0.5,1.6-1.2,2.2-2.1c0.2-0.2,0.3-0.4,0.4-0.6
				c0.1-0.2,0.2-0.4,0.3-0.6c0.1-0.1,0.1-0.2,0.2-0.3c0-0.1,0.1-0.2,0.2-0.3c0.2-0.5,0.4-1,0.6-1.6
				C1290.4,1496.6,1290.5,1496,1290.6,1495.3z M1251.2,1506.9c0.1-0.2,0.1-0.3,0-0.5c0-0.7-0.1-1.3-0.2-1.8c0-0.1-0.1-0.1-0.1-0.2
				c0-0.1,0-0.2,0-0.2c-0.1-0.3-0.2-0.6-0.3-0.9c-0.1-0.3-0.2-0.6-0.4-0.8c-0.5-0.8-1.1-1.5-1.7-2c-0.6-0.5-1.3-1-2.1-1.6
				c-0.5-0.3-1.1-0.6-1.8-0.8c-0.7-0.2-1.3-0.4-1.9-0.6c-0.1-0.1-0.3-0.1-0.4-0.1c-0.2,0-0.3,0-0.5-0.1c-0.9-0.2-1.7-0.5-2.6-0.7
				c-0.9-0.2-1.7-0.4-2.5-0.7c-0.4-0.1-0.7-0.2-1.1-0.3s-0.7-0.2-1-0.3c-0.6-0.2-1.1-0.5-1.6-0.8c-0.4-0.3-0.8-0.7-1-1.3
				c-0.1-0.2-0.1-0.4-0.1-0.6c0-0.3,0-0.5,0-0.7c0.2-0.8,0.4-1.4,0.8-1.8s0.9-0.8,1.6-1.1c0.4-0.2,0.9-0.3,1.5-0.4
				c0.6-0.1,1.1-0.1,1.7-0.1c0.6,0,1.1,0.1,1.6,0.2c0.5,0.1,1,0.2,1.4,0.4c0.4,0.2,0.8,0.5,1.2,0.8c0.2,0.2,0.5,0.4,0.7,0.8
				c0.2,0.3,0.4,0.7,0.5,1c0.2,0.3,0.3,0.7,0.4,1c0.1,0.3,0.3,0.6,0.7,0.7c0.2,0.1,0.4,0.1,0.7,0.1c0.3,0,0.6,0,0.8,0h2.9
				c0.3,0,0.6,0,0.9-0.1c0.3-0.1,0.5-0.2,0.6-0.3c0.1-0.2,0.2-0.4,0.2-0.7c0-0.3,0-0.6-0.1-0.8c-0.2-0.6-0.3-1.2-0.5-1.7
				c-0.2-0.5-0.4-1-0.7-1.5c-2.2-3.6-6.3-5.4-12.2-5.3c-0.1,0.1-0.2,0.1-0.4,0.1c-0.2,0-0.3,0-0.4,0c-0.3,0.1-0.6,0.1-0.9,0.1
				c-0.3,0-0.6,0.1-0.9,0.1c-0.8,0.2-1.5,0.4-2.2,0.6c-0.7,0.2-1.3,0.5-2,0.9c-0.9,0.6-1.8,1.3-2.5,2c-0.7,0.8-1.3,1.6-1.8,2.7
				c-0.1,0.3-0.2,0.6-0.3,0.9c-0.1,0.3-0.1,0.6-0.2,1c0,0.2,0,0.4-0.1,0.5c-0.1,0.3-0.1,0.8,0,1.3c0,0.5,0.1,0.9,0.1,1.2
				c0.1,0.3,0.2,0.6,0.2,0.9c0.1,0.3,0.2,0.6,0.3,0.8c0.3,0.8,0.8,1.5,1.4,2.1c0.6,0.6,1.2,1.1,1.9,1.6c0.6,0.3,1.2,0.6,1.8,0.9
				s1.3,0.5,2,0.8c0.2,0.1,0.5,0.1,0.7,0.2c0.2,0.1,0.4,0.1,0.7,0.2c0.1,0.1,0.2,0.1,0.3,0.1c0.1,0,0.2,0,0.4,0.1
				c0.5,0.2,0.9,0.3,1.4,0.4c0.5,0.1,1,0.2,1.5,0.4c0.2,0.1,0.5,0.1,0.7,0.2c0.2,0,0.4,0.1,0.6,0.2c0.6,0.2,1.1,0.4,1.7,0.5
				c0.6,0.2,1.1,0.4,1.5,0.7c0.2,0.1,0.4,0.2,0.5,0.3c0.7,0.4,1.2,1.1,1.6,1.9c0.1,0.2,0.1,0.4,0.2,0.6c0,0.3,0,0.5,0,0.7
				c-0.2,1.1-0.7,1.8-1.3,2.3c-0.6,0.4-1.4,0.8-2.5,1.1c-0.2,0.1-0.3,0.1-0.5,0.1c-0.2,0-0.3,0-0.5,0.1c-0.2,0-0.4,0-0.5,0
				c-0.2,0.1-0.6,0.1-1,0.1c-0.4,0-0.8,0-1-0.1h-0.2c-0.2-0.1-0.5-0.1-0.7-0.1c-0.2,0-0.4,0-0.6-0.1c-1-0.3-1.8-0.6-2.5-1.1
				c-0.2-0.1-0.4-0.3-0.5-0.4c-0.2-0.2-0.4-0.3-0.5-0.5c-0.2-0.3-0.4-0.6-0.6-0.9c-0.2-0.3-0.3-0.6-0.5-1c-0.2-0.4-0.3-0.7-0.3-1.1
				c-0.1-0.3-0.3-0.6-0.6-0.8c-0.2-0.1-0.5-0.1-0.7-0.1c-0.3,0-0.5,0-0.8,0h-2.9c-0.4,0-0.7,0-1,0.1c-0.3,0-0.5,0.2-0.7,0.4
				c-0.2,0.2-0.2,0.5-0.2,0.8c0,0.4,0.1,0.7,0.1,0.9c0.1,0.2,0.1,0.4,0.1,0.6c0,0.2,0.1,0.4,0.1,0.6c0.3,1,0.7,1.9,1.1,2.6
				c0.8,1.2,1.7,2.2,2.8,2.9s2.4,1.4,3.9,1.8c0.3,0.1,0.7,0.2,1.1,0.3c0.4,0.1,0.8,0.1,1.2,0.2c0.2,0,0.3,0.1,0.4,0.1
				c0.1,0,0.3,0,0.4,0c0.2,0.1,0.4,0.1,0.6,0.1c0.2,0,0.5,0,0.7,0.1h0.5c0.2,0,0.4,0,0.8,0c0.4,0,0.6,0,0.8,0c0.1,0,0.1,0,0.2,0
				c0.1,0,0.2,0,0.2,0h0.4c0.2-0.1,0.4-0.1,0.6-0.1c0.2,0,0.4,0,0.6-0.1c0.5-0.1,0.9-0.2,1.4-0.2c0.4,0,0.9-0.1,1.3-0.3
				c0.6-0.2,1.2-0.4,1.8-0.6c0.6-0.2,1.1-0.5,1.6-0.8c0.2-0.1,0.4-0.2,0.5-0.4c0.2-0.1,0.3-0.2,0.5-0.4c0.2-0.2,0.4-0.3,0.6-0.5
				c0.2-0.2,0.3-0.3,0.5-0.5c0.1-0.1,0.2-0.3,0.3-0.4c0.1-0.1,0.2-0.2,0.4-0.4c0.3-0.4,0.6-0.9,0.8-1.3c0.2-0.5,0.4-1,0.6-1.5
				c0.1-0.3,0.2-0.6,0.2-0.9c0-0.3,0.1-0.6,0.2-1V1506.9z"/>
			<path class="st0" d="M1677.1,1499.5c0.1,0.2,0.1,0.4,0.1,0.7c0,0.3,0,0.5-0.1,0.7v0.4c0,0.1,0,0.3,0,0.4c0,0.1,0,0.3-0.1,0.4
				l-0.1,1.1c-0.1,0.4-0.2,0.8-0.3,1.2c-0.1,0.4-0.2,0.8-0.3,1.1c-0.5,1.3-1.2,2.4-1.9,3.2c-0.8,0.8-1.8,1.5-3.1,2
				c-0.3,0.1-0.6,0.2-0.9,0.2c-0.3,0.1-0.6,0.1-0.9,0.2c-0.2,0.1-0.3,0.1-0.4,0.1c-0.1,0-0.3,0-0.4,0h-0.4c-0.2,0-0.4,0-0.6,0
				s-0.4,0-0.6-0.1c-0.1,0-0.3,0-0.4,0c-0.1,0-0.3,0-0.4-0.1c-0.4-0.1-0.8-0.2-1.2-0.4c-0.4-0.1-0.7-0.3-1.1-0.5
				c-0.2-0.1-0.4-0.2-0.5-0.3c-0.2-0.1-0.3-0.2-0.5-0.4c-0.7-0.5-1.4-1.2-1.8-2c-0.5-0.8-0.9-1.8-1.2-2.7c-0.1-0.3-0.2-0.6-0.2-1
				c0-0.3-0.1-0.7-0.2-1c0-0.1,0-0.2,0-0.3c0-0.1,0-0.2,0-0.3c0-0.1,0-0.2,0-0.4c0-0.1,0-0.3,0-0.4v-0.5c-0.1-0.2-0.1-0.4-0.1-0.8
				c0-0.4,0-0.7,0.1-0.8c0-0.2,0-0.3,0-0.5c0-0.2,0-0.3,0-0.5c0-0.1,0-0.2,0-0.3c0-0.1,0-0.2,0.1-0.4c0.1-0.3,0.2-0.7,0.2-1
				c0-0.3,0.1-0.7,0.2-1c0.5-1.4,1.1-2.6,1.8-3.5c0.8-1,1.8-1.7,3-2.3c0.3-0.1,0.6-0.2,0.9-0.3c0.3-0.1,0.7-0.2,1-0.2
				c0.2-0.1,0.3-0.1,0.4-0.1c0.1,0,0.2,0,0.4,0c0.1,0,0.1,0,0.2,0c0.1,0,0.1,0,0.2,0c2.2,0,4,0.5,5.3,1.4c1.3,1,2.2,2.2,2.9,3.8
				c0.2,0.3,0.3,0.7,0.4,1c0.1,0.3,0.2,0.7,0.3,1c0.1,0.2,0.1,0.3,0.1,0.5c0.1,0.2,0.1,0.4,0.1,0.7c0,0.2,0.1,0.5,0.1,0.7
				c0.1,0.1,0.1,0.2,0.1,0.3c0,0.1,0,0.2,0,0.3V1499.5z"/>
			<path class="st0" d="M1589.3,1499.5c0.1,0.2,0.1,0.4,0.1,0.7c0,0.3,0,0.5-0.1,0.7v0.4c0,0.1,0,0.3,0,0.4c0,0.1,0,0.3,0,0.4
				l-0.1,1.1c-0.1,0.4-0.2,0.8-0.3,1.2c-0.1,0.4-0.2,0.8-0.3,1.1c-0.5,1.3-1.2,2.4-1.9,3.2c-0.8,0.8-1.8,1.5-3.1,2
				c-0.3,0.1-0.6,0.2-0.9,0.2c-0.3,0.1-0.6,0.1-0.9,0.2c-0.2,0.1-0.3,0.1-0.4,0.1c-0.1,0-0.3,0-0.4,0h-0.4c-0.2,0-0.4,0-0.6,0
				c-0.2,0-0.4,0-0.5-0.1c-0.2,0-0.3,0-0.4,0c-0.1,0-0.3,0-0.4-0.1c-0.4-0.1-0.8-0.2-1.2-0.4c-0.4-0.1-0.7-0.3-1.1-0.5
				c-0.2-0.1-0.4-0.2-0.5-0.3c-0.2-0.1-0.3-0.2-0.5-0.4c-0.7-0.5-1.3-1.2-1.8-2c-0.5-0.8-0.9-1.8-1.2-2.7c-0.1-0.3-0.2-0.6-0.2-1
				c-0.1-0.3-0.1-0.7-0.2-1c0-0.1,0-0.2,0-0.3c0-0.1,0-0.2,0-0.3c0-0.1-0.1-0.2-0.1-0.4c0-0.1,0-0.3,0-0.4v-0.5
				c-0.1-0.2-0.1-0.4-0.1-0.8c0-0.4,0.1-0.7,0.1-0.8c0-0.2,0-0.3,0-0.5c0-0.2,0-0.3,0.1-0.5c0-0.1,0-0.2,0-0.3c0-0.1,0-0.2,0.1-0.4
				c0.1-0.3,0.2-0.7,0.2-1c0-0.3,0.1-0.7,0.2-1c0.5-1.4,1.1-2.6,1.8-3.5c0.8-1,1.8-1.7,3-2.3c0.3-0.1,0.6-0.2,0.9-0.3
				c0.3-0.1,0.7-0.2,1-0.2c0.2-0.1,0.3-0.1,0.4-0.1c0.1,0,0.2,0,0.4,0c0.1,0,0.1,0,0.2,0c0.1,0,0.2,0,0.2,0c2.2,0,4,0.5,5.3,1.4
				s2.2,2.2,2.9,3.8c0.2,0.3,0.3,0.7,0.4,1c0.1,0.3,0.2,0.7,0.3,1c0.1,0.2,0.1,0.3,0.1,0.5c0.1,0.2,0.1,0.4,0.1,0.7
				c0,0.2,0.1,0.5,0.1,0.7c0.1,0.1,0.1,0.2,0.1,0.3c0,0.1,0,0.2,0,0.3V1499.5z"/>
			<path class="st0" d="M1461.5,1502.9c0,0.4-0.2,0.6-0.6,0.8c-0.2,0.1-0.5,0.1-0.9,0.1c-0.3,0-0.6,0-0.9,0h-3.5
				c-0.4,0-0.7,0-1.1-0.1c-0.3,0-0.6-0.1-0.8-0.4c-0.1-0.3-0.1-0.6,0-0.8c0.1-0.3,0.2-0.6,0.3-0.9c0.1-0.3,0.2-0.6,0.3-0.9
				c0.3-0.9,0.7-1.8,0.9-2.7c0.3-0.9,0.6-1.8,1-2.6c0.2-0.4,0.3-0.8,0.4-1.2c0.1-0.4,0.3-0.8,0.5-1.1c0.1-0.1,0.1-0.1,0.2-0.1
				c0.1,0,0.1-0.1,0.2-0.1c0.2,0,0.3,0.1,0.5,0.2c0.1,0.2,0.2,0.3,0.3,0.5c0.1,0.2,0.2,0.4,0.2,0.6c0.1,0.2,0.1,0.4,0.2,0.6
				c0.4,1.1,0.8,2.1,1.1,3.2c0.3,1.1,0.7,2.1,1.1,3.2c0.1,0.1,0.1,0.2,0.1,0.3c0,0.1,0,0.2,0.1,0.3
				C1461.4,1502.2,1461.5,1502.5,1461.5,1502.9z"/>
			<path class="st0" d="M1317.3,1502.9c0,0.4-0.2,0.6-0.6,0.8c-0.2,0.1-0.5,0.1-0.9,0.1c-0.3,0-0.6,0-0.9,0h-3.5
				c-0.4,0-0.7,0-1.1-0.1c-0.3,0-0.6-0.1-0.8-0.4c-0.1-0.3-0.1-0.6,0-0.8c0.1-0.3,0.2-0.6,0.3-0.9c0.1-0.3,0.2-0.6,0.3-0.9
				c0.3-0.9,0.7-1.8,0.9-2.7c0.3-0.9,0.6-1.8,1-2.6c0.2-0.4,0.3-0.8,0.4-1.2c0.1-0.4,0.3-0.8,0.5-1.1c0.1-0.1,0.1-0.1,0.2-0.1
				c0.1,0,0.1-0.1,0.2-0.1c0.2,0,0.3,0.1,0.5,0.2c0.1,0.2,0.2,0.3,0.3,0.5c0.1,0.2,0.2,0.4,0.2,0.6c0.1,0.2,0.1,0.4,0.2,0.6
				c0.4,1.1,0.8,2.1,1.2,3.2c0.3,1.1,0.7,2.1,1.1,3.2c0.1,0.1,0.1,0.2,0.1,0.3c0,0.1,0,0.2,0.1,0.3
				C1317.2,1502.2,1317.2,1502.5,1317.3,1502.9z"/>
			<path class="st0" d="M1283.7,1494c0,0.5,0,0.9-0.1,1.3c-0.1,0.4-0.2,0.8-0.4,1.1c-0.1,0.3-0.3,0.6-0.5,0.9
				c-0.7,0.9-1.7,1.4-3.1,1.6c-1.3,0.2-2.8,0.2-4.4,0.2c-0.3,0-0.6,0-1,0c-0.3,0-0.7,0-1,0c-0.3,0-0.6-0.1-0.8-0.2
				c-0.2-0.1-0.4-0.2-0.5-0.4c-0.2-0.2-0.2-0.6-0.2-1c0-0.4,0-0.8,0-1.2v-4.3c0-0.3,0-0.7,0-1.1c0-0.4,0.1-0.7,0.2-1
				c0.1-0.2,0.3-0.4,0.6-0.5c0.1,0,0.2,0,0.3,0c0.1,0,0.2,0,0.2-0.1c0.7,0,1.5,0,2.3,0c0.8,0,1.6,0,2.4,0c0.8,0,1.5,0.1,2.2,0.2
				c0.7,0.1,1.2,0.4,1.7,0.6c0.5,0.3,1,0.7,1.2,1.1c0.3,0.4,0.5,0.9,0.7,1.6C1283.7,1493.1,1283.7,1493.5,1283.7,1494z"/>
		</g>
		<g>
		</g>
	</g>
</g>
</svg>
